Bellota-Regular.ufo
<glyph name="exclam" format="2">
	<advance width="249"/>
	<unicode hex="0021"/>
	<outline>
		<contour>
			<point x="88" y="704" type="line"/>
			<point x="97" y="139" type="line"/>
			<point x="149" y="139" type="line"/>
			<point x="158" y="704" type="line"/>
		</contour>
		<component base="period" xOffset="-1" yOffset="-9"/>
	</outline>
</glyph>
<glyph name="quotedbl" format="1">
  <advance width="352"/>
  <unicode hex="0022"/>
  <outline>
    <contour>
      <point x="257" y="492" type="line"/>
      <point x="267" y="684" type="line"/>
      <point x="195" y="684" type="line"/>
      <point x="205" y="492" type="line"/>
    </contour>
    <contour>
      <point x="147" y="492" type="line"/>
      <point x="157" y="684" type="line"/>
      <point x="85" y="684" type="line"/>
      <point x="95" y="492" type="line"/>
    </contour>
  </outline>
</glyph>
<glyph name="numbersign" format="2">
	<advance width="605"/>
	<unicode hex="0023"/>
	<outline>
		<contour>
			<point x="165" y="184" type="line"/>
			<point x="165" y="30" type="line"/>
			<point x="219" y="30" type="line"/>
			<point x="219" y="184" type="line"/>
			<point x="388" y="184" type="line"/>
			<point x="388" y="30" type="line"/>
			<point x="442" y="30" type="line"/>
			<point x="442" y="184" type="line"/>
			<point x="556" y="184" type="line"/>
			<point x="556" y="236" type="line"/>
			<point x="442" y="236" type="line"/>
			<point x="442" y="412" type="line"/>
			<point x="556" y="412" type="line"/>
			<point x="556" y="464" type="line"/>
			<point x="442" y="464" type="line"/>
			<point x="442" y="617" type="line"/>
			<point x="386" y="617" type="line"/>
			<point x="386" y="464" type="line"/>
			<point x="219" y="464" type="line"/>
			<point x="219" y="617" type="line"/>
			<point x="163" y="617" type="line"/>
			<point x="163" y="464" type="line"/>
			<point x="49" y="464" type="line"/>
			<point x="49" y="412" type="line"/>
			<point x="163" y="412" type="line"/>
			<point x="163" y="236" type="line"/>
			<point x="49" y="236" type="line"/>
			<point x="49" y="184" type="line"/>
		</contour>
		<contour>
			<point x="386" y="236" type="line"/>
			<point x="219" y="236" type="line"/>
			<point x="219" y="412" type="line"/>
			<point x="386" y="412" type="line"/>
		</contour>
	</outline>
</glyph>
<glyph name="dollar" format="2">
	<advance width="570"/>
	<unicode hex="0024"/>
	<outline>
		<contour>
			<point x="253" y="-70" type="line"/>
			<point x="311" y="-70" type="line"/>
			<point x="311" y="-8" type="line"/>
			<point x="362" y="-4"/>
			<point x="411" y="10"/>
			<point x="448" y="39" type="curve" smooth="yes"/>
			<point x="488" y="71"/>
			<point x="508" y="114"/>
			<point x="508" y="171" type="curve" smooth="yes"/>
			<point x="508" y="228"/>
			<point x="488" y="270"/>
			<point x="445" y="304" type="curve" smooth="yes"/>
			<point x="409" y="332"/>
			<point x="375" y="344"/>
			<point x="311" y="364" type="curve"/>
			<point x="311" y="606" type="line"/>
			<point x="352" y="600"/>
			<point x="371" y="594"/>
			<point x="402" y="580" type="curve" smooth="yes"/>
			<point x="429" y="568"/>
			<point x="452" y="555"/>
			<point x="473" y="542" type="curve"/>
			<point x="506" y="590" type="line"/>
			<point x="481" y="608"/>
			<point x="448" y="625"/>
			<point x="418" y="637" type="curve" smooth="yes"/>
			<point x="387" y="649"/>
			<point x="355" y="658"/>
			<point x="311" y="662" type="curve"/>
			<point x="311" y="750" type="line"/>
			<point x="253" y="750" type="line"/>
			<point x="253" y="662" type="line"/>
			<point x="209" y="657"/>
			<point x="165" y="642"/>
			<point x="131" y="611" type="curve" smooth="yes"/>
			<point x="102" y="584"/>
			<point x="86" y="550"/>
			<point x="86" y="503" type="curve" smooth="yes"/>
			<point x="86" y="458"/>
			<point x="101" y="416"/>
			<point x="137" y="382" type="curve" smooth="yes"/>
			<point x="169" y="352"/>
			<point x="206" y="337"/>
			<point x="253" y="322" type="curve"/>
			<point x="253" y="47" type="line"/>
			<point x="191" y="54"/>
			<point x="137" y="79"/>
			<point x="84" y="112" type="curve"/>
			<point x="51" y="64" type="line"/>
			<point x="107" y="21"/>
			<point x="178" y="-3"/>
			<point x="253" y="-9" type="curve"/>
		</contour>
		<contour>
			<point x="311" y="46" type="curve"/>
			<point x="311" y="303" type="line"/>
			<point x="342" y="293"/>
			<point x="383" y="275"/>
			<point x="406" y="257" type="curve" smooth="yes"/>
			<point x="433" y="236"/>
			<point x="446" y="206"/>
			<point x="446" y="168" type="curve" smooth="yes"/>
			<point x="446" y="138"/>
			<point x="438" y="102"/>
			<point x="406" y="77" type="curve" smooth="yes"/>
			<point x="381" y="58"/>
			<point x="347" y="48"/>
		</contour>
		<contour>
			<point x="253" y="384" type="line"/>
			<point x="225" y="396"/>
			<point x="198" y="410"/>
			<point x="178" y="430" type="curve" smooth="yes"/>
			<point x="157" y="451"/>
			<point x="148" y="478"/>
			<point x="148" y="506" type="curve" smooth="yes"/>
			<point x="148" y="556"/>
			<point x="176" y="600"/>
			<point x="253" y="608" type="curve"/>
		</contour>
	</outline>
</glyph>
<glyph name="ampersand" format="1">
  <advance width="636"/>
  <unicode hex="0026"/>
  <outline>
    <contour>
      <point x="322" y="-10"/>
      <point x="400" y="21"/>
      <point x="451" y="79" type="curve"/>
      <point x="540" y="-3" type="line"/>
      <point x="576" y="38" type="line"/>
      <point x="485" y="123" type="line"/>
      <point x="520" y="180"/>
      <point x="538" y="247"/>
      <point x="538" y="315" type="curve" smooth="yes"/>
      <point x="538" y="357" type="line"/>
      <point x="485" y="357" type="line"/>
      <point x="485" y="317" type="line" smooth="yes"/>
      <point x="485" y="261"/>
      <point x="472" y="207"/>
      <point x="445" y="159" type="curve"/>
      <point x="393" y="208"/>
      <point x="295" y="300"/>
      <point x="250" y="341" type="curve" smooth="yes"/>
      <point x="209" y="378"/>
      <point x="165" y="420"/>
      <point x="165" y="487" type="curve" smooth="yes"/>
      <point x="165" y="542"/>
      <point x="213" y="579"/>
      <point x="265" y="579" type="curve" smooth="yes"/>
      <point x="306" y="579"/>
      <point x="343" y="566"/>
      <point x="369" y="514" type="curve"/>
      <point x="408" y="548" type="line"/>
      <point x="388" y="597"/>
      <point x="332" y="634"/>
      <point x="263" y="634" type="curve" smooth="yes"/>
      <point x="187" y="634"/>
      <point x="100" y="577"/>
      <point x="100" y="479" type="curve" smooth="yes"/>
      <point x="100" y="431"/>
      <point x="118" y="390"/>
      <point x="151" y="352" type="curve"/>
      <point x="65" y="307"/>
      <point x="40" y="226"/>
      <point x="40" y="164" type="curve" smooth="yes"/>
      <point x="40" y="42"/>
      <point x="139" y="-10"/>
      <point x="242" y="-10" type="curve" smooth="yes"/>
    </contour>
    <contour>
      <point x="169" y="42"/>
      <point x="97" y="79"/>
      <point x="97" y="169" type="curve" smooth="yes"/>
      <point x="97" y="228"/>
      <point x="128" y="285"/>
      <point x="190" y="314" type="curve"/>
      <point x="263" y="252" type="line"/>
      <point x="412" y="114" type="line"/>
      <point x="368" y="66"/>
      <point x="301" y="42"/>
      <point x="242" y="42" type="curve" smooth="yes"/>
    </contour>
  </outline>
</glyph>
<glyph name="quotesingle" format="2">
	<advance width="252"/>
	<unicode hex="0027"/>
	<outline>
		<contour>
			<point x="90" y="684" type="line"/>
			<point x="100" y="492" type="line"/>
			<point x="152" y="492" type="line"/>
			<point x="162" y="684" type="line"/>
		</contour>
	</outline>
</glyph>
<glyph name="parenleft" format="2">
	<advance width="364"/>
	<unicode hex="0028"/>
	<outline>
		<contour>
			<point x="308" y="-161" type="curve"/>
			<point x="308" y="-161" type="line"/>
			<point x="333" y="-118" type="line"/>
			<point x="264" y="-77"/>
			<point x="209" y="-12"/>
			<point x="173" y="55" type="curve"/>
			<point x="138" y="120"/>
			<point x="111" y="207"/>
			<point x="111" y="294" type="curve"/>
			<point x="111" y="376"/>
			<point x="135" y="463"/>
			<point x="173" y="534" type="curve"/>
			<point x="210" y="603"/>
			<point x="267" y="669"/>
			<point x="333" y="707" type="curve"/>
			<point x="308" y="750" type="line"/>
			<point x="221" y="703"/>
			<point x="155" y="632"/>
			<point x="113" y="554" type="curve"/>
			<point x="70" y="474"/>
			<point x="50" y="384"/>
			<point x="50" y="293" type="curve"/>
			<point x="50" y="202"/>
			<point x="70" y="116"/>
			<point x="113" y="36" type="curve"/>
			<point x="156" y="-44"/>
			<point x="219" y="-112"/>
		</contour>
	</outline>
</glyph>
<glyph name="asterisk" format="1">
  <advance width="394"/>
  <unicode hex="002A"/>
  <outline>
    <contour>
      <point x="197" y="512" type="line"/>
      <point x="258" y="418" type="line"/>
      <point x="307" y="452" type="line"/>
      <point x="240" y="533" type="line"/>
      <point x="344" y="562" type="line"/>
      <point x="327" y="619" type="line"/>
      <point x="220" y="577" type="line"/>
      <point x="227" y="694" type="line"/>
      <point x="167" y="694" type="line"/>
      <point x="173" y="578" type="line"/>
      <point x="68" y="619" type="line"/>
      <point x="49" y="562" type="line"/>
      <point x="155" y="534" type="line"/>
      <point x="87" y="452" type="line"/>
      <point x="135" y="416" type="line"/>
    </contour>
  </outline>
</glyph>
<glyph name="plus" format="2">
	<advance width="470"/>
	<unicode hex="002B"/>
	<outline>
		<contour>
			<point x="207" y="107" type="line"/>
			<point x="263" y="107" type="line"/>
			<point x="263" y="268" type="line"/>
			<point x="421" y="268" type="line"/>
			<point x="421" y="319" type="line"/>
			<point x="263" y="319" type="line"/>
			<point x="263" y="479" type="line"/>
			<point x="207" y="479" type="line"/>
			<point x="207" y="319" type="line"/>
			<point x="49" y="319" type="line"/>
			<point x="49" y="268" type="line"/>
			<point x="207" y="268" type="line"/>
		</contour>
	</outline>
</glyph>
<glyph name="comma" format="2">
	<advance width="242"/>
	<unicode hex="002C"/>
	<outline>
		<contour>
			<point x="72" y="-67" type="curve"/>
			<point x="101" y="-100" type="line"/>
			<point x="126" y="-82"/>
			<point x="143" y="-63"/>
			<point x="151" y="-42" type="curve"/>
			<point x="160" y="-19"/>
			<point x="163" y="7"/>
			<point x="163" y="52" type="curve"/>
			<point x="163" y="68"/>
			<point x="153" y="85"/>
			<point x="131" y="85" type="curve"/>
			<point x="111" y="85"/>
			<point x="98" y="72"/>
			<point x="98" y="52" type="curve"/>
			<point x="100" y="29"/>
			<point x="106" y="-4"/>
			<point x="99" y="-27" type="curve"/>
			<point x="95" y="-40"/>
			<point x="85" y="-54"/>
		</contour>
	</outline>
</glyph>
<glyph name="hyphen" format="2">
	<advance width="403"/>
	<unicode hex="002D"/>
	<outline>
		<contour>
			<point x="53" y="277" type="line"/>
			<point x="350" y="277" type="line"/>
			<point x="350" y="334" type="line"/>
			<point x="53" y="334" type="line"/>
		</contour>
	</outline>
</glyph>
<glyph name="period" format="1">
  <advance width="220"/>
  <unicode hex="002E"/>
  <outline>
    <contour>
      <point x="133" y="-4"/>
      <point x="152" y="15"/>
      <point x="152" y="38" type="curve" smooth="yes"/>
      <point x="152" y="62"/>
      <point x="133" y="81"/>
      <point x="109" y="81" type="curve" smooth="yes"/>
      <point x="86" y="81"/>
      <point x="67" y="62"/>
      <point x="67" y="38" type="curve" smooth="yes"/>
      <point x="67" y="15"/>
      <point x="86" y="-4"/>
      <point x="109" y="-4" type="curve" smooth="yes"/>
    </contour>
  </outline>
</glyph>
<glyph name="slash" format="2">
	<advance width="300"/>
	<unicode hex="002F"/>
	<outline>
		<contour>
			<point x="9" y="-70" type="line"/>
			<point x="73" y="-70" type="line"/>
			<point x="291" y="750" type="line"/>
			<point x="228" y="750" type="line"/>
		</contour>
	</outline>
</glyph>
<glyph name="zero" format="1">
  <advance width="654"/>
  <unicode hex="0030"/>
  <outline>
    <contour>
      <point x="484" y="-10"/>
      <point x="583" y="144"/>
      <point x="583" y="324" type="curve" smooth="yes"/>
      <point x="583" y="502"/>
      <point x="487" y="663"/>
      <point x="312" y="663" type="curve" smooth="yes"/>
      <point x="138" y="663"/>
      <point x="41" y="505"/>
      <point x="41" y="327" type="curve" smooth="yes"/>
      <point x="41" y="151"/>
      <point x="136" y="-10"/>
      <point x="312" y="-10" type="curve" smooth="yes"/>
    </contour>
    <contour>
      <point x="175" y="45"/>
      <point x="104" y="181"/>
      <point x="104" y="327" type="curve" smooth="yes"/>
      <point x="104" y="472"/>
      <point x="174" y="608"/>
      <point x="313" y="608" type="curve" smooth="yes"/>
      <point x="450" y="608"/>
      <point x="521" y="476"/>
      <point x="521" y="328" type="curve" smooth="yes"/>
      <point x="521" y="187"/>
      <point x="457" y="45"/>
      <point x="314" y="45" type="curve" smooth="yes"/>
    </contour>
  </outline>
</glyph>
<glyph name="one" format="1">
  <advance width="363"/>
  <unicode hex="0031"/>
  <outline>
    <contour>
      <point x="278" y="0" type="line"/>
      <point x="278" y="669" type="line"/>
      <point x="270" y="669" type="line"/>
      <point x="175" y="605"/>
      <point x="114" y="561"/>
      <point x="51" y="561" type="curve"/>
      <point x="64" y="509" type="line"/>
      <point x="124" y="509"/>
      <point x="170" y="533"/>
      <point x="217" y="573" type="curve"/>
      <point x="217" y="0" type="line"/>
    </contour>
  </outline>
</glyph>
<glyph name="two" format="2">
	<advance width="524"/>
	<unicode hex="0032"/>
	<outline>
		<contour>
			<point x="46" y="13" type="curve"/>
			<point x="46" y="0" type="line"/>
			<point x="482" y="0" type="line"/>
			<point x="482" y="57" type="line"/>
			<point x="110" y="57" type="line"/>
			<point x="123" y="112"/>
			<point x="161" y="148"/>
			<point x="216" y="193" type="curve"/>
			<point x="330" y="287"/>
			<point x="449" y="336"/>
			<point x="449" y="480" type="curve"/>
			<point x="449" y="588"/>
			<point x="381" y="655"/>
			<point x="257" y="655" type="curve"/>
			<point x="150" y="655"/>
			<point x="82" y="605"/>
			<point x="47" y="507" type="curve"/>
			<point x="94" y="483" type="line"/>
			<point x="117" y="561"/>
			<point x="176" y="605"/>
			<point x="256" y="605" type="curve"/>
			<point x="340" y="605"/>
			<point x="393" y="555"/>
			<point x="393" y="481" type="curve"/>
			<point x="393" y="380"/>
			<point x="294" y="325"/>
			<point x="219" y="268" type="curve"/>
			<point x="119" y="192"/>
			<point x="46" y="122"/>
		</contour>
	</outline>
</glyph>
<glyph name="three" format="2">
	<advance width="534"/>
	<unicode hex="0033"/>
	<outline>
		<contour>
			<point x="256" y="-12" type="curve"/>
			<point x="256" y="-12" type="line"/>
			<point x="377" y="-12"/>
			<point x="484" y="52"/>
			<point x="484" y="175" type="curve"/>
			<point x="484" y="272"/>
			<point x="423" y="346"/>
			<point x="337" y="360" type="curve"/>
			<point x="402" y="375"/>
			<point x="448" y="440"/>
			<point x="448" y="508" type="curve"/>
			<point x="448" y="602"/>
			<point x="360" y="660"/>
			<point x="252" y="660" type="curve"/>
			<point x="191" y="660"/>
			<point x="142" y="641"/>
			<point x="86" y="601" type="curve"/>
			<point x="112" y="556" type="line"/>
			<point x="151" y="589"/>
			<point x="208" y="604"/>
			<point x="253" y="604" type="curve"/>
			<point x="319" y="604"/>
			<point x="388" y="570"/>
			<point x="388" y="505" type="curve"/>
			<point x="388" y="438"/>
			<point x="320" y="384"/>
			<point x="257" y="384" type="curve"/>
			<point x="149" y="384" type="line"/>
			<point x="149" y="332" type="line"/>
			<point x="258" y="332" type="line"/>
			<point x="339" y="329"/>
			<point x="424" y="279"/>
			<point x="424" y="184" type="curve"/>
			<point x="424" y="89"/>
			<point x="341" y="44"/>
			<point x="249" y="44" type="curve"/>
			<point x="161" y="44"/>
			<point x="100" y="86"/>
			<point x="61" y="126" type="curve"/>
			<point x="27" y="83" type="line"/>
			<point x="73" y="38"/>
			<point x="151" y="-12"/>
		</contour>
	</outline>
</glyph>
<glyph name="four" format="2">
	<advance width="529"/>
	<unicode hex="0034"/>
	<outline>
		<contour>
			<point x="353" y="126" type="line"/>
			<point x="353" y="-3" type="line"/>
			<point x="413" y="-3" type="line"/>
			<point x="413" y="126" type="line"/>
			<point x="497" y="126" type="line"/>
			<point x="497" y="182" type="line"/>
			<point x="413" y="182" type="line"/>
			<point x="413" y="405" type="line"/>
			<point x="353" y="405" type="line"/>
			<point x="353" y="182" type="line"/>
			<point x="106" y="182" type="line"/>
			<point x="306" y="650" type="line"/>
			<point x="241" y="650" type="line"/>
			<point x="37" y="176" type="line"/>
			<point x="37" y="126" type="line"/>
		</contour>
	</outline>
</glyph>
<glyph name="five" format="2">
	<advance width="495"/>
	<unicode hex="0035"/>
	<outline>
		<contour>
			<point x="236" y="-6" type="curve" smooth="yes"/>
			<point x="362" y="-6"/>
			<point x="461" y="87"/>
			<point x="461" y="223" type="curve" smooth="yes"/>
			<point x="461" y="358"/>
			<point x="362" y="440"/>
			<point x="214" y="440" type="curve" smooth="yes"/>
			<point x="191" y="440"/>
			<point x="169" y="438"/>
			<point x="126" y="432" type="curve"/>
			<point x="126" y="592" type="line"/>
			<point x="399" y="596" type="line"/>
			<point x="399" y="653" type="line"/>
			<point x="65" y="646" type="line"/>
			<point x="65" y="368" type="line"/>
			<point x="70" y="364" type="line"/>
			<point x="108" y="379"/>
			<point x="152" y="384"/>
			<point x="198" y="384" type="curve" smooth="yes"/>
			<point x="318" y="384"/>
			<point x="402" y="350"/>
			<point x="402" y="230" type="curve" smooth="yes"/>
			<point x="402" y="129"/>
			<point x="343" y="50"/>
			<point x="227" y="50" type="curve" smooth="yes"/>
			<point x="163" y="50"/>
			<point x="119" y="74"/>
			<point x="57" y="119" type="curve"/>
			<point x="45" y="66" type="line"/>
			<point x="72" y="40"/>
			<point x="147" y="-6"/>
		</contour>
	</outline>
</glyph>
<glyph name="six" format="2">
	<advance width="569"/>
	<unicode hex="0036"/>
	<outline>
		<contour>
			<point x="292" y="-19" type="curve"/>
			<point x="292" y="-19" type="line"/>
			<point x="422" y="-19"/>
			<point x="525" y="80"/>
			<point x="525" y="206" type="curve"/>
			<point x="525" y="331"/>
			<point x="421" y="434"/>
			<point x="296" y="434" type="curve"/>
			<point x="224" y="434"/>
			<point x="151" y="392"/>
			<point x="119" y="332" type="curve"/>
			<point x="130" y="395"/>
			<point x="173" y="466"/>
			<point x="229" y="515" type="curve"/>
			<point x="292" y="568"/>
			<point x="369" y="597"/>
			<point x="448" y="596" type="curve"/>
			<point x="449" y="651" type="line"/>
			<point x="358" y="651"/>
			<point x="270" y="618"/>
			<point x="198" y="558" type="curve"/>
			<point x="104" y="480"/>
			<point x="51" y="371"/>
			<point x="51" y="257" type="curve"/>
			<point x="51" y="96"/>
			<point x="152" y="-19"/>
		</contour>
		<contour>
			<point x="293" y="37" type="curve"/>
			<point x="293" y="37" type="line"/>
			<point x="199" y="37"/>
			<point x="122" y="112"/>
			<point x="121" y="205" type="curve"/>
			<point x="120" y="302"/>
			<point x="196" y="378"/>
			<point x="295" y="378" type="curve"/>
			<point x="388" y="378"/>
			<point x="465" y="300"/>
			<point x="465" y="207" type="curve"/>
			<point x="465" y="113"/>
			<point x="389" y="37"/>
		</contour>
	</outline>
</glyph>
<glyph name="seven" format="2">
	<advance width="460"/>
	<unicode hex="0037"/>
	<outline>
		<contour>
			<point x="120" y="0" type="line"/>
			<point x="184" y="0" type="line"/>
			<point x="438" y="645" type="line"/>
			<point x="438" y="653" type="line"/>
			<point x="21" y="648" type="line"/>
			<point x="21" y="592" type="line"/>
			<point x="359" y="596" type="line"/>
		</contour>
	</outline>
</glyph>
<glyph name="eight" format="1">
  <advance width="556"/>
  <unicode hex="0038"/>
  <outline>
    <contour>
      <point x="393" y="-16"/>
      <point x="487" y="55"/>
      <point x="487" y="177" type="curve" smooth="yes"/>
      <point x="487" y="271"/>
      <point x="432" y="330"/>
      <point x="358" y="361" type="curve"/>
      <point x="399" y="386"/>
      <point x="450" y="434"/>
      <point x="450" y="506" type="curve" smooth="yes"/>
      <point x="450" y="597"/>
      <point x="367" y="666"/>
      <point x="261" y="666" type="curve" smooth="yes"/>
      <point x="156" y="666"/>
      <point x="76" y="599"/>
      <point x="76" y="502" type="curve" smooth="yes"/>
      <point x="76" y="446"/>
      <point x="103" y="402"/>
      <point x="157" y="372" type="curve"/>
      <point x="93" y="326"/>
      <point x="40" y="270"/>
      <point x="40" y="179" type="curve" smooth="yes"/>
      <point x="40" y="58"/>
      <point x="132" y="-16"/>
      <point x="264" y="-16" type="curve" smooth="yes"/>
    </contour>
    <contour>
      <point x="163" y="38"/>
      <point x="102" y="93"/>
      <point x="102" y="182" type="curve" smooth="yes"/>
      <point x="102" y="243"/>
      <point x="130" y="278"/>
      <point x="207" y="343" type="curve" smooth="yes"/>
      <point x="213" y="348" type="line"/>
      <point x="235" y="342" type="line" smooth="yes"/>
      <point x="337" y="314"/>
      <point x="425" y="285"/>
      <point x="425" y="181" type="curve" smooth="yes"/>
      <point x="425" y="95"/>
      <point x="366" y="38"/>
      <point x="264" y="38" type="curve" smooth="yes"/>
    </contour>
    <contour>
      <point x="290" y="386" type="line"/>
      <point x="224" y="407" type="line" smooth="yes"/>
      <point x="176" y="421"/>
      <point x="138" y="447"/>
      <point x="138" y="502" type="curve" smooth="yes"/>
      <point x="138" y="565"/>
      <point x="189" y="611"/>
      <point x="263" y="611" type="curve" smooth="yes"/>
      <point x="337" y="611"/>
      <point x="388" y="565"/>
      <point x="388" y="502" type="curve" smooth="yes"/>
      <point x="388" y="447"/>
      <point x="349" y="415"/>
      <point x="303" y="382" type="curve"/>
    </contour>
  </outline>
</glyph>
<glyph name="less" format="2">
	<advance width="501"/>
	<unicode hex="003C"/>
	<outline>
		<contour>
			<point x="70" y="233" type="line"/>
			<point x="414" y="74" type="line"/>
			<point x="414" y="140" type="line"/>
			<point x="127" y="271" type="line"/>
			<point x="414" y="393" type="line"/>
			<point x="414" y="457" type="line"/>
			<point x="70" y="305" type="line"/>
		</contour>
	</outline>
</glyph>
<glyph name="equal" format="2">
	<advance width="590"/>
	<unicode hex="003D"/>
	<outline>
		<contour>
			<point x="119" y="399" type="line"/>
			<point x="119" y="347" type="line"/>
			<point x="471" y="347" type="line"/>
			<point x="471" y="399" type="line"/>
		</contour>
		<contour>
			<point x="119" y="239" type="line"/>
			<point x="119" y="187" type="line"/>
			<point x="471" y="187" type="line"/>
			<point x="471" y="239" type="line"/>
		</contour>
	</outline>
</glyph>
<glyph name="greater" format="2">
	<advance width="504"/>
	<unicode hex="003E"/>
	<outline>
		<contour>
			<point x="87" y="138" type="line"/>
			<point x="87" y="72" type="line"/>
			<point x="434" y="231" type="line"/>
			<point x="434" y="303" type="line"/>
			<point x="87" y="455" type="line"/>
			<point x="87" y="391" type="line"/>
			<point x="377" y="269" type="line"/>
		</contour>
	</outline>
</glyph>
<glyph name="question" format="2">
	<advance width="464"/>
	<unicode hex="003F"/>
	<outline>
		<contour>
			<point x="134" y="139" type="curve"/>
			<point x="186" y="150" type="line"/>
			<point x="183" y="164"/>
			<point x="181" y="178"/>
			<point x="181" y="191" type="curve" smooth="yes"/>
			<point x="181" y="209"/>
			<point x="185" y="226"/>
			<point x="199" y="244" type="curve" smooth="yes"/>
			<point x="221" y="272"/>
			<point x="249" y="285"/>
			<point x="301" y="317" type="curve" smooth="yes"/>
			<point x="338" y="340"/>
			<point x="380" y="367"/>
			<point x="403" y="418" type="curve" smooth="yes"/>
			<point x="415" y="443"/>
			<point x="420" y="473"/>
			<point x="420" y="502" type="curve" smooth="yes"/>
			<point x="420" y="531"/>
			<point x="415" y="560"/>
			<point x="404" y="585" type="curve" smooth="yes"/>
			<point x="372" y="659"/>
			<point x="294" y="703"/>
			<point x="218" y="703" type="curve" smooth="yes"/>
			<point x="198" y="703"/>
			<point x="174" y="700"/>
			<point x="155" y="695" type="curve" smooth="yes"/>
			<point x="96" y="680"/>
			<point x="36" y="638"/>
			<point x="36" y="574" type="curve" smooth="yes"/>
			<point x="36" y="530"/>
			<point x="64" y="495"/>
			<point x="125" y="495" type="curve" smooth="yes"/>
			<point x="129" y="495"/>
			<point x="134" y="496"/>
			<point x="139" y="496" type="curve"/>
			<point x="125" y="548" type="line"/>
			<point x="116" y="548"/>
			<point x="89" y="549"/>
			<point x="89" y="576" type="curve" smooth="yes"/>
			<point x="89" y="620"/>
			<point x="162" y="650"/>
			<point x="217" y="650" type="curve" smooth="yes"/>
			<point x="278" y="650"/>
			<point x="332" y="614"/>
			<point x="355" y="564" type="curve" smooth="yes"/>
			<point x="364" y="545"/>
			<point x="368" y="525"/>
			<point x="368" y="506" type="curve" smooth="yes"/>
			<point x="368" y="480"/>
			<point x="361" y="455"/>
			<point x="349" y="433" type="curve" smooth="yes"/>
			<point x="330" y="399"/>
			<point x="300" y="374"/>
			<point x="248" y="346" type="curve" smooth="yes"/>
			<point x="212" y="327"/>
			<point x="170" y="303"/>
			<point x="146" y="263" type="curve" smooth="yes"/>
			<point x="131" y="238"/>
			<point x="128" y="213"/>
			<point x="128" y="191" type="curve" smooth="yes"/>
			<point x="128" y="173"/>
			<point x="130" y="157"/>
		</contour>
		<contour>
			<point x="176" y="5" type="curve" smooth="yes"/>
			<point x="202" y="5"/>
			<point x="223" y="26"/>
			<point x="223" y="52" type="curve" smooth="yes"/>
			<point x="223" y="78"/>
			<point x="202" y="100"/>
			<point x="176" y="100" type="curve" smooth="yes"/>
			<point x="150" y="100"/>
			<point x="128" y="78"/>
			<point x="128" y="52" type="curve" smooth="yes"/>
			<point x="128" y="26"/>
			<point x="150" y="5"/>
		</contour>
	</outline>
</glyph>
<glyph name="at" format="1">
  <advance width="703"/>
  <unicode hex="0040"/>
  <outline>
    <contour>
      <point x="394" y="-60"/>
      <point x="471" y="-52"/>
      <point x="548" y="-14" type="curve"/>
      <point x="534" y="31" type="line"/>
      <point x="488" y="4"/>
      <point x="417" y="-12"/>
      <point x="350" y="-12" type="curve" smooth="yes"/>
      <point x="188" y="-12"/>
      <point x="95" y="83"/>
      <point x="95" y="239" type="curve" smooth="yes"/>
      <point x="95" y="390"/>
      <point x="188" y="501"/>
      <point x="341" y="501" type="curve" smooth="yes"/>
      <point x="485" y="501"/>
      <point x="582" y="400"/>
      <point x="582" y="261" type="curve" smooth="yes"/>
      <point x="582" y="192"/>
      <point x="553" y="132"/>
      <point x="495" y="132" type="curve" smooth="yes"/>
      <point x="464" y="132"/>
      <point x="440" y="153"/>
      <point x="433" y="194" type="curve"/>
      <point x="433" y="401" type="line"/>
      <point x="389" y="401" type="line" smooth="yes"/>
      <point x="383" y="401"/>
      <point x="340" y="406"/>
      <point x="323" y="406" type="curve" smooth="yes"/>
      <point x="258" y="406"/>
      <point x="185" y="351"/>
      <point x="185" y="254" type="curve" smooth="yes"/>
      <point x="185" y="169"/>
      <point x="240" y="101"/>
      <point x="311" y="101" type="curve" smooth="yes"/>
      <point x="347" y="101"/>
      <point x="379" y="118"/>
      <point x="402" y="147" type="curve"/>
      <point x="416" y="105"/>
      <point x="453" y="87"/>
      <point x="495" y="87" type="curve" smooth="yes"/>
      <point x="583" y="87"/>
      <point x="635" y="158"/>
      <point x="635" y="260" type="curve" smooth="yes"/>
      <point x="635" y="429"/>
      <point x="515" y="548"/>
      <point x="340" y="548" type="curve" smooth="yes"/>
      <point x="156" y="548"/>
      <point x="41" y="419"/>
      <point x="41" y="236" type="curve" smooth="yes"/>
      <point x="41" y="44"/>
      <point x="170" y="-60"/>
      <point x="340" y="-60" type="curve" smooth="yes"/>
    </contour>
    <contour>
      <point x="252" y="151"/>
      <point x="235" y="215"/>
      <point x="235" y="256" type="curve" smooth="yes"/>
      <point x="235" y="314"/>
      <point x="270" y="356"/>
      <point x="326" y="356" type="curve" smooth="yes"/>
      <point x="339" y="356"/>
      <point x="339" y="356"/>
      <point x="383" y="351" type="curve"/>
      <point x="383" y="216" type="line"/>
      <point x="382" y="214"/>
      <point x="384" y="214"/>
      <point x="377" y="200" type="curve" smooth="yes"/>
      <point x="367" y="180"/>
      <point x="348" y="151"/>
      <point x="309" y="151" type="curve" smooth="yes"/>
    </contour>
  </outline>
</glyph>
<glyph name="A" format="2">
	<advance width="744"/>
	<unicode hex="0041"/>
	<anchor x="719" y="0" name="ogonek"/>
	<anchor x="414" y="0" name="bottom"/>
	<anchor x="414" y="686" name="top"/>
	<outline>
		<contour>
			<point x="111" y="-4" type="curve" smooth="yes"/>
			<point x="145" y="-4"/>
			<point x="179" y="15"/>
			<point x="193" y="50" type="curve" smooth="yes"/>
			<point x="266" y="227" type="line"/>
			<point x="561" y="227" type="line"/>
			<point x="656" y="0" type="line"/>
			<point x="720" y="0" type="line"/>
			<point x="423" y="693" type="line"/>
			<point x="404" y="693" type="line"/>
			<point x="140" y="75" type="line" smooth="yes"/>
			<point x="135" y="63"/>
			<point x="126" y="55"/>
			<point x="111" y="55" type="curve" smooth="yes"/>
			<point x="93" y="55"/>
			<point x="81" y="67"/>
			<point x="77" y="82" type="curve"/>
			<point x="20" y="71" type="line"/>
			<point x="28" y="27"/>
			<point x="68" y="-4"/>
		</contour>
		<contour>
			<point x="290" y="284" type="line"/>
			<point x="403" y="552" type="line"/>
			<point x="413" y="592" type="line"/>
			<point x="424" y="552" type="line"/>
			<point x="537" y="284" type="line"/>
		</contour>
	</outline>
</glyph>
<glyph name="B" format="1">
  <advance width="645"/>
  <unicode hex="0042"/>
  <outline>
    <contour>
      <point x="464" y="-10"/>
      <point x="573" y="47"/>
      <point x="573" y="182" type="curve" smooth="yes"/>
      <point x="573" y="262"/>
      <point x="535" y="322"/>
      <point x="468" y="358" type="curve"/>
      <point x="436" y="368" type="line"/>
      <point x="459" y="375"/>
      <point x="464" y="378"/>
      <point x="466" y="379" type="curve" smooth="yes"/>
      <point x="512" y="403"/>
      <point x="542" y="452"/>
      <point x="542" y="515" type="curve" smooth="yes"/>
      <point x="542" y="622"/>
      <point x="456" y="695"/>
      <point x="340" y="695" type="curve" smooth="yes"/>
      <point x="118" y="695" type="line" smooth="yes"/>
      <point x="89" y="695"/>
      <point x="65" y="683"/>
      <point x="45" y="663" type="curve" smooth="yes"/>
      <point x="26" y="644"/>
      <point x="15" y="619"/>
      <point x="15" y="590" type="curve"/>
      <point x="71" y="590" type="line"/>
      <point x="71" y="600"/>
      <point x="76" y="616"/>
      <point x="86" y="626" type="curve" smooth="yes"/>
      <point x="95" y="635"/>
      <point x="108" y="639"/>
      <point x="139" y="639" type="curve"/>
      <point x="139" y="1" type="line"/>
      <point x="192" y="-5" type="line" smooth="yes"/>
      <point x="233" y="-9"/>
      <point x="289" y="-10"/>
      <point x="309" y="-10" type="curve" smooth="yes"/>
    </contour>
    <contour>
      <point x="293" y="45"/>
      <point x="289" y="46"/>
      <point x="200" y="50" type="curve"/>
      <point x="200" y="639" type="line"/>
      <point x="354" y="639" type="line"/>
      <point x="429" y="635"/>
      <point x="482" y="595"/>
      <point x="482" y="515" type="curve" smooth="yes"/>
      <point x="482" y="476"/>
      <point x="469" y="445"/>
      <point x="443" y="423" type="curve" smooth="yes"/>
      <point x="418" y="402"/>
      <point x="381" y="390"/>
      <point x="339" y="390" type="curve" smooth="yes"/>
      <point x="251" y="390" type="line"/>
      <point x="251" y="335" type="line"/>
      <point x="346" y="335" type="line" smooth="yes"/>
      <point x="438" y="335"/>
      <point x="514" y="281"/>
      <point x="514" y="183" type="curve" smooth="yes"/>
      <point x="514" y="81"/>
      <point x="433" y="45"/>
      <point x="313" y="45" type="curve" smooth="yes"/>
    </contour>
  </outline>
</glyph>
<glyph name="C" format="2">
	<advance width="715"/>
	<unicode hex="0043"/>
	<anchor x="378" y="713" name="top"/>
	<anchor x="378" y="-21" name="bottom"/>
	<outline>
		<contour>
			<point x="395" y="-23" type="curve"/>
			<point x="395" y="-23" type="line"/>
			<point x="503" y="-23"/>
			<point x="611" y="25"/>
			<point x="678" y="124" type="curve"/>
			<point x="632" y="156" type="line"/>
			<point x="581" y="81"/>
			<point x="493" y="34"/>
			<point x="396" y="34" type="curve"/>
			<point x="228" y="34"/>
			<point x="116" y="171"/>
			<point x="116" y="336" type="curve"/>
			<point x="116" y="506"/>
			<point x="236" y="654"/>
			<point x="402" y="654" type="curve"/>
			<point x="473" y="654"/>
			<point x="577" y="622"/>
			<point x="577" y="561" type="curve"/>
			<point x="577" y="538"/>
			<point x="563" y="522"/>
			<point x="546" y="522" type="curve"/>
			<point x="538" y="522"/>
			<point x="531" y="525"/>
			<point x="523" y="530" type="curve"/>
			<point x="488" y="486" type="line"/>
			<point x="504" y="474"/>
			<point x="524" y="466"/>
			<point x="545" y="466" type="curve"/>
			<point x="595" y="466"/>
			<point x="638" y="508"/>
			<point x="638" y="560" type="curve"/>
			<point x="638" y="661"/>
			<point x="514" y="711"/>
			<point x="401" y="711" type="curve"/>
			<point x="208" y="711"/>
			<point x="56" y="539"/>
			<point x="56" y="336" type="curve"/>
			<point x="56" y="140"/>
			<point x="198" y="-23"/>
		</contour>
	</outline>
</glyph>
<glyph name="D" format="2">
	<advance width="787"/>
	<unicode hex="0044"/>
	<anchor x="213" y="367" name="center"/>
	<anchor x="396" y="0" name="bottom"/>
	<anchor x="414" y="684" name="top"/>
	<outline>
		<contour>
			<point x="330" y="-8" type="curve"/>
			<point x="330" y="-8" type="line"/>
			<point x="595" y="-8"/>
			<point x="730" y="109"/>
			<point x="730" y="339" type="curve"/>
			<point x="730" y="540"/>
			<point x="599" y="685"/>
			<point x="413" y="689" type="curve"/>
			<point x="151" y="690" type="line"/>
			<point x="109" y="689"/>
			<point x="84" y="680"/>
			<point x="64" y="662" type="curve"/>
			<point x="45" y="643"/>
			<point x="35" y="616"/>
			<point x="34" y="587" type="curve"/>
			<point x="89" y="586" type="line"/>
			<point x="89" y="599"/>
			<point x="96" y="614"/>
			<point x="104" y="622" type="curve"/>
			<point x="114" y="632"/>
			<point x="124" y="634"/>
			<point x="150" y="634" type="curve"/>
			<point x="150" y="0" type="line"/>
			<point x="197" y="-5" type="line" smooth="yes"/>
			<point x="211" y="-6"/>
			<point x="288" y="-8"/>
		</contour>
		<contour>
			<point x="332" y="48" type="curve"/>
			<point x="332" y="48" type="line"/>
			<point x="297" y="48"/>
			<point x="235" y="52"/>
			<point x="210" y="53" type="curve"/>
			<point x="210" y="633" type="line"/>
			<point x="403" y="633" type="line"/>
			<point x="563" y="633"/>
			<point x="670" y="515"/>
			<point x="670" y="338" type="curve"/>
			<point x="670" y="149"/>
			<point x="552" y="48"/>
		</contour>
	</outline>
</glyph>
<glyph name="E" format="1">
  <advance width="648"/>
  <unicode hex="0045"/>
  <outline>
    <contour>
      <point x="578" y="0" type="line"/>
      <point x="578" y="57" type="line"/>
      <point x="191" y="57" type="line"/>
      <point x="191" y="333" type="line"/>
      <point x="458" y="333" type="line"/>
      <point x="458" y="390" type="line"/>
      <point x="191" y="390" type="line"/>
      <point x="191" y="628" type="line"/>
      <point x="578" y="628" type="line"/>
      <point x="578" y="684" type="line"/>
      <point x="117" y="684" type="line" smooth="yes"/>
      <point x="87" y="684"/>
      <point x="63" y="671"/>
      <point x="44" y="652" type="curve" smooth="yes"/>
      <point x="25" y="633"/>
      <point x="14" y="608"/>
      <point x="14" y="579" type="curve"/>
      <point x="70" y="579" type="line"/>
      <point x="70" y="592"/>
      <point x="76" y="606"/>
      <point x="84" y="614" type="curve" smooth="yes"/>
      <point x="94" y="624"/>
      <point x="104" y="628"/>
      <point x="130" y="628" type="curve"/>
      <point x="130" y="0" type="line"/>
    </contour>
    <contour>
      <point x="578" y="1" type="move" name="ogonek"/>
    </contour>
    <contour>
      <point x="360" y="0" type="move" name="bottom"/>
    </contour>
    <contour>
      <point x="349" y="684" type="move" name="top"/>
    </contour>
  </outline>
</glyph>
<glyph name="F" format="1">
  <advance width="608"/>
  <unicode hex="0046"/>
  <outline>
    <contour>
      <point x="191" y="-1" type="line"/>
      <point x="191" y="332" type="line"/>
      <point x="458" y="332" type="line"/>
      <point x="458" y="389" type="line"/>
      <point x="191" y="389" type="line"/>
      <point x="191" y="627" type="line"/>
      <point x="578" y="627" type="line"/>
      <point x="578" y="683" type="line"/>
      <point x="117" y="683" type="line" smooth="yes"/>
      <point x="88" y="683"/>
      <point x="64" y="671"/>
      <point x="44" y="651" type="curve" smooth="yes"/>
      <point x="25" y="632"/>
      <point x="14" y="607"/>
      <point x="14" y="578" type="curve"/>
      <point x="70" y="578" type="line"/>
      <point x="70" y="591"/>
      <point x="76" y="605"/>
      <point x="84" y="613" type="curve" smooth="yes"/>
      <point x="94" y="623"/>
      <point x="104" y="627"/>
      <point x="130" y="627" type="curve"/>
      <point x="130" y="-1" type="line"/>
    </contour>
  </outline>
</glyph>
<glyph name="G" format="2">
	<advance width="728"/>
	<unicode hex="0047"/>
	<anchor x="391" y="699" name="top"/>
	<anchor x="387" y="-28" name="bottom"/>
	<outline>
		<contour>
			<point x="387" y="-21" type="curve"/>
			<point x="387" y="-21" type="line"/>
			<point x="534" y="-21"/>
			<point x="675" y="91"/>
			<point x="675" y="261" type="curve"/>
			<point x="675" y="303" type="line"/>
			<point x="618" y="303" type="line"/>
			<point x="618" y="254" type="line"/>
			<point x="618" y="131"/>
			<point x="513" y="38"/>
			<point x="387" y="35" type="curve"/>
			<point x="236" y="32"/>
			<point x="116" y="172"/>
			<point x="116" y="328" type="curve"/>
			<point x="116" y="497"/>
			<point x="236" y="641"/>
			<point x="396" y="643" type="curve"/>
			<point x="458" y="644"/>
			<point x="572" y="622"/>
			<point x="572" y="555" type="curve"/>
			<point x="572" y="532"/>
			<point x="558" y="513"/>
			<point x="539" y="513" type="curve"/>
			<point x="533" y="513"/>
			<point x="521" y="516"/>
			<point x="516" y="521" type="curve"/>
			<point x="488" y="480" type="line"/>
			<point x="500" y="468"/>
			<point x="519" y="460"/>
			<point x="538" y="460" type="curve"/>
			<point x="588" y="460"/>
			<point x="626" y="499"/>
			<point x="626" y="555" type="curve"/>
			<point x="626" y="664"/>
			<point x="480" y="699"/>
			<point x="396" y="699" type="curve"/>
			<point x="199" y="699"/>
			<point x="56" y="529"/>
			<point x="56" y="329" type="curve"/>
			<point x="56" y="139"/>
			<point x="194" y="-21"/>
		</contour>
		<contour>
			<point x="375" y="342" type="line"/>
			<point x="375" y="286" type="line"/>
			<point x="675" y="286" type="line"/>
			<point x="675" y="342" type="line"/>
		</contour>
	</outline>
</glyph>
<glyph name="H" format="1">
  <advance width="700"/>
  <unicode hex="0048"/>
  <outline>
    <contour>
      <point x="185" y="0" type="line"/>
      <point x="185" y="327" type="line"/>
      <point x="554" y="327" type="line"/>
      <point x="554" y="0" type="line"/>
      <point x="615" y="0" type="line"/>
      <point x="615" y="684" type="line"/>
      <point x="554" y="684" type="line"/>
      <point x="554" y="384" type="line"/>
      <point x="185" y="384" type="line"/>
      <point x="185" y="596" type="line" smooth="yes"/>
      <point x="185" y="653"/>
      <point x="139" y="689"/>
      <point x="91" y="689" type="curve" smooth="yes"/>
      <point x="59" y="689"/>
      <point x="32" y="674"/>
      <point x="14" y="648" type="curve"/>
      <point x="66" y="613" type="line"/>
      <point x="73" y="624"/>
      <point x="83" y="627"/>
      <point x="92" y="627" type="curve" smooth="yes"/>
      <point x="110" y="627"/>
      <point x="123" y="614"/>
      <point x="123" y="596" type="curve" smooth="yes"/>
      <point x="123" y="0" type="line"/>
    </contour>
    <contour>
      <point x="380" y="355" type="move" name="center"/>
    </contour>
    <contour>
      <point x="378" y="684" type="move" name="top"/>
    </contour>
  </outline>
</glyph>
<glyph name="I" format="2">
	<advance width="233"/>
	<unicode hex="0049"/>
	<anchor x="147" y="0" name="ogonek"/>
	<anchor x="117" y="-1" name="bottom"/>
	<anchor x="114" y="684" name="top"/>
	<outline>
		<contour>
			<point x="86" y="0" type="line"/>
			<point x="147" y="0" type="line"/>
			<point x="147" y="684" type="line"/>
			<point x="86" y="684" type="line"/>
		</contour>
	</outline>
</glyph>
<glyph name="J" format="1">
  <advance width="469"/>
  <unicode hex="004A"/>
  <outline>
    <contour>
      <point x="341" y="-4"/>
      <point x="394" y="92"/>
      <point x="394" y="191" type="curve" smooth="yes"/>
      <point x="394" y="687" type="line"/>
      <point x="338" y="687" type="line"/>
      <point x="338" y="685"/>
      <point x="331" y="679"/>
      <point x="320" y="672" type="curve" smooth="yes"/>
      <point x="306" y="664"/>
      <point x="296" y="660"/>
      <point x="284" y="660" type="curve" smooth="yes"/>
      <point x="270" y="660"/>
      <point x="254" y="665"/>
      <point x="231" y="673" type="curve" smooth="yes"/>
      <point x="166" y="694"/>
      <point x="157" y="696"/>
      <point x="141" y="696" type="curve" smooth="yes"/>
      <point x="115" y="696"/>
      <point x="96" y="691"/>
      <point x="37" y="667" type="curve"/>
      <point x="62" y="616" type="line"/>
      <point x="87" y="624"/>
      <point x="115" y="640"/>
      <point x="141" y="640" type="curve" smooth="yes"/>
      <point x="173" y="640"/>
      <point x="199" y="619"/>
      <point x="236" y="610" type="curve" smooth="yes"/>
      <point x="247" y="607"/>
      <point x="264" y="604"/>
      <point x="282" y="604" type="curve" smooth="yes"/>
      <point x="301" y="604"/>
      <point x="321" y="607"/>
      <point x="337" y="617" type="curve"/>
      <point x="337" y="194" type="line" smooth="yes"/>
      <point x="337" y="130"/>
      <point x="311" y="53"/>
      <point x="214" y="53" type="curve" smooth="yes"/>
      <point x="137" y="53"/>
      <point x="92" y="102"/>
      <point x="92" y="174" type="curve"/>
      <point x="35" y="179" type="line"/>
      <point x="37" y="90"/>
      <point x="83" y="-4"/>
      <point x="211" y="-4" type="curve" smooth="yes"/>
    </contour>
    <contour>
      <point x="231" y="682" type="move" name="top"/>
    </contour>
  </outline>
</glyph>
<glyph name="K" format="2">
	<advance width="694"/>
	<unicode hex="004B"/>
	<anchor x="331" y="684" name="top"/>
	<anchor x="331" y="0" name="bottom"/>
	<outline>
		<contour>
			<point x="136" y="568" type="line"/>
			<point x="136" y="1" type="line"/>
			<point x="198" y="1" type="line"/>
			<point x="198" y="314" type="line"/>
			<point x="252" y="313"/>
			<point x="269" y="313"/>
			<point x="308" y="325" type="curve"/>
			<point x="516" y="31" type="line" smooth="yes"/>
			<point x="533" y="7"/>
			<point x="560" y="-8"/>
			<point x="588" y="-8" type="curve"/>
			<point x="616" y="-8"/>
			<point x="646" y="5"/>
			<point x="665" y="30" type="curve"/>
			<point x="619" y="62" type="line"/>
			<point x="613" y="54"/>
			<point x="602" y="48"/>
			<point x="590" y="48" type="curve"/>
			<point x="579" y="48"/>
			<point x="569" y="53"/>
			<point x="562" y="63" type="curve"/>
			<point x="361" y="347" type="line"/>
			<point x="379" y="362"/>
			<point x="391" y="374"/>
			<point x="416" y="409" type="curve"/>
			<point x="432" y="431"/>
			<point x="452" y="466"/>
			<point x="468" y="494" type="curve"/>
			<point x="489" y="531"/>
			<point x="513" y="576"/>
			<point x="570" y="684" type="curve"/>
			<point x="501" y="684" type="line"/>
			<point x="468" y="614"/>
			<point x="446" y="568"/>
			<point x="425" y="530" type="curve"/>
			<point x="405" y="495"/>
			<point x="377" y="450"/>
			<point x="356" y="423" type="curve"/>
			<point x="345" y="409"/>
			<point x="326" y="395"/>
			<point x="306" y="386" type="curve"/>
			<point x="290" y="379"/>
			<point x="271" y="372"/>
			<point x="240" y="372" type="curve"/>
			<point x="196" y="372" type="line"/>
			<point x="196" y="568" type="line"/>
			<point x="196" y="594" type="line"/>
			<point x="196" y="654"/>
			<point x="158" y="697"/>
			<point x="99" y="697" type="curve"/>
			<point x="56" y="697"/>
			<point x="27" y="670"/>
			<point x="14" y="646" type="curve"/>
			<point x="59" y="614" type="line"/>
			<point x="65" y="624"/>
			<point x="78" y="640"/>
			<point x="100" y="640" type="curve"/>
			<point x="123" y="640"/>
			<point x="136" y="620"/>
			<point x="136" y="594" type="curve"/>
			<point x="136" y="568" type="line"/>
		</contour>
	</outline>
</glyph>
<glyph name="L" format="2">
	<advance width="498"/>
	<unicode hex="004C"/>
	<anchor x="288" y="684" name="top"/>
	<anchor x="288" y="0" name="bottom"/>
	<outline>
		<contour>
			<point x="86" y="0" type="line"/>
			<point x="474" y="0" type="line"/>
			<point x="474" y="57" type="line"/>
			<point x="147" y="57" type="line"/>
			<point x="147" y="684" type="line"/>
			<point x="86" y="684" type="line"/>
		</contour>
	</outline>
</glyph>
<glyph name="M" format="2">
	<advance width="1018"/>
	<unicode hex="004D"/>
	<anchor x="551" y="690" name="top"/>
	<anchor x="552" y="0" name="bottom"/>
	<outline>
		<contour>
			<point x="113" y="-17" type="curve"/>
			<point x="113" y="-17" type="line"/>
			<point x="156" y="-17"/>
			<point x="190" y="15"/>
			<point x="198" y="54" type="curve"/>
			<point x="303" y="561" type="line"/>
			<point x="309" y="601" type="line"/>
			<point x="320" y="561" type="line"/>
			<point x="522" y="0" type="line"/>
			<point x="581" y="0" type="line"/>
			<point x="784" y="562" type="line"/>
			<point x="795" y="601" type="line"/>
			<point x="801" y="563" type="line"/>
			<point x="914" y="0" type="line"/>
			<point x="974" y="0" type="line"/>
			<point x="834" y="684" type="line"/>
			<point x="774" y="684" type="line"/>
			<point x="563" y="113" type="line"/>
			<point x="552" y="74" type="line"/>
			<point x="541" y="113" type="line"/>
			<point x="332" y="684" type="line"/>
			<point x="273" y="684" type="line"/>
			<point x="142" y="61" type="line"/>
			<point x="137" y="46"/>
			<point x="127" y="39"/>
			<point x="113" y="39" type="curve"/>
			<point x="97" y="39"/>
			<point x="89" y="47"/>
			<point x="82" y="59" type="curve"/>
			<point x="30" y="38" type="line"/>
			<point x="43" y="7"/>
			<point x="75" y="-17"/>
		</contour>
	</outline>
</glyph>
<glyph name="N" format="2">
	<advance width="781"/>
	<unicode hex="004E"/>
	<anchor x="682" y="177" name="eng"/>
	<anchor x="422" y="0" name="bottom"/>
	<anchor x="421" y="684" name="top"/>
	<outline>
		<contour>
			<point x="108" y="-13" type="curve"/>
			<point x="108" y="-13" type="line"/>
			<point x="156" y="-13"/>
			<point x="202" y="23"/>
			<point x="202" y="79" type="curve"/>
			<point x="198" y="584" type="line"/>
			<point x="210" y="563" type="line"/>
			<point x="661" y="0" type="line"/>
			<point x="682" y="0" type="line"/>
			<point x="682" y="683" type="line"/>
			<point x="620" y="683" type="line"/>
			<point x="623" y="129" type="line"/>
			<point x="609" y="151" type="line"/>
			<point x="289" y="559" type="line"/>
			<point x="178" y="684" type="line"/>
			<point x="140" y="684" type="line"/>
			<point x="140" y="80" type="line" smooth="yes"/>
			<point x="140" y="62"/>
			<point x="125" y="44"/>
			<point x="107" y="44" type="curve"/>
			<point x="98" y="44"/>
			<point x="83" y="49"/>
			<point x="76" y="60" type="curve"/>
			<point x="29" y="28" type="line"/>
			<point x="47" y="2"/>
			<point x="76" y="-13"/>
		</contour>
	</outline>
</glyph>
<glyph name="O" format="2">
	<advance width="799"/>
	<unicode hex="004F"/>
	<anchor x="402" y="-27" name="bottom"/>
	<anchor x="652" y="83" name="ogonek"/>
	<anchor x="403" y="342" name="center"/>
	<anchor x="700" y="530" name="horn"/>
	<anchor x="398" y="684" name="top"/>
	<anchor x="799" y="684" name="topright"/>
	<anchor x="30" y="684" name="topleft"/>
	<outline>
		<contour>
			<point x="403" y="-27" type="curve" smooth="yes"/>
			<point x="601" y="-27"/>
			<point x="756" y="134"/>
			<point x="756" y="330" type="curve" smooth="yes"/>
			<point x="756" y="349" type="line" smooth="yes"/>
			<point x="756" y="542"/>
			<point x="598" y="706"/>
			<point x="399" y="706" type="curve" smooth="yes"/>
			<point x="198" y="706"/>
			<point x="43" y="540"/>
			<point x="43" y="349" type="curve" smooth="yes"/>
			<point x="43" y="330" type="line" smooth="yes"/>
			<point x="43" y="136"/>
			<point x="204" y="-27"/>
		</contour>
		<contour>
			<point x="400" y="28" type="curve" smooth="yes"/>
			<point x="240" y="28"/>
			<point x="106" y="162"/>
			<point x="106" y="330" type="curve" smooth="yes"/>
			<point x="106" y="349" type="line" smooth="yes"/>
			<point x="106" y="509"/>
			<point x="233" y="651"/>
			<point x="398" y="651" type="curve" smooth="yes"/>
			<point x="556" y="651"/>
			<point x="693" y="519"/>
			<point x="693" y="349" type="curve" smooth="yes"/>
			<point x="693" y="330" type="line" smooth="yes"/>
			<point x="693" y="166"/>
			<point x="563" y="28"/>
		</contour>
	</outline>
</glyph>
<glyph name="P" format="2">
	<advance width="607"/>
	<unicode hex="0050"/>
	<anchor x="293" y="684" name="top"/>
	<anchor x="293" y="0" name="bottom"/>
	<outline>
		<contour>
			<point x="150" y="628" type="curve"/>
			<point x="150" y="-1" type="line"/>
			<point x="210" y="-1" type="line"/>
			<point x="210" y="628" type="line"/>
			<point x="352" y="628" type="line" smooth="yes"/>
			<point x="439" y="628"/>
			<point x="498" y="579"/>
			<point x="498" y="471" type="curve"/>
			<point x="498" y="355"/>
			<point x="431" y="313"/>
			<point x="332" y="313" type="curve"/>
			<point x="317" y="313"/>
			<point x="294" y="314"/>
			<point x="263" y="316" type="curve"/>
			<point x="263" y="262" type="line"/>
			<point x="292" y="259"/>
			<point x="317" y="257"/>
			<point x="337" y="257" type="curve"/>
			<point x="454" y="257"/>
			<point x="558" y="323"/>
			<point x="558" y="472" type="curve"/>
			<point x="558" y="593"/>
			<point x="490" y="684"/>
			<point x="366" y="684" type="curve"/>
			<point x="151" y="684" type="line"/>
			<point x="109" y="683"/>
			<point x="84" y="674"/>
			<point x="64" y="656" type="curve"/>
			<point x="45" y="637"/>
			<point x="35" y="610"/>
			<point x="34" y="581" type="curve"/>
			<point x="89" y="580" type="line"/>
			<point x="89" y="593"/>
			<point x="96" y="608"/>
			<point x="104" y="616" type="curve"/>
			<point x="114" y="626"/>
			<point x="124" y="628"/>
		</contour>
	</outline>
</glyph>
<glyph name="Q" format="2">
	<advance width="779"/>
	<unicode hex="0051"/>
	<anchor x="390" y="684" name="top"/>
	<anchor x="390" y="0" name="bottom"/>
	<outline>
		<contour>
			<point x="187" y="-166" type="line"/>
			<point x="230" y="-199" type="line"/>
			<point x="272" y="-138" type="line"/>
			<point x="371" y="-171" type="line" smooth="yes"/>
			<point x="412" y="-185"/>
			<point x="450" y="-193"/>
			<point x="501" y="-193" type="curve"/>
			<point x="537" y="-193"/>
			<point x="562" y="-189"/>
			<point x="616" y="-150" type="curve"/>
			<point x="591" y="-106" type="line"/>
			<point x="549" y="-135"/>
			<point x="525" y="-141"/>
			<point x="494" y="-141" type="curve"/>
			<point x="463" y="-141"/>
			<point x="421" y="-134"/>
			<point x="383" y="-121" type="curve"/>
			<point x="303" y="-94" type="line"/>
			<point x="362" y="-9" type="line"/>
			<point x="390" y="-9" type="line" smooth="yes"/>
			<point x="589" y="-9"/>
			<point x="722" y="138"/>
			<point x="722" y="341" type="curve"/>
			<point x="722" y="542"/>
			<point x="592" y="694"/>
			<point x="389" y="694" type="curve"/>
			<point x="189" y="694"/>
			<point x="57" y="545"/>
			<point x="57" y="342" type="curve"/>
			<point x="57" y="179"/>
			<point x="140" y="39"/>
			<point x="305" y="0" type="curve"/>
		</contour>
		<contour>
			<point x="389" y="45" type="curve"/>
			<point x="389" y="45" type="line"/>
			<point x="217" y="45"/>
			<point x="117" y="174"/>
			<point x="117" y="343" type="curve"/>
			<point x="117" y="514"/>
			<point x="220" y="639"/>
			<point x="390" y="639" type="curve"/>
			<point x="560" y="639"/>
			<point x="662" y="513"/>
			<point x="662" y="343" type="curve"/>
			<point x="662" y="173"/>
			<point x="561" y="45"/>
		</contour>
	</outline>
</glyph>
<glyph name="R" format="2">
	<advance width="705"/>
	<unicode hex="0052"/>
	<anchor x="310" y="684" name="top"/>
	<anchor x="333" y="0" name="bottom"/>
	<outline>
		<contour>
			<point x="150" y="628" type="curve"/>
			<point x="150" y="628" type="line"/>
			<point x="150" y="0" type="line"/>
			<point x="210" y="0" type="line"/>
			<point x="210" y="628" type="line"/>
			<point x="370" y="628" type="line" smooth="yes"/>
			<point x="448" y="628"/>
			<point x="502" y="566"/>
			<point x="502" y="477" type="curve"/>
			<point x="502" y="388"/>
			<point x="447" y="332"/>
			<point x="359" y="332" type="curve"/>
			<point x="272" y="332" type="line"/>
			<point x="272" y="276" type="line"/>
			<point x="349" y="269"/>
			<point x="378" y="232"/>
			<point x="407" y="193" type="curve"/>
			<point x="526" y="29" type="line" smooth="yes"/>
			<point x="545" y="3"/>
			<point x="570" y="-10"/>
			<point x="600" y="-10" type="curve"/>
			<point x="631" y="-10"/>
			<point x="660" y="5"/>
			<point x="676" y="29" type="curve"/>
			<point x="629" y="63" type="line"/>
			<point x="622" y="52"/>
			<point x="611" y="45"/>
			<point x="599" y="45" type="curve"/>
			<point x="589" y="45"/>
			<point x="581" y="50"/>
			<point x="573" y="61" type="curve"/>
			<point x="428" y="257" type="line" smooth="yes"/>
			<point x="420" y="268"/>
			<point x="401" y="282"/>
			<point x="390" y="285" type="curve"/>
			<point x="386" y="286"/>
			<point x="381" y="288"/>
			<point x="377" y="289" type="curve"/>
			<point x="385" y="289"/>
			<point x="394" y="290"/>
			<point x="402" y="290" type="curve"/>
			<point x="495" y="290"/>
			<point x="562" y="373"/>
			<point x="562" y="477" type="curve"/>
			<point x="562" y="561"/>
			<point x="520" y="635"/>
			<point x="454" y="667" type="curve"/>
			<point x="431" y="678"/>
			<point x="405" y="684"/>
			<point x="374" y="684" type="curve"/>
			<point x="151" y="684" type="line"/>
			<point x="109" y="683"/>
			<point x="84" y="674"/>
			<point x="64" y="656" type="curve"/>
			<point x="45" y="637"/>
			<point x="35" y="610"/>
			<point x="34" y="581" type="curve"/>
			<point x="89" y="580" type="line"/>
			<point x="89" y="593"/>
			<point x="96" y="608"/>
			<point x="104" y="616" type="curve"/>
			<point x="114" y="626"/>
			<point x="124" y="628"/>
		</contour>
	</outline>
</glyph>
<glyph name="S" format="2">
	<advance width="523"/>
	<unicode hex="0053"/>
	<anchor x="273" y="706" name="top"/>
	<anchor x="268" y="-25" name="bottom"/>
	<outline>
		<contour>
			<point x="268" y="-25" type="curve" smooth="yes"/>
			<point x="394" y="-25"/>
			<point x="488" y="76"/>
			<point x="488" y="191" type="curve" smooth="yes"/>
			<point x="488" y="263"/>
			<point x="451" y="322"/>
			<point x="362" y="369" type="curve" smooth="yes"/>
			<point x="286" y="410"/>
			<point x="146" y="451"/>
			<point x="146" y="544" type="curve" smooth="yes"/>
			<point x="146" y="603"/>
			<point x="203" y="657"/>
			<point x="273" y="657" type="curve" smooth="yes"/>
			<point x="318" y="657"/>
			<point x="373" y="631"/>
			<point x="373" y="589" type="curve" smooth="yes"/>
			<point x="373" y="567"/>
			<point x="358" y="547"/>
			<point x="336" y="553" type="curve"/>
			<point x="332" y="501" type="line"/>
			<point x="388" y="495"/>
			<point x="429" y="534"/>
			<point x="429" y="588" type="curve" smooth="yes"/>
			<point x="429" y="636"/>
			<point x="397" y="678"/>
			<point x="335" y="697" type="curve" smooth="yes"/>
			<point x="316" y="703"/>
			<point x="294" y="706"/>
			<point x="273" y="706" type="curve" smooth="yes"/>
			<point x="174" y="706"/>
			<point x="91" y="639"/>
			<point x="91" y="542" type="curve" smooth="yes"/>
			<point x="91" y="404"/>
			<point x="239" y="375"/>
			<point x="333" y="326" type="curve" smooth="yes"/>
			<point x="389" y="297"/>
			<point x="433" y="259"/>
			<point x="433" y="190" type="curve" smooth="yes"/>
			<point x="433" y="104"/>
			<point x="366" y="25"/>
			<point x="267" y="25" type="curve" smooth="yes"/>
			<point x="187" y="25"/>
			<point x="111" y="79"/>
			<point x="74" y="164" type="curve"/>
			<point x="23" y="144" type="line"/>
			<point x="61" y="44"/>
			<point x="164" y="-25"/>
		</contour>
	</outline>
</glyph>
<glyph name="T" format="2">
	<advance width="598"/>
	<unicode hex="0054"/>
	<anchor x="310" y="0" name="center"/>
	<anchor x="305" y="0" name="bottom"/>
	<anchor x="310" y="684" name="top"/>
	<outline>
		<contour>
			<point x="274" y="0" type="line"/>
			<point x="335" y="0" type="line"/>
			<point x="335" y="627" type="line"/>
			<point x="574" y="627" type="line"/>
			<point x="574" y="684" type="line"/>
			<point x="110" y="684" type="line" smooth="yes"/>
			<point x="86" y="684"/>
			<point x="65" y="674"/>
			<point x="48" y="657" type="curve" smooth="yes"/>
			<point x="31" y="640"/>
			<point x="22" y="618"/>
			<point x="22" y="594" type="curve"/>
			<point x="79" y="594" type="line"/>
			<point x="79" y="610"/>
			<point x="91" y="627"/>
			<point x="113" y="627" type="curve" smooth="yes"/>
			<point x="274" y="627" type="line"/>
		</contour>
	</outline>
</glyph>
<glyph name="U" format="2">
	<advance width="741"/>
	<unicode hex="0055"/>
	<anchor x="571" y="43" name="ogonek"/>
	<anchor x="403" y="684" name="top"/>
	<anchor x="670" y="535" name="horn"/>
	<anchor x="405" y="-10" name="bottom"/>
	<outline>
		<contour>
			<point x="405" y="-9" type="curve" smooth="yes"/>
			<point x="591" y="-9"/>
			<point x="671" y="133"/>
			<point x="671" y="268" type="curve" smooth="yes"/>
			<point x="671" y="685" type="line"/>
			<point x="610" y="685" type="line"/>
			<point x="610" y="268" type="line" smooth="yes"/>
			<point x="610" y="162"/>
			<point x="553" y="46"/>
			<point x="404" y="46" type="curve" smooth="yes"/>
			<point x="266" y="46"/>
			<point x="197" y="146"/>
			<point x="197" y="268" type="curve" smooth="yes"/>
			<point x="197" y="595" type="line" smooth="yes"/>
			<point x="197" y="659"/>
			<point x="160" y="693"/>
			<point x="100" y="693" type="curve" smooth="yes"/>
			<point x="69" y="693"/>
			<point x="36" y="676"/>
			<point x="18" y="650" type="curve"/>
			<point x="68" y="616" type="line"/>
			<point x="75" y="627"/>
			<point x="88" y="633"/>
			<point x="102" y="633" type="curve" smooth="yes"/>
			<point x="116" y="633"/>
			<point x="135" y="627"/>
			<point x="136" y="595" type="curve" smooth="yes"/>
			<point x="136" y="268" type="line" smooth="yes"/>
			<point x="136" y="119"/>
			<point x="229" y="-9"/>
		</contour>
	</outline>
</glyph>
<glyph name="V" format="2">
	<advance width="669"/>
	<unicode hex="0056"/>
	<anchor x="367" y="684" name="top"/>
	<anchor x="367" y="0" name="bottom"/>
	<outline>
		<contour>
			<point x="121" y="610" type="line"/>
			<point x="338" y="0" type="line"/>
			<point x="396" y="0" type="line"/>
			<point x="633" y="685" type="line"/>
			<point x="573" y="685" type="line"/>
			<point x="376" y="123" type="line"/>
			<point x="367" y="84" type="line"/>
			<point x="358" y="122" type="line"/>
			<point x="176" y="629" type="line"/>
			<point x="157" y="683"/>
			<point x="109" y="705"/>
			<point x="62" y="687" type="curve"/>
			<point x="39" y="679"/>
			<point x="25" y="665"/>
			<point x="19" y="653" type="curve"/>
			<point x="63" y="622" type="line"/>
			<point x="65" y="627"/>
			<point x="72" y="632"/>
			<point x="79" y="634" type="curve"/>
			<point x="97" y="641"/>
			<point x="113" y="630"/>
			<point x="121" y="610" type="curve"/>
		</contour>
	</outline>
</glyph>
<glyph name="W" format="1">
  <advance width="1103"/>
  <unicode hex="0057"/>
  <outline>
    <contour>
      <point x="399" y="0" type="line"/>
      <point x="591" y="591" type="line"/>
      <point x="784" y="0" type="line"/>
      <point x="843" y="0" type="line"/>
      <point x="1066" y="685" type="line"/>
      <point x="1006" y="685" type="line"/>
      <point x="818" y="100" type="line"/>
      <point x="816" y="86" type="line"/>
      <point x="815" y="83"/>
      <point x="815" y="80"/>
      <point x="815" y="76" type="curve" smooth="yes"/>
      <point x="815" y="72" type="line"/>
      <point x="809" y="100" type="line"/>
      <point x="621" y="685" type="line"/>
      <point x="562" y="685" type="line"/>
      <point x="374" y="100" type="line"/>
      <point x="369" y="79" type="line"/>
      <point x="367" y="89" type="line"/>
      <point x="365" y="100" type="line"/>
      <point x="194" y="631" type="line" smooth="yes"/>
      <point x="183" y="668"/>
      <point x="148" y="694"/>
      <point x="108" y="694" type="curve" smooth="yes"/>
      <point x="71" y="694"/>
      <point x="32" y="671"/>
      <point x="20" y="628" type="curve"/>
      <point x="75" y="612" type="line"/>
      <point x="81" y="629"/>
      <point x="94" y="637"/>
      <point x="107" y="637" type="curve" smooth="yes"/>
      <point x="120" y="637"/>
      <point x="133" y="629"/>
      <point x="139" y="613" type="curve" smooth="yes"/>
      <point x="340" y="0" type="line"/>
    </contour>
    <contour>
      <point x="592" y="684" type="move" name="top"/>
    </contour>
  </outline>
</glyph>
<glyph name="X" format="1">
  <advance width="633"/>
  <unicode hex="0058"/>
  <outline>
    <contour>
      <point x="563" y="-7"/>
      <point x="608" y="24"/>
      <point x="611" y="80" type="curve"/>
      <point x="553" y="83" type="line"/>
      <point x="550" y="65"/>
      <point x="538" y="51"/>
      <point x="519" y="51" type="curve" smooth="yes"/>
      <point x="507" y="51"/>
      <point x="498" y="57"/>
      <point x="493" y="65" type="curve" smooth="yes"/>
      <point x="323" y="351" type="line"/>
      <point x="533" y="684" type="line"/>
      <point x="462" y="684" type="line"/>
      <point x="281" y="395" type="line"/>
      <point x="99" y="684" type="line"/>
      <point x="30" y="684" type="line"/>
      <point x="241" y="351" type="line"/>
      <point x="32" y="0" type="line"/>
      <point x="103" y="0" type="line"/>
      <point x="284" y="306" type="line"/>
      <point x="424" y="65" type="line" smooth="yes"/>
      <point x="449" y="20"/>
      <point x="471" y="-7"/>
      <point x="515" y="-7" type="curve" smooth="yes"/>
    </contour>
  </outline>
</glyph>
<glyph name="Y" format="1">
  <advance width="632"/>
  <unicode hex="0059"/>
  <outline>
    <contour>
      <point x="374" y="0" type="line"/>
      <point x="372" y="299" type="line"/>
      <point x="588" y="685" type="line"/>
      <point x="518" y="685" type="line"/>
      <point x="341" y="366" type="line"/>
      <point x="187" y="646" type="line"/>
      <point x="166" y="681"/>
      <point x="136" y="694"/>
      <point x="108" y="694" type="curve" smooth="yes"/>
      <point x="65" y="694"/>
      <point x="19" y="665"/>
      <point x="14" y="611" type="curve"/>
      <point x="73" y="605" type="line"/>
      <point x="74" y="624"/>
      <point x="89" y="635"/>
      <point x="105" y="635" type="curve" smooth="yes"/>
      <point x="116" y="635"/>
      <point x="127" y="630"/>
      <point x="135" y="618" type="curve"/>
      <point x="311" y="297" type="line"/>
      <point x="308" y="0" type="line"/>
    </contour>
    <contour>
      <point x="337" y="684" type="move" name="top"/>
    </contour>
    <contour>
      <point x="338" y="1" type="move" name="bottom"/>
    </contour>
  </outline>
</glyph>
<glyph name="Z" format="1">
  <advance width="589"/>
  <unicode hex="005A"/>
  <outline>
    <contour>
      <point x="108" y="46" type="line"/>
      <point x="206" y="28"/>
      <point x="277" y="-14"/>
      <point x="365" y="-14" type="curve" smooth="yes"/>
      <point x="422" y="-14"/>
      <point x="469" y="4"/>
      <point x="522" y="54" type="curve"/>
      <point x="484" y="91" type="line"/>
      <point x="450" y="59"/>
      <point x="412" y="39"/>
      <point x="365" y="39" type="curve" smooth="yes"/>
      <point x="306" y="39"/>
      <point x="233" y="71"/>
      <point x="169" y="84" type="curve" smooth="yes"/>
      <point x="135" y="90" type="line"/>
      <point x="488" y="681" type="line"/>
      <point x="82" y="681" type="line"/>
      <point x="82" y="628" type="line"/>
      <point x="395" y="628" type="line"/>
      <point x="27" y="12" type="line"/>
      <point x="72" y="-15" type="line"/>
    </contour>
    <contour>
      <point x="295" y="683" type="move" name="top"/>
    </contour>
  </outline>
</glyph>
<glyph name="bracketleft" format="2">
	<advance width="348"/>
	<unicode hex="005B"/>
	<outline>
		<contour>
			<point x="83" y="-174" type="line"/>
			<point x="321" y="-174" type="line"/>
			<point x="321" y="-117" type="line"/>
			<point x="144" y="-117" type="line"/>
			<point x="144" y="693" type="line"/>
			<point x="321" y="693" type="line"/>
			<point x="321" y="750" type="line"/>
			<point x="83" y="750" type="line"/>
		</contour>
	</outline>
</glyph>
<glyph name="backslash" format="2">
	<advance width="300"/>
	<unicode hex="005C"/>
	<outline>
		<contour>
			<point x="227" y="-70" type="line"/>
			<point x="291" y="-70" type="line"/>
			<point x="72" y="750" type="line"/>
			<point x="9" y="750" type="line"/>
		</contour>
	</outline>
</glyph>
<glyph name="bracketright" format="2">
	<advance width="348"/>
	<unicode hex="005D"/>
	<outline>
		<contour>
			<point x="27" y="-174" type="line"/>
			<point x="265" y="-174" type="line"/>
			<point x="265" y="750" type="line"/>
			<point x="27" y="750" type="line"/>
			<point x="27" y="693" type="line"/>
			<point x="204" y="693" type="line"/>
			<point x="204" y="-117" type="line"/>
			<point x="27" y="-117" type="line"/>
		</contour>
	</outline>
</glyph>
<glyph name="asciicircum" format="1">
  <advance width="454"/>
  <unicode hex="005E"/>
  <outline>
    <contour>
      <point x="397" y="363" type="line"/>
      <point x="222" y="615" type="line"/>
      <point x="202" y="615" type="line"/>
      <point x="27" y="363" type="line"/>
      <point x="75" y="330" type="line"/>
      <point x="210" y="524" type="line"/>
      <point x="347" y="328" type="line"/>
    </contour>
  </outline>
</glyph>
<glyph name="underscore" format="2">
	<advance width="594"/>
	<unicode hex="005F"/>
	<outline>
		<contour>
			<point x="77" y="-78" type="line"/>
			<point x="77" y="-134" type="line"/>
			<point x="517" y="-134" type="line"/>
			<point x="517" y="-78" type="line"/>
		</contour>
	</outline>
</glyph>
<glyph name="grave" format="1">
  <advance width="260"/>
  <unicode hex="0060"/>
  <outline>
    <contour>
      <point x="211" y="601" type="line"/>
      <point x="53" y="726" type="line"/>
      <point x="17" y="677" type="line"/>
      <point x="189" y="567" type="line"/>
    </contour>
    <contour>
      <point x="178" y="500" type="move" name="_top"/>
    </contour>
  </outline>
</glyph>
<glyph name="a" format="2">
	<advance width="588"/>
	<unicode hex="0061"/>
	<anchor x="556" y="10" name="ogonek"/>
	<anchor x="260" y="-8" name="bottom"/>
	<anchor x="290" y="500" name="top"/>
	<outline>
		<contour>
			<point x="260" y="-10" type="curve"/>
			<point x="260" y="-10" type="line"/>
			<point x="324" y="-10"/>
			<point x="379" y="18"/>
			<point x="411" y="72" type="curve"/>
			<point x="411" y="72" type="line"/>
			<point x="411" y="26"/>
			<point x="453" y="-10"/>
			<point x="499" y="-10" type="curve"/>
			<point x="528" y="-10"/>
			<point x="554" y="-2"/>
			<point x="575" y="28" type="curve"/>
			<point x="532" y="62" type="line"/>
			<point x="525" y="51"/>
			<point x="515" y="45"/>
			<point x="503" y="45" type="curve"/>
			<point x="485" y="45"/>
			<point x="470" y="58"/>
			<point x="470" y="86" type="curve"/>
			<point x="470" y="499" type="line"/>
			<point x="410" y="499" type="line"/>
			<point x="374" y="504"/>
			<point x="320" y="508"/>
			<point x="290" y="508" type="curve"/>
			<point x="137" y="508"/>
			<point x="43" y="400"/>
			<point x="43" y="246" type="curve"/>
			<point x="43" y="110"/>
			<point x="117" y="-10"/>
		</contour>
		<contour>
			<point x="261" y="44" type="curve"/>
			<point x="261" y="44" type="line"/>
			<point x="152" y="44"/>
			<point x="103" y="144"/>
			<point x="103" y="248" type="curve"/>
			<point x="103" y="364"/>
			<point x="160" y="454"/>
			<point x="286" y="454" type="curve"/>
			<point x="312" y="454"/>
			<point x="380" y="450"/>
			<point x="410" y="450" type="curve"/>
			<point x="410" y="188" type="line" smooth="yes"/>
			<point x="410" y="178"/>
			<point x="410" y="153"/>
			<point x="396" y="124" type="curve"/>
			<point x="373" y="77"/>
			<point x="323" y="44"/>
		</contour>
	</outline>
</glyph>
<glyph name="b" format="2">
	<advance width="548"/>
	<unicode hex="0062"/>
	<anchor x="111" y="725" name="top"/>
	<anchor x="275" y="0" name="bottom"/>
	<outline>
		<contour>
			<point x="250" y="-10" type="curve"/>
			<point x="250" y="-10" type="line"/>
			<point x="432" y="-10"/>
			<point x="504" y="110"/>
			<point x="504" y="249" type="curve"/>
			<point x="504" y="401"/>
			<point x="419" y="508"/>
			<point x="291" y="508" type="curve"/>
			<point x="233" y="508"/>
			<point x="174" y="486"/>
			<point x="139" y="433" type="curve"/>
			<point x="139" y="726" type="line"/>
			<point x="79" y="726" type="line"/>
			<point x="79" y="10" type="line"/>
			<point x="98" y="4"/>
			<point x="137" y="-2"/>
			<point x="153" y="-4" type="curve"/>
			<point x="184" y="-8"/>
			<point x="226" y="-10"/>
		</contour>
		<contour>
			<point x="249" y="44" type="curve"/>
			<point x="249" y="44" type="line"/>
			<point x="234" y="44"/>
			<point x="209" y="45"/>
			<point x="192" y="47" type="curve"/>
			<point x="139" y="53" type="line"/>
			<point x="139" y="328" type="line"/>
			<point x="142" y="366"/>
			<point x="157" y="398"/>
			<point x="193" y="423" type="curve"/>
			<point x="220" y="442"/>
			<point x="254" y="454"/>
			<point x="288" y="454" type="curve"/>
			<point x="374" y="454"/>
			<point x="444" y="382"/>
			<point x="444" y="248" type="curve"/>
			<point x="444" y="140"/>
			<point x="399" y="44"/>
		</contour>
	</outline>
</glyph>
<glyph name="c" format="1">
  <advance width="520"/>
  <unicode hex="0063"/>
  <outline>
    <contour>
      <point x="331" y="-6"/>
      <point x="392" y="12"/>
      <point x="451" y="52" type="curve"/>
      <point x="425" y="94" type="line"/>
      <point x="375" y="68"/>
      <point x="326" y="46"/>
      <point x="267" y="46" type="curve" smooth="yes"/>
      <point x="160" y="46"/>
      <point x="97" y="117"/>
      <point x="97" y="237" type="curve" smooth="yes"/>
      <point x="97" y="342"/>
      <point x="145" y="463"/>
      <point x="263" y="463" type="curve" smooth="yes"/>
      <point x="325" y="463"/>
      <point x="382" y="429"/>
      <point x="382" y="360" type="curve"/>
      <point x="439" y="360" type="line"/>
      <point x="439" y="454"/>
      <point x="353" y="512"/>
      <point x="259" y="512" type="curve" smooth="yes"/>
      <point x="123" y="512"/>
      <point x="41" y="391"/>
      <point x="41" y="238" type="curve" smooth="yes"/>
      <point x="41" y="92"/>
      <point x="116" y="-6"/>
      <point x="267" y="-6" type="curve" smooth="yes"/>
    </contour>
    <contour>
      <point x="258" y="500" type="move" name="top"/>
    </contour>
    <contour>
      <point x="260" y="0" type="move" name="bottom"/>
    </contour>
  </outline>
</glyph>
<glyph name="d" format="2">
	<advance width="586"/>
	<unicode hex="0064"/>
	<anchor x="416" y="601" name="center"/>
	<anchor x="437" y="727" name="top"/>
	<anchor x="556" y="500" name="topright"/>
	<anchor x="260" y="-10" name="bottom"/>
	<outline>
		<contour>
			<point x="260" y="-10" type="curve"/>
			<point x="260" y="-10" type="line"/>
			<point x="323" y="-10"/>
			<point x="377" y="18"/>
			<point x="409" y="72" type="curve"/>
			<point x="409" y="72" type="line"/>
			<point x="409" y="26"/>
			<point x="451" y="-10"/>
			<point x="497" y="-10" type="curve"/>
			<point x="526" y="-10"/>
			<point x="552" y="-2"/>
			<point x="573" y="28" type="curve"/>
			<point x="530" y="62" type="line"/>
			<point x="523" y="51"/>
			<point x="513" y="45"/>
			<point x="501" y="45" type="curve"/>
			<point x="483" y="45"/>
			<point x="468" y="58"/>
			<point x="468" y="86" type="curve"/>
			<point x="469" y="727" type="line"/>
			<point x="409" y="727" type="line"/>
			<point x="409" y="499" type="line"/>
			<point x="373" y="504"/>
			<point x="319" y="508"/>
			<point x="289" y="508" type="curve"/>
			<point x="136" y="508"/>
			<point x="43" y="399"/>
			<point x="43" y="246" type="curve"/>
			<point x="43" y="108"/>
			<point x="119" y="-10"/>
		</contour>
		<contour>
			<point x="260" y="44" type="curve"/>
			<point x="260" y="44" type="line"/>
			<point x="159" y="45"/>
			<point x="103" y="139"/>
			<point x="103" y="253" type="curve"/>
			<point x="103" y="369"/>
			<point x="155" y="456"/>
			<point x="310" y="456" type="curve"/>
			<point x="357" y="456"/>
			<point x="388" y="448"/>
			<point x="409" y="446" type="curve"/>
			<point x="409" y="188" type="line" smooth="yes"/>
			<point x="409" y="163"/>
			<point x="404" y="142"/>
			<point x="395" y="124" type="curve"/>
			<point x="370" y="73"/>
			<point x="320" y="43"/>
		</contour>
	</outline>
</glyph>
<glyph name="e" format="1">
  <advance width="522"/>
  <unicode hex="0065"/>
  <outline>
    <contour>
      <point x="337" y="-10"/>
      <point x="399" y="13"/>
      <point x="451" y="48" type="curve"/>
      <point x="425" y="90" type="line"/>
      <point x="375" y="64"/>
      <point x="327" y="42"/>
      <point x="265" y="42" type="curve" smooth="yes"/>
      <point x="164" y="42"/>
      <point x="113" y="99"/>
      <point x="101" y="200" type="curve"/>
      <point x="219" y="200" type="line" smooth="yes"/>
      <point x="352" y="200"/>
      <point x="439" y="254"/>
      <point x="439" y="354" type="curve" smooth="yes"/>
      <point x="439" y="449"/>
      <point x="359" y="508"/>
      <point x="261" y="508" type="curve" smooth="yes"/>
      <point x="104" y="508"/>
      <point x="41" y="359"/>
      <point x="41" y="230" type="curve" smooth="yes"/>
      <point x="41" y="94"/>
      <point x="111" y="-10"/>
      <point x="265" y="-10" type="curve" smooth="yes"/>
    </contour>
    <contour>
      <point x="98" y="333"/>
      <point x="144" y="459"/>
      <point x="264" y="459" type="curve" smooth="yes"/>
      <point x="325" y="459"/>
      <point x="383" y="426"/>
      <point x="383" y="355" type="curve" smooth="yes"/>
      <point x="383" y="278"/>
      <point x="313" y="252"/>
      <point x="219" y="252" type="curve" smooth="yes"/>
      <point x="98" y="252" type="line"/>
    </contour>
    <contour>
      <point x="451" y="48" type="move" name="ogonek"/>
    </contour>
    <contour>
      <point x="261" y="0" type="move" name="bottom"/>
    </contour>
    <contour>
      <point x="258" y="508" type="move" name="top"/>
    </contour>
  </outline>
</glyph>
<glyph name="f" format="2">
	<advance width="387"/>
	<unicode hex="0066"/>
	<anchor x="245" y="742" name="top"/>
	<anchor x="201" y="0" name="bottom"/>
	<outline>
		<contour>
			<point x="80" y="502" type="curve"/>
			<point x="80" y="-260" type="line"/>
			<point x="140" y="-260" type="line"/>
			<point x="140" y="198" type="line"/>
			<point x="288" y="198" type="line"/>
			<point x="288" y="252" type="line"/>
			<point x="140" y="252" type="line"/>
			<point x="140" y="418" type="line"/>
			<point x="188" y="415" type="line" smooth="yes"/>
			<point x="310" y="408"/>
			<point x="391" y="478"/>
			<point x="391" y="592" type="curve"/>
			<point x="391" y="686"/>
			<point x="336" y="742"/>
			<point x="245" y="742" type="curve"/>
			<point x="130" y="742"/>
			<point x="80" y="669"/>
		</contour>
		<contour>
			<point x="188" y="467" type="curve"/>
			<point x="140" y="467" type="line"/>
			<point x="140" y="505" type="line" smooth="yes"/>
			<point x="140" y="630"/>
			<point x="173" y="688"/>
			<point x="243" y="688" type="curve"/>
			<point x="299" y="688"/>
			<point x="331" y="654"/>
			<point x="331" y="593" type="curve"/>
			<point x="331" y="514"/>
			<point x="278" y="467"/>
		</contour>
	</outline>
</glyph>
<glyph name="g" format="2">
	<advance width="544"/>
	<unicode hex="0067"/>
	<anchor x="280" y="508" name="top"/>
	<anchor x="272" y="-260" name="bottom"/>
	<outline>
		<contour>
			<point x="310" y="-279" type="curve"/>
			<point x="310" y="-279" type="line"/>
			<point x="402" y="-279"/>
			<point x="464" y="-214"/>
			<point x="464" y="-116" type="curve"/>
			<point x="464" y="501" type="line"/>
			<point x="407" y="501" type="line"/>
			<point x="347" y="508" type="line" smooth="yes"/>
			<point x="336" y="510"/>
			<point x="313" y="511"/>
			<point x="292" y="511" type="curve"/>
			<point x="142" y="511"/>
			<point x="43" y="409"/>
			<point x="43" y="254" type="curve"/>
			<point x="43" y="123"/>
			<point x="112" y="19"/>
			<point x="215" y="-5" type="curve"/>
			<point x="177" y="-36"/>
			<point x="158" y="-77"/>
			<point x="158" y="-128" type="curve"/>
			<point x="158" y="-213"/>
			<point x="224" y="-279"/>
		</contour>
		<contour>
			<point x="315" y="-221" type="curve"/>
			<point x="315" y="-221" type="line"/>
			<point x="261" y="-221"/>
			<point x="220" y="-180"/>
			<point x="220" y="-127" type="curve"/>
			<point x="220" y="-84"/>
			<point x="237" y="-51"/>
			<point x="272" y="-29" type="curve"/>
			<point x="301" y="-10"/>
			<point x="335" y="7"/>
			<point x="360" y="28" type="curve"/>
			<point x="382" y="46"/>
			<point x="401" y="78"/>
			<point x="404" y="81" type="curve"/>
			<point x="404" y="-113" type="line"/>
			<point x="401" y="-182"/>
			<point x="369" y="-221"/>
		</contour>
		<contour>
			<point x="251" y="47" type="curve"/>
			<point x="251" y="47" type="line"/>
			<point x="169" y="47"/>
			<point x="103" y="137"/>
			<point x="103" y="249" type="curve"/>
			<point x="103" y="367"/>
			<point x="178" y="453"/>
			<point x="280" y="453" type="curve"/>
			<point x="313" y="453" type="line"/>
			<point x="404" y="448" type="line"/>
			<point x="404" y="180" type="line" smooth="yes"/>
			<point x="404" y="151"/>
			<point x="378" y="111"/>
			<point x="341" y="82" type="curve"/>
			<point x="312" y="59"/>
			<point x="282" y="47"/>
		</contour>
	</outline>
</glyph>
<glyph name="h" format="2">
	<advance width="587"/>
	<unicode hex="0068"/>
	<anchor x="141" y="611" name="center"/>
	<anchor x="297" y="0" name="bottom"/>
	<anchor x="111" y="729" name="top"/>
	<outline>
		<contour>
			<point x="469" y="84" type="curve"/>
			<point x="469" y="84" type="line"/>
			<point x="469" y="84" type="line"/>
			<point x="469" y="350" type="line" smooth="yes"/>
			<point x="469" y="455"/>
			<point x="414" y="513"/>
			<point x="304" y="513" type="curve"/>
			<point x="236" y="513"/>
			<point x="181" y="483"/>
			<point x="140" y="427" type="curve"/>
			<point x="140" y="729" type="line"/>
			<point x="80" y="729" type="line"/>
			<point x="80" y="3" type="line"/>
			<point x="140" y="3" type="line"/>
			<point x="140" y="357" type="line"/>
			<point x="185" y="418"/>
			<point x="228" y="459"/>
			<point x="297" y="459" type="curve"/>
			<point x="370" y="459"/>
			<point x="409" y="421"/>
			<point x="409" y="347" type="curve"/>
			<point x="409" y="85" type="line"/>
			<point x="409" y="31"/>
			<point x="448" y="-5"/>
			<point x="501" y="-5" type="curve"/>
			<point x="535" y="-5"/>
			<point x="564" y="14"/>
			<point x="574" y="35" type="curve"/>
			<point x="530" y="68" type="line"/>
			<point x="524" y="57"/>
			<point x="513" y="51"/>
			<point x="501" y="51" type="curve"/>
			<point x="485" y="51"/>
			<point x="469" y="64"/>
		</contour>
	</outline>
</glyph>
<glyph name="k" format="1">
  <advance width="561"/>
  <unicode hex="006B"/>
  <outline>
    <contour>
      <point x="123" y="1" type="line"/>
      <point x="123" y="201" type="line"/>
      <point x="293" y="201" type="line"/>
      <point x="389" y="43" type="line" smooth="yes"/>
      <point x="404" y="16"/>
      <point x="436" y="1"/>
      <point x="465" y="1" type="curve" smooth="yes"/>
      <point x="513" y="1"/>
      <point x="551" y="41"/>
      <point x="554" y="87" type="curve"/>
      <point x="498" y="90" type="line"/>
      <point x="498" y="70"/>
      <point x="486" y="58"/>
      <point x="466" y="58" type="curve" smooth="yes"/>
      <point x="456" y="58"/>
      <point x="445" y="61"/>
      <point x="439" y="69" type="curve"/>
      <point x="347" y="216" type="line"/>
      <point x="395" y="243"/>
      <point x="439" y="281"/>
      <point x="439" y="358" type="curve" smooth="yes"/>
      <point x="439" y="449"/>
      <point x="377" y="511"/>
      <point x="285" y="511" type="curve" smooth="yes"/>
      <point x="216" y="511"/>
      <point x="157" y="475"/>
      <point x="123" y="410" type="curve"/>
      <point x="123" y="727" type="line"/>
      <point x="68" y="727" type="line"/>
      <point x="68" y="1" type="line"/>
    </contour>
    <contour>
      <point x="125" y="279"/>
      <point x="129" y="304"/>
      <point x="136" y="329" type="curve" smooth="yes"/>
      <point x="160" y="412"/>
      <point x="213" y="460"/>
      <point x="283" y="460" type="curve" smooth="yes"/>
      <point x="348" y="460"/>
      <point x="387" y="418"/>
      <point x="387" y="362" type="curve" smooth="yes"/>
      <point x="387" y="317"/>
      <point x="362" y="284"/>
      <point x="320" y="266" type="curve" smooth="yes"/>
      <point x="299" y="257"/>
      <point x="276" y="253"/>
      <point x="241" y="253" type="curve" smooth="yes"/>
      <point x="125" y="253" type="line"/>
    </contour>
    <contour>
      <point x="279" y="508" type="move" name="top"/>
    </contour>
    <contour>
      <point x="306" y="0" type="move" name="bottom"/>
    </contour>
  </outline>
</glyph>
<glyph name="l" format="1">
  <advance width="261"/>
  <unicode hex="006C"/>
  <outline>
    <contour>
      <point x="170" y="-9"/>
      <point x="200" y="6"/>
      <point x="217" y="31" type="curve"/>
      <point x="171" y="61" type="line"/>
      <point x="164" y="51"/>
      <point x="153" y="46"/>
      <point x="143" y="46" type="curve" smooth="yes"/>
      <point x="126" y="46"/>
      <point x="108" y="59"/>
      <point x="108" y="81" type="curve" smooth="yes"/>
      <point x="108" y="726" type="line"/>
      <point x="53" y="726" type="line"/>
      <point x="53" y="81" type="line" smooth="yes"/>
      <point x="53" y="32"/>
      <point x="93" y="-9"/>
      <point x="141" y="-9" type="curve" smooth="yes"/>
    </contour>
    <contour>
      <point x="82" y="726" type="move" name="top"/>
    </contour>
    <contour>
      <point x="131" y="0" type="move" name="bottom"/>
    </contour>
    <contour>
      <point x="108" y="726" type="move" name="topright"/>
    </contour>
  </outline>
</glyph>
<glyph name="m" format="1">
  <advance width="896"/>
  <unicode hex="006D"/>
  <outline>
    <contour>
      <point x="810" y="-11"/>
      <point x="834" y="3"/>
      <point x="852" y="29" type="curve"/>
      <point x="807" y="59" type="line"/>
      <point x="799" y="49"/>
      <point x="789" y="44"/>
      <point x="779" y="44" type="curve" smooth="yes"/>
      <point x="762" y="44"/>
      <point x="743" y="57"/>
      <point x="743" y="79" type="curve" smooth="yes"/>
      <point x="743" y="351" type="line" smooth="yes"/>
      <point x="743" y="446"/>
      <point x="683" y="508"/>
      <point x="589" y="508" type="curve" smooth="yes"/>
      <point x="521" y="508"/>
      <point x="468" y="475"/>
      <point x="431" y="415" type="curve"/>
      <point x="408" y="477"/>
      <point x="360" y="508"/>
      <point x="293" y="508" type="curve" smooth="yes"/>
      <point x="224" y="508"/>
      <point x="169" y="475"/>
      <point x="135" y="417" type="curve"/>
      <point x="127" y="454"/>
      <point x="112" y="482"/>
      <point x="81" y="505" type="curve"/>
      <point x="47" y="472" type="line"/>
      <point x="74" y="445"/>
      <point x="87" y="406"/>
      <point x="87" y="353" type="curve" smooth="yes"/>
      <point x="87" y="0" type="line"/>
      <point x="142" y="0" type="line"/>
      <point x="142" y="358" type="line"/>
      <point x="164" y="412"/>
      <point x="222" y="456"/>
      <point x="288" y="456" type="curve" smooth="yes"/>
      <point x="355" y="456"/>
      <point x="387" y="411"/>
      <point x="387" y="336" type="curve" smooth="yes"/>
      <point x="387" y="0" type="line"/>
      <point x="442" y="0" type="line"/>
      <point x="442" y="357" type="line"/>
      <point x="479" y="427"/>
      <point x="528" y="456"/>
      <point x="588" y="456" type="curve" smooth="yes"/>
      <point x="651" y="456"/>
      <point x="684" y="424"/>
      <point x="688" y="350" type="curve"/>
      <point x="688" y="79" type="line" smooth="yes"/>
      <point x="688" y="31"/>
      <point x="724" y="-11"/>
      <point x="778" y="-11" type="curve" smooth="yes"/>
    </contour>
  </outline>
</glyph>
<glyph name="n" format="2">
	<advance width="592"/>
	<unicode hex="006E"/>
	<anchor x="302" y="504" name="top"/>
	<anchor x="292" y="0" name="bottom"/>
	<outline>
		<contour>
			<point x="474" y="84" type="curve"/>
			<point x="474" y="84" type="line"/>
			<point x="474" y="84" type="line"/>
			<point x="474" y="362" type="line"/>
			<point x="468" y="462"/>
			<point x="406" y="510"/>
			<point x="311" y="510" type="curve"/>
			<point x="242" y="510"/>
			<point x="185" y="485"/>
			<point x="138" y="419" type="curve"/>
			<point x="132" y="389" type="line"/>
			<point x="145" y="390" type="line"/>
			<point x="145" y="444"/>
			<point x="111" y="489"/>
			<point x="83" y="507" type="curve"/>
			<point x="43" y="467" type="line"/>
			<point x="68" y="445"/>
			<point x="85" y="411"/>
			<point x="85" y="351" type="curve"/>
			<point x="85" y="0" type="line"/>
			<point x="145" y="0" type="line"/>
			<point x="145" y="354" type="line"/>
			<point x="189" y="413"/>
			<point x="232" y="456"/>
			<point x="306" y="456" type="curve"/>
			<point x="386" y="456"/>
			<point x="414" y="406"/>
			<point x="414" y="336" type="curve"/>
			<point x="414" y="85" type="line"/>
			<point x="414" y="31"/>
			<point x="453" y="-5"/>
			<point x="506" y="-5" type="curve"/>
			<point x="540" y="-5"/>
			<point x="569" y="14"/>
			<point x="579" y="35" type="curve"/>
			<point x="535" y="68" type="line"/>
			<point x="529" y="57"/>
			<point x="518" y="51"/>
			<point x="506" y="51" type="curve"/>
			<point x="490" y="51"/>
			<point x="474" y="64"/>
		</contour>
	</outline>
</glyph>
<glyph name="o" format="1">
  <advance width="555"/>
  <unicode hex="006F"/>
  <outline>
    <contour>
      <point x="424" y="-10"/>
      <point x="527" y="95"/>
      <point x="527" y="248" type="curve" smooth="yes"/>
      <point x="527" y="399"/>
      <point x="426" y="508"/>
      <point x="279" y="508" type="curve" smooth="yes"/>
      <point x="129" y="508"/>
      <point x="30" y="395"/>
      <point x="30" y="247" type="curve" smooth="yes"/>
      <point x="30" y="99"/>
      <point x="129" y="-10"/>
      <point x="278" y="-10" type="curve" smooth="yes"/>
    </contour>
    <contour>
      <point x="161" y="42"/>
      <point x="87" y="126"/>
      <point x="87" y="248" type="curve" smooth="yes"/>
      <point x="87" y="364"/>
      <point x="154" y="456"/>
      <point x="279" y="456" type="curve" smooth="yes"/>
      <point x="395" y="456"/>
      <point x="470" y="376"/>
      <point x="470" y="252" type="curve" smooth="yes"/>
      <point x="470" y="133"/>
      <point x="401" y="42"/>
      <point x="279" y="42" type="curve" smooth="yes"/>
    </contour>
    <contour>
      <point x="429" y="40" type="move" name="ogonek"/>
    </contour>
    <contour>
      <point x="279" y="508" type="move" name="top"/>
    </contour>
    <contour>
      <point x="511" y="342" type="move" name="horn"/>
    </contour>
    <contour>
      <point x="278" y="2" type="move" name="bottom"/>
    </contour>
  </outline>
</glyph>
<glyph name="p" format="1">
  <advance width="523"/>
  <unicode hex="0070"/>
  <outline>
    <contour>
      <point x="131" y="-261" type="line"/>
      <point x="131" y="-1" type="line"/>
      <point x="167" y="-6"/>
      <point x="220" y="-10"/>
      <point x="250" y="-10" type="curve" smooth="yes"/>
      <point x="405" y="-10"/>
      <point x="494" y="99"/>
      <point x="494" y="252" type="curve" smooth="yes"/>
      <point x="494" y="390"/>
      <point x="422" y="508"/>
      <point x="279" y="508" type="curve" smooth="yes"/>
      <point x="214" y="508"/>
      <point x="154" y="484"/>
      <point x="123" y="421" type="curve"/>
      <point x="115" y="453"/>
      <point x="102" y="481"/>
      <point x="70" y="505" type="curve"/>
      <point x="36" y="472" type="line"/>
      <point x="63" y="445"/>
      <point x="76" y="406"/>
      <point x="76" y="353" type="curve" smooth="yes"/>
      <point x="76" y="-261" type="line"/>
    </contour>
    <contour>
      <point x="230" y="42"/>
      <point x="213" y="43"/>
      <point x="131" y="51" type="curve"/>
      <point x="131" y="328" type="line"/>
      <point x="137" y="405"/>
      <point x="208" y="456"/>
      <point x="281" y="456" type="curve" smooth="yes"/>
      <point x="381" y="456"/>
      <point x="437" y="360"/>
      <point x="437" y="246" type="curve" smooth="yes"/>
      <point x="437" y="126"/>
      <point x="375" y="42"/>
      <point x="245" y="42" type="curve" smooth="yes"/>
    </contour>
  </outline>
</glyph>
<glyph name="q" format="1">
  <advance width="516"/>
  <unicode hex="0071"/>
  <outline>
    <contour>
      <point x="448" y="-261" type="line"/>
      <point x="448" y="488" type="line"/>
      <point x="398" y="502"/>
      <point x="330" y="508"/>
      <point x="289" y="508" type="curve" smooth="yes"/>
      <point x="115" y="508"/>
      <point x="30" y="401"/>
      <point x="30" y="248" type="curve" smooth="yes"/>
      <point x="30" y="106"/>
      <point x="104" y="-10"/>
      <point x="243" y="-10" type="curve" smooth="yes"/>
      <point x="304" y="-10"/>
      <point x="361" y="13"/>
      <point x="393" y="64" type="curve"/>
      <point x="393" y="-261" type="line"/>
    </contour>
    <contour>
      <point x="141" y="42"/>
      <point x="87" y="133"/>
      <point x="87" y="254" type="curve" smooth="yes"/>
      <point x="87" y="371"/>
      <point x="138" y="455"/>
      <point x="293" y="455" type="curve" smooth="yes"/>
      <point x="327" y="455"/>
      <point x="363" y="451"/>
      <point x="393" y="446" type="curve"/>
      <point x="393" y="170" type="line"/>
      <point x="385" y="93"/>
      <point x="317" y="42"/>
      <point x="242" y="42" type="curve" smooth="yes"/>
    </contour>
  </outline>
</glyph>
<glyph name="r" format="2">
	<advance width="367"/>
	<unicode hex="0072"/>
	<anchor x="220" y="500" name="top"/>
	<anchor x="115" y="2" name="bottom"/>
	<outline>
		<contour>
			<point x="85" y="350" type="curve"/>
			<point x="85" y="0" type="line"/>
			<point x="145" y="0" type="line"/>
			<point x="145" y="356" type="line"/>
			<point x="162" y="388"/>
			<point x="181" y="411"/>
			<point x="202" y="427" type="curve"/>
			<point x="224" y="444"/>
			<point x="250" y="452"/>
			<point x="285" y="452" type="curve"/>
			<point x="303" y="452"/>
			<point x="322" y="450"/>
			<point x="343" y="445" type="curve"/>
			<point x="343" y="501" type="line"/>
			<point x="323" y="507"/>
			<point x="302" y="510"/>
			<point x="283" y="510" type="curve"/>
			<point x="251" y="510"/>
			<point x="219" y="502"/>
			<point x="196" y="487" type="curve"/>
			<point x="175" y="474"/>
			<point x="154" y="449"/>
			<point x="137" y="419" type="curve"/>
			<point x="131" y="388" type="line"/>
			<point x="145" y="389" type="line"/>
			<point x="145" y="443"/>
			<point x="111" y="488"/>
			<point x="83" y="506" type="curve"/>
			<point x="43" y="466" type="line"/>
			<point x="68" y="444"/>
			<point x="85" y="410"/>
		</contour>
	</outline>
</glyph>
<glyph name="s" format="2">
	<advance width="425"/>
	<unicode hex="0073"/>
	<anchor x="210" y="513" name="top"/>
	<anchor x="219" y="0" name="bottom"/>
	<outline>
		<contour>
			<point x="218" y="-12" type="curve"/>
			<point x="218" y="-12" type="line"/>
			<point x="324" y="-12"/>
			<point x="395" y="48"/>
			<point x="395" y="140" type="curve"/>
			<point x="395" y="222"/>
			<point x="339" y="252"/>
			<point x="240" y="292" type="curve"/>
			<point x="166" y="322"/>
			<point x="120" y="338"/>
			<point x="120" y="390" type="curve"/>
			<point x="120" y="434"/>
			<point x="154" y="459"/>
			<point x="216" y="459" type="curve"/>
			<point x="253" y="459"/>
			<point x="289" y="450"/>
			<point x="320" y="431" type="curve"/>
			<point x="345" y="474" type="line"/>
			<point x="311" y="499"/>
			<point x="261" y="513"/>
			<point x="213" y="513" type="curve"/>
			<point x="120" y="513"/>
			<point x="59" y="462"/>
			<point x="59" y="383" type="curve"/>
			<point x="59" y="308"/>
			<point x="115" y="282"/>
			<point x="204" y="246" type="curve"/>
			<point x="292" y="210"/>
			<point x="334" y="196"/>
			<point x="334" y="137" type="curve"/>
			<point x="334" y="78"/>
			<point x="291" y="42"/>
			<point x="219" y="42" type="curve"/>
			<point x="157" y="42"/>
			<point x="109" y="69"/>
			<point x="63" y="106" type="curve"/>
			<point x="30" y="66" type="line"/>
			<point x="80" y="21"/>
			<point x="140" y="-12"/>
		</contour>
	</outline>
</glyph>
<glyph name="t" format="2">
	<advance width="356"/>
	<unicode hex="0074"/>
	<anchor x="131" y="311" name="center"/>
	<anchor x="106" y="625" name="top"/>
	<anchor x="326" y="500" name="topright"/>
	<anchor x="205" y="2" name="bottom"/>
	<outline>
		<contour>
			<point x="204" y="-10" type="curve"/>
			<point x="204" y="-10" type="line"/>
			<point x="267" y="-10"/>
			<point x="307" y="20"/>
			<point x="337" y="74" type="curve"/>
			<point x="292" y="105" type="line"/>
			<point x="272" y="66"/>
			<point x="243" y="44"/>
			<point x="204" y="44" type="curve"/>
			<point x="146" y="44"/>
			<point x="132" y="91"/>
			<point x="132" y="144" type="curve"/>
			<point x="132" y="444" type="line"/>
			<point x="289" y="444" type="line"/>
			<point x="289" y="498" type="line"/>
			<point x="132" y="498" type="line"/>
			<point x="132" y="625" type="line"/>
			<point x="72" y="625" type="line"/>
			<point x="72" y="144" type="line" smooth="yes"/>
			<point x="72" y="44"/>
			<point x="111" y="-10"/>
		</contour>
	</outline>
</glyph>
<glyph name="u" format="1">
  <advance width="624"/>
  <unicode hex="0075"/>
  <outline>
    <contour>
      <point x="537" y="-11"/>
      <point x="561" y="2"/>
      <point x="580" y="28" type="curve"/>
      <point x="534" y="59" type="line"/>
      <point x="527" y="49"/>
      <point x="516" y="44"/>
      <point x="506" y="44" type="curve" smooth="yes"/>
      <point x="489" y="44"/>
      <point x="470" y="57"/>
      <point x="470" y="79" type="curve" smooth="yes"/>
      <point x="471" y="500" type="line"/>
      <point x="416" y="500" type="line"/>
      <point x="415" y="144" type="line"/>
      <point x="367" y="79"/>
      <point x="325" y="44"/>
      <point x="252" y="44" type="curve" smooth="yes"/>
      <point x="176" y="44"/>
      <point x="140" y="82"/>
      <point x="140" y="164" type="curve" smooth="yes"/>
      <point x="140" y="389" type="line" smooth="yes"/>
      <point x="140" y="445"/>
      <point x="99" y="479"/>
      <point x="60" y="508" type="curve"/>
      <point x="30" y="462" type="line"/>
      <point x="48" y="449"/>
      <point x="85" y="423"/>
      <point x="85" y="389" type="curve" smooth="yes"/>
      <point x="85" y="138" type="line"/>
      <point x="91" y="38"/>
      <point x="148" y="-8"/>
      <point x="246" y="-8" type="curve" smooth="yes"/>
      <point x="317" y="-8"/>
      <point x="367" y="16"/>
      <point x="415" y="78" type="curve"/>
      <point x="417" y="28"/>
      <point x="455" y="-11"/>
      <point x="507" y="-11" type="curve" smooth="yes"/>
    </contour>
    <contour>
      <point x="562" y="10" type="move" name="ogonek"/>
    </contour>
    <contour>
      <point x="265" y="500" type="move" name="top"/>
    </contour>
    <contour>
      <point x="470" y="348" type="move" name="horn"/>
    </contour>
    <contour>
      <point x="255" y="-9" type="move" name="bottom"/>
    </contour>
  </outline>
</glyph>
<glyph name="v" format="1">
  <advance width="425"/>
  <unicode hex="0076"/>
  <outline>
    <contour>
      <point x="249" y="0" type="line"/>
      <point x="412" y="499" type="line"/>
      <point x="357" y="499" type="line"/>
      <point x="221" y="84" type="line"/>
      <point x="115" y="408" type="line" smooth="yes"/>
      <point x="101" y="451"/>
      <point x="76" y="490"/>
      <point x="36" y="516" type="curve"/>
      <point x="7" y="471" type="line"/>
      <point x="27" y="460"/>
      <point x="47" y="437"/>
      <point x="56" y="415" type="curve"/>
      <point x="193" y="0" type="line"/>
    </contour>
  </outline>
</glyph>
<glyph name="w" format="1">
  <advance width="750"/>
  <unicode hex="0077"/>
  <outline>
    <contour>
      <point x="248" y="1" type="line"/>
      <point x="383" y="414" type="line"/>
      <point x="518" y="1" type="line"/>
      <point x="574" y="1" type="line"/>
      <point x="737" y="500" type="line"/>
      <point x="681" y="500" type="line"/>
      <point x="546" y="87" type="line"/>
      <point x="411" y="500" type="line"/>
      <point x="355" y="500" type="line"/>
      <point x="220" y="87" type="line"/>
      <point x="114" y="408" type="line" smooth="yes"/>
      <point x="98" y="455"/>
      <point x="73" y="492"/>
      <point x="36" y="517" type="curve"/>
      <point x="7" y="472" type="line"/>
      <point x="27" y="461"/>
      <point x="46" y="438"/>
      <point x="56" y="416" type="curve"/>
      <point x="191" y="1" type="line"/>
    </contour>
    <contour>
      <point x="383" y="500" type="move" name="top"/>
    </contour>
  </outline>
</glyph>
<glyph name="x" format="2">
	<advance width="501"/>
	<unicode hex="0078"/>
	<outline>
		<contour>
			<point x="404" y="-19" type="curve" smooth="yes"/>
			<point x="452" y="-19"/>
			<point x="491" y="17"/>
			<point x="494" y="68" type="curve"/>
			<point x="437" y="71" type="line"/>
			<point x="437" y="55"/>
			<point x="426" y="38"/>
			<point x="404" y="38" type="curve" smooth="yes"/>
			<point x="389" y="38"/>
			<point x="380" y="45"/>
			<point x="375" y="54" type="curve" smooth="yes"/>
			<point x="253" y="252" type="line"/>
			<point x="406" y="500" type="line"/>
			<point x="340" y="500" type="line"/>
			<point x="215" y="294" type="line"/>
			<point x="86" y="500" type="line"/>
			<point x="19" y="500" type="line"/>
			<point x="179" y="250" type="line"/>
			<point x="21" y="0" type="line"/>
			<point x="86" y="0" type="line"/>
			<point x="215" y="206" type="line"/>
			<point x="327" y="24" type="line"/>
			<point x="347" y="-6"/>
			<point x="375" y="-19"/>
		</contour>
	</outline>
</glyph>
<glyph name="y" format="1">
  <advance width="554"/>
  <unicode hex="0079"/>
  <outline>
    <contour>
      <point x="407" y="-285"/>
      <point x="470" y="-226"/>
      <point x="470" y="-117" type="curve" smooth="yes"/>
      <point x="470" y="137" type="line"/>
      <point x="471" y="500" type="line"/>
      <point x="416" y="500" type="line"/>
      <point x="415" y="171" type="line" smooth="yes"/>
      <point x="415" y="156"/>
      <point x="415" y="145"/>
      <point x="401" y="126" type="curve"/>
      <point x="360" y="76"/>
      <point x="318" y="44"/>
      <point x="250" y="44" type="curve" smooth="yes"/>
      <point x="175" y="44"/>
      <point x="140" y="84"/>
      <point x="140" y="164" type="curve" smooth="yes"/>
      <point x="140" y="389" type="line" smooth="yes"/>
      <point x="140" y="442"/>
      <point x="103" y="475"/>
      <point x="60" y="508" type="curve"/>
      <point x="30" y="462" type="line"/>
      <point x="48" y="449"/>
      <point x="85" y="414"/>
      <point x="85" y="389" type="curve" smooth="yes"/>
      <point x="85" y="138" type="line" smooth="yes"/>
      <point x="85" y="52"/>
      <point x="134" y="2"/>
      <point x="224" y="-7" type="curve"/>
      <point x="189" y="-31"/>
      <point x="174" y="-86"/>
      <point x="174" y="-129" type="curve" smooth="yes"/>
      <point x="174" y="-208"/>
      <point x="225" y="-285"/>
      <point x="322" y="-285" type="curve" smooth="yes"/>
    </contour>
    <contour>
      <point x="260" y="-232"/>
      <point x="227" y="-187"/>
      <point x="227" y="-127" type="curve" smooth="yes"/>
      <point x="227" y="-73"/>
      <point x="253" y="-42"/>
      <point x="303" y="-15" type="curve" smooth="yes"/>
      <point x="353" y="11" type="line" smooth="yes"/>
      <point x="371" y="20"/>
      <point x="389" y="33"/>
      <point x="406" y="49" type="curve" smooth="yes"/>
      <point x="417" y="59" type="line"/>
      <point x="417" y="-121" type="line" smooth="yes"/>
      <point x="417" y="-187"/>
      <point x="381" y="-232"/>
      <point x="321" y="-232" type="curve" smooth="yes"/>
    </contour>
    <contour>
      <point x="277" y="500" type="move" name="top"/>
    </contour>
  </outline>
</glyph>
<glyph name="z" format="1">
  <advance width="531"/>
  <unicode hex="007A"/>
  <outline>
    <contour>
      <point x="119" y="41" type="line"/>
      <point x="218" y="9" type="line" smooth="yes"/>
      <point x="259" y="-5"/>
      <point x="304" y="-13"/>
      <point x="342" y="-13" type="curve" smooth="yes"/>
      <point x="390" y="-13"/>
      <point x="422" y="0"/>
      <point x="463" y="30" type="curve"/>
      <point x="438" y="74" type="line"/>
      <point x="394" y="44"/>
      <point x="371" y="39"/>
      <point x="340" y="39" type="curve" smooth="yes"/>
      <point x="306" y="39"/>
      <point x="267" y="45"/>
      <point x="230" y="59" type="curve" smooth="yes"/>
      <point x="150" y="87" type="line"/>
      <point x="423" y="485" type="line"/>
      <point x="423" y="498" type="line"/>
      <point x="72" y="498" type="line"/>
      <point x="72" y="446" type="line"/>
      <point x="329" y="446" type="line"/>
      <point x="34" y="13" type="line"/>
      <point x="77" y="-20" type="line"/>
    </contour>
    <contour>
      <point x="266" y="497" type="move" name="top"/>
    </contour>
  </outline>
</glyph>
<glyph name="bar" format="2">
	<advance width="271"/>
	<unicode hex="007C"/>
	<outline>
		<contour>
			<point x="105" y="-70" type="line"/>
			<point x="166" y="-70" type="line"/>
			<point x="166" y="750" type="line"/>
			<point x="105" y="750" type="line"/>
		</contour>
	</outline>
</glyph>
<glyph name="braceright" format="2">
	<advance width="314"/>
	<unicode hex="007D"/>
	<outline>
		<contour>
			<point x="32" y="-127" type="curve"/>
			<point x="46" y="-173" type="line"/>
			<point x="98" y="-162"/>
			<point x="166" y="-151"/>
			<point x="202" y="-95" type="curve"/>
			<point x="213" y="-78"/>
			<point x="218" y="-56"/>
			<point x="218" y="-28" type="curve"/>
			<point x="218" y="29"/>
			<point x="187" y="199"/>
			<point x="206" y="226" type="curve"/>
			<point x="222" y="248"/>
			<point x="252" y="258"/>
			<point x="281" y="261" type="curve"/>
			<point x="281" y="316" type="line"/>
			<point x="247" y="320"/>
			<point x="221" y="328"/>
			<point x="206" y="349" type="curve"/>
			<point x="185" y="378"/>
			<point x="218" y="546"/>
			<point x="218" y="596" type="curve"/>
			<point x="218" y="624"/>
			<point x="215" y="652"/>
			<point x="202" y="672" type="curve"/>
			<point x="173" y="717"/>
			<point x="117" y="735"/>
			<point x="46" y="750" type="curve"/>
			<point x="32" y="704" type="line"/>
			<point x="73" y="696"/>
			<point x="131" y="679"/>
			<point x="149" y="645" type="curve"/>
			<point x="155" y="633"/>
			<point x="157" y="619"/>
			<point x="157" y="604" type="curve"/>
			<point x="157" y="588"/>
			<point x="137" y="410"/>
			<point x="137" y="377" type="curve"/>
			<point x="137" y="334"/>
			<point x="165" y="300"/>
			<point x="203" y="288" type="curve"/>
			<point x="140" y="274"/>
			<point x="133" y="213"/>
			<point x="140" y="143" type="curve"/>
			<point x="144" y="101"/>
			<point x="157" y="11"/>
			<point x="157" y="-30" type="curve"/>
			<point x="157" y="-45"/>
			<point x="154" y="-58"/>
			<point x="149" y="-68" type="curve"/>
			<point x="130" y="-105"/>
			<point x="74" y="-119"/>
		</contour>
	</outline>
</glyph>
<glyph name="asciitilde" format="2">
	<advance width="573"/>
	<unicode hex="007E"/>
	<outline>
		<contour>
			<point x="95" y="293" type="curve"/>
			<point x="129" y="252" type="line"/>
			<point x="157" y="275"/>
			<point x="184" y="284"/>
			<point x="211" y="284" type="curve"/>
			<point x="263" y="284"/>
			<point x="302" y="250"/>
			<point x="365" y="250" type="curve"/>
			<point x="412" y="253"/>
			<point x="439" y="260"/>
			<point x="480" y="294" type="curve"/>
			<point x="446" y="335" type="line"/>
			<point x="419" y="313"/>
			<point x="394" y="303"/>
			<point x="363" y="303" type="curve"/>
			<point x="307" y="303"/>
			<point x="284" y="336"/>
			<point x="210" y="336" type="curve"/>
			<point x="163" y="336"/>
			<point x="132" y="323"/>
		</contour>
	</outline>
</glyph>
<glyph name="cent" format="2">
	<advance width="559"/>
	<unicode hex="00A2"/>
	<outline>
		<contour>
			<point x="264" y="66" type="curve"/>
			<point x="264" y="-51" type="line"/>
			<point x="325" y="-51" type="line"/>
			<point x="325" y="64" type="line"/>
			<point x="361" y="66"/>
			<point x="391" y="74"/>
			<point x="416" y="83" type="curve"/>
			<point x="451" y="96"/>
			<point x="476" y="112"/>
			<point x="490" y="122" type="curve"/>
			<point x="464" y="164" type="line"/>
			<point x="426" y="145"/>
			<point x="390" y="122"/>
			<point x="325" y="116" type="curve"/>
			<point x="325" y="531" type="line"/>
			<point x="357" y="526"/>
			<point x="382" y="511"/>
			<point x="395" y="498" type="curve"/>
			<point x="413" y="480"/>
			<point x="421" y="455"/>
			<point x="421" y="430" type="curve"/>
			<point x="478" y="430" type="line"/>
			<point x="478" y="471"/>
			<point x="463" y="506"/>
			<point x="434" y="533" type="curve"/>
			<point x="410" y="555"/>
			<point x="371" y="575"/>
			<point x="325" y="580" type="curve"/>
			<point x="325" y="683" type="line"/>
			<point x="264" y="683" type="line"/>
			<point x="264" y="579" type="line"/>
			<point x="209" y="570"/>
			<point x="163" y="537"/>
			<point x="130" y="490" type="curve"/>
			<point x="97" y="443"/>
			<point x="80" y="387"/>
			<point x="80" y="315" type="curve"/>
			<point x="80" y="246"/>
			<point x="96" y="187"/>
			<point x="125" y="145" type="curve"/>
			<point x="155" y="101"/>
			<point x="201" y="75"/>
		</contour>
		<contour>
			<point x="264" y="529" type="curve"/>
			<point x="264" y="120" type="line"/>
			<point x="226" y="129"/>
			<point x="196" y="147"/>
			<point x="172" y="179" type="curve"/>
			<point x="148" y="211"/>
			<point x="136" y="249"/>
			<point x="136" y="303" type="curve"/>
			<point x="136" y="353"/>
			<point x="146" y="404"/>
			<point x="168" y="446" type="curve"/>
			<point x="186" y="481"/>
			<point x="219" y="518"/>
		</contour>
	</outline>
</glyph>
<glyph name="currency" format="2">
	<advance width="719"/>
	<unicode hex="00A4"/>
	<outline>
		<contour>
			<point x="76" y="34" type="line"/>
			<point x="119" y="-10" type="line"/>
			<point x="224" y="95" type="line"/>
			<point x="243" y="83"/>
			<point x="263" y="73"/>
			<point x="285" y="66" type="curve"/>
			<point x="306" y="59"/>
			<point x="331" y="55"/>
			<point x="359" y="55" type="curve"/>
			<point x="387" y="55"/>
			<point x="412" y="59"/>
			<point x="434" y="67" type="curve"/>
			<point x="455" y="75"/>
			<point x="475" y="85"/>
			<point x="494" y="97" type="curve"/>
			<point x="601" y="-10" type="line"/>
			<point x="644" y="34" type="line"/>
			<point x="540" y="138" type="line"/>
			<point x="555" y="157"/>
			<point x="567" y="179"/>
			<point x="575" y="204" type="curve"/>
			<point x="583" y="228"/>
			<point x="587" y="256"/>
			<point x="587" y="288" type="curve"/>
			<point x="587" y="349"/>
			<point x="572" y="399"/>
			<point x="541" y="438" type="curve"/>
			<point x="644" y="542" type="line"/>
			<point x="601" y="586" type="line"/>
			<point x="495" y="480" type="line"/>
			<point x="476" y="492"/>
			<point x="456" y="502"/>
			<point x="434" y="510" type="curve"/>
			<point x="412" y="517"/>
			<point x="387" y="521"/>
			<point x="359" y="521" type="curve"/>
			<point x="331" y="521"/>
			<point x="306" y="517"/>
			<point x="285" y="510" type="curve"/>
			<point x="264" y="502"/>
			<point x="244" y="492"/>
			<point x="225" y="480" type="curve"/>
			<point x="119" y="586" type="line"/>
			<point x="76" y="542" type="line"/>
			<point x="179" y="438" type="line"/>
			<point x="164" y="419"/>
			<point x="152" y="397"/>
			<point x="144" y="372" type="curve"/>
			<point x="135" y="347"/>
			<point x="131" y="319"/>
			<point x="131" y="287" type="curve"/>
			<point x="131" y="226"/>
			<point x="147" y="175"/>
			<point x="178" y="136" type="curve"/>
		</contour>
		<contour>
			<point x="360" y="108" type="curve"/>
			<point x="360" y="108" type="line"/>
			<point x="335" y="108"/>
			<point x="312" y="112"/>
			<point x="292" y="121" type="curve"/>
			<point x="271" y="130"/>
			<point x="254" y="142"/>
			<point x="240" y="158" type="curve"/>
			<point x="225" y="173"/>
			<point x="214" y="192"/>
			<point x="206" y="214" type="curve"/>
			<point x="198" y="236"/>
			<point x="194" y="261"/>
			<point x="194" y="288" type="curve"/>
			<point x="194" y="315"/>
			<point x="198" y="339"/>
			<point x="206" y="362" type="curve"/>
			<point x="213" y="384"/>
			<point x="224" y="403"/>
			<point x="239" y="418" type="curve"/>
			<point x="254" y="433"/>
			<point x="271" y="445"/>
			<point x="292" y="454" type="curve"/>
			<point x="312" y="463"/>
			<point x="322" y="467"/>
			<point x="360" y="467" type="curve"/>
			<point x="411" y="467"/>
			<point x="451" y="451"/>
			<point x="481" y="419" type="curve"/>
			<point x="511" y="387"/>
			<point x="526" y="344"/>
			<point x="526" y="290" type="curve"/>
			<point x="526" y="263"/>
			<point x="522" y="239"/>
			<point x="515" y="217" type="curve"/>
			<point x="507" y="194"/>
			<point x="496" y="175"/>
			<point x="481" y="159" type="curve"/>
			<point x="466" y="143"/>
			<point x="449" y="131"/>
			<point x="429" y="122" type="curve"/>
			<point x="408" y="113"/>
			<point x="385" y="108"/>
		</contour>
	</outline>
</glyph>
<glyph name="yen" format="1">
  <advance width="630"/>
  <unicode hex="00A5"/>
  <outline>
    <contour>
      <point x="332" y="0" type="line"/>
      <point x="332" y="169" type="line"/>
      <point x="523" y="169" type="line"/>
      <point x="523" y="222" type="line"/>
      <point x="332" y="222" type="line"/>
      <point x="332" y="301" type="line"/>
      <point x="342" y="318" type="line"/>
      <point x="522" y="318" type="line"/>
      <point x="522" y="372" type="line"/>
      <point x="372" y="372" type="line"/>
      <point x="553" y="660" type="line"/>
      <point x="483" y="660" type="line"/>
      <point x="301" y="368" type="line"/>
      <point x="116" y="660" type="line"/>
      <point x="47" y="660" type="line"/>
      <point x="230" y="372" type="line"/>
      <point x="77" y="372" type="line"/>
      <point x="77" y="318" type="line"/>
      <point x="260" y="318" type="line"/>
      <point x="270" y="301" type="line"/>
      <point x="270" y="222" type="line"/>
      <point x="78" y="222" type="line"/>
      <point x="78" y="169" type="line"/>
      <point x="272" y="169" type="line"/>
      <point x="272" y="0" type="line"/>
    </contour>
  </outline>
</glyph>
<glyph name="brokenbar" format="1">
  <advance width="271"/>
  <unicode hex="00A6"/>
  <outline>
    <contour>
      <point x="166" y="380" type="line"/>
      <point x="166" y="750" type="line"/>
      <point x="105" y="750" type="line"/>
      <point x="105" y="380" type="line"/>
    </contour>
    <contour>
      <point x="166" y="-70" type="line"/>
      <point x="166" y="300" type="line"/>
      <point x="105" y="300" type="line"/>
      <point x="105" y="-70" type="line"/>
    </contour>
  </outline>
</glyph>
<glyph name="section" format="1">
  <advance width="399"/>
  <unicode hex="00A7"/>
  <outline>
    <contour>
      <point x="174" y="-57"/>
      <point x="226" y="-39"/>
      <point x="259" y="-17" type="curve" smooth="yes"/>
      <point x="292" y="5"/>
      <point x="312" y="35"/>
      <point x="312" y="78" type="curve" smooth="yes"/>
      <point x="312" y="112"/>
      <point x="300" y="140"/>
      <point x="280" y="164" type="curve"/>
      <point x="299" y="175"/>
      <point x="309" y="183"/>
      <point x="316" y="192" type="curve" smooth="yes"/>
      <point x="334" y="215"/>
      <point x="342" y="250"/>
      <point x="342" y="280" type="curve" smooth="yes"/>
      <point x="342" y="323"/>
      <point x="326" y="352"/>
      <point x="293" y="382" type="curve" smooth="yes"/>
      <point x="262" y="410"/>
      <point x="232" y="425"/>
      <point x="201" y="449" type="curve" smooth="yes"/>
      <point x="175" y="469"/>
      <point x="152" y="493"/>
      <point x="152" y="528" type="curve" smooth="yes"/>
      <point x="152" y="550"/>
      <point x="162" y="571"/>
      <point x="188" y="585" type="curve" smooth="yes"/>
      <point x="206" y="595"/>
      <point x="247" y="609"/>
      <point x="303" y="620" type="curve"/>
      <point x="290" y="673" type="line"/>
      <point x="224" y="663"/>
      <point x="173" y="645"/>
      <point x="140" y="623" type="curve" smooth="yes"/>
      <point x="104" y="599"/>
      <point x="87" y="568"/>
      <point x="87" y="527" type="curve" smooth="yes"/>
      <point x="87" y="494"/>
      <point x="98" y="466"/>
      <point x="118" y="442" type="curve"/>
      <point x="109" y="439"/>
      <point x="95" y="430"/>
      <point x="83" y="414" type="curve" smooth="yes"/>
      <point x="68" y="394"/>
      <point x="57" y="366"/>
      <point x="57" y="329" type="curve" smooth="yes"/>
      <point x="57" y="285"/>
      <point x="72" y="255"/>
      <point x="106" y="224" type="curve" smooth="yes"/>
      <point x="136" y="196"/>
      <point x="167" y="181"/>
      <point x="198" y="157" type="curve" smooth="yes"/>
      <point x="224" y="137"/>
      <point x="247" y="114"/>
      <point x="247" y="78" type="curve" smooth="yes"/>
      <point x="247" y="50"/>
      <point x="233" y="33"/>
      <point x="211" y="21" type="curve" smooth="yes"/>
      <point x="187" y="8"/>
      <point x="144" y="-4"/>
      <point x="96" y="-14" type="curve"/>
      <point x="109" y="-67" type="line"/>
    </contour>
    <contour>
      <point x="213" y="223"/>
      <point x="184" y="237"/>
      <point x="158" y="259" type="curve" smooth="yes"/>
      <point x="135" y="278"/>
      <point x="119" y="298"/>
      <point x="119" y="329" type="curve" smooth="yes"/>
      <point x="119" y="360"/>
      <point x="135" y="387"/>
      <point x="162" y="402" type="curve"/>
      <point x="186" y="383"/>
      <point x="215" y="367"/>
      <point x="241" y="346" type="curve" smooth="yes"/>
      <point x="262" y="328"/>
      <point x="280" y="309"/>
      <point x="280" y="277" type="curve" smooth="yes"/>
      <point x="280" y="254"/>
      <point x="270" y="220"/>
      <point x="237" y="204" type="curve"/>
    </contour>
  </outline>
</glyph>
<glyph name="copyright" format="1">
  <advance width="738"/>
  <unicode hex="00A9"/>
  <outline>
    <contour>
      <point x="445" y="-60"/>
      <point x="521" y="-27"/>
      <point x="573" y="27" type="curve" smooth="yes"/>
      <point x="622" y="77"/>
      <point x="657" y="152"/>
      <point x="657" y="245" type="curve" smooth="yes"/>
      <point x="657" y="328"/>
      <point x="629" y="406"/>
      <point x="573" y="463" type="curve" smooth="yes"/>
      <point x="519" y="518"/>
      <point x="443" y="549"/>
      <point x="355" y="549" type="curve" smooth="yes"/>
      <point x="271" y="549"/>
      <point x="192" y="521"/>
      <point x="135" y="463" type="curve" smooth="yes"/>
      <point x="82" y="409"/>
      <point x="51" y="331"/>
      <point x="51" y="243" type="curve" smooth="yes"/>
      <point x="51" y="159"/>
      <point x="79" y="81"/>
      <point x="135" y="25" type="curve" smooth="yes"/>
      <point x="193" y="-33"/>
      <point x="269" y="-60"/>
      <point x="353" y="-60" type="curve" smooth="yes"/>
    </contour>
    <contour>
      <point x="406" y="90"/>
      <point x="439" y="106"/>
      <point x="469" y="127" type="curve"/>
      <point x="447" y="165" type="line"/>
      <point x="424" y="149"/>
      <point x="400" y="136"/>
      <point x="371" y="136" type="curve" smooth="yes"/>
      <point x="318" y="136"/>
      <point x="282" y="179"/>
      <point x="282" y="246" type="curve" smooth="yes"/>
      <point x="282" y="295"/>
      <point x="301" y="358"/>
      <point x="362" y="358" type="curve" smooth="yes"/>
      <point x="389" y="358"/>
      <point x="420" y="345"/>
      <point x="430" y="340" type="curve"/>
      <point x="430" y="387" type="line"/>
      <point x="415" y="398"/>
      <point x="379" y="404"/>
      <point x="356" y="404" type="curve" smooth="yes"/>
      <point x="274" y="404"/>
      <point x="230" y="328"/>
      <point x="230" y="245" type="curve" smooth="yes"/>
      <point x="230" y="160"/>
      <point x="277" y="90"/>
      <point x="365" y="90" type="curve" smooth="yes"/>
    </contour>
    <contour>
      <point x="285" y="-13"/>
      <point x="220" y="11"/>
      <point x="174" y="58" type="curve" smooth="yes"/>
      <point x="128" y="105"/>
      <point x="105" y="170"/>
      <point x="105" y="245" type="curve" smooth="yes"/>
      <point x="105" y="319"/>
      <point x="128" y="383"/>
      <point x="174" y="430" type="curve" smooth="yes"/>
      <point x="220" y="477"/>
      <point x="285" y="501"/>
      <point x="355" y="501" type="curve" smooth="yes"/>
      <point x="424" y="501"/>
      <point x="488" y="478"/>
      <point x="534" y="432" type="curve" smooth="yes"/>
      <point x="580" y="386"/>
      <point x="603" y="318"/>
      <point x="603" y="248" type="curve" smooth="yes"/>
      <point x="603" y="175"/>
      <point x="579" y="107"/>
      <point x="534" y="60" type="curve" smooth="yes"/>
      <point x="494" y="18"/>
      <point x="432" y="-13"/>
      <point x="354" y="-13" type="curve" smooth="yes"/>
    </contour>
  </outline>
</glyph>
<glyph name="ordfeminine" format="2">
	<advance width="430"/>
	<unicode hex="00AA"/>
	<anchor x="396" y="398" name="ogonek"/>
	<anchor x="208" y="866" name="bottom"/>
	<anchor x="185" y="197" name="top"/>
	<outline>
		<contour>
			<point x="193" y="369" type="curve"/>
			<point x="193" y="369" type="line"/>
			<point x="229" y="369"/>
			<point x="273" y="388"/>
			<point x="287" y="408" type="curve"/>
			<point x="287" y="392"/>
			<point x="319" y="369"/>
			<point x="343" y="369" type="curve"/>
			<point x="364" y="369"/>
			<point x="393" y="381"/>
			<point x="404" y="408" type="curve"/>
			<point x="364" y="433" type="line"/>
			<point x="361" y="427"/>
			<point x="354" y="423"/>
			<point x="348" y="423" type="curve"/>
			<point x="339" y="423"/>
			<point x="333" y="429"/>
			<point x="333" y="434" type="curve"/>
			<point x="333" y="683" type="line"/>
			<point x="287" y="683" type="line"/>
			<point x="266" y="686"/>
			<point x="233" y="689"/>
			<point x="212" y="689" type="curve"/>
			<point x="112" y="689"/>
			<point x="48" y="618"/>
			<point x="48" y="527" type="curve"/>
			<point x="48" y="447"/>
			<point x="98" y="369"/>
		</contour>
		<contour>
			<point x="193" y="423" type="curve"/>
			<point x="193" y="423" type="line"/>
			<point x="137" y="423"/>
			<point x="108" y="474"/>
			<point x="108" y="528" type="curve"/>
			<point x="108" y="588"/>
			<point x="144" y="636"/>
			<point x="206" y="636" type="curve"/>
			<point x="229" y="636"/>
			<point x="253" y="633"/>
			<point x="273" y="631" type="curve"/>
			<point x="273" y="494" type="line" smooth="yes"/>
			<point x="273" y="491"/>
			<point x="273" y="476"/>
			<point x="266" y="463" type="curve"/>
			<point x="253" y="439"/>
			<point x="225" y="423"/>
		</contour>
	</outline>
</glyph>
<glyph name="guillemetleft" format="1">
  <advance width="614"/>
  <unicode hex="00AB"/>
  <outline>
    <contour>
      <point x="532" y="60" type="line"/>
      <point x="316" y="251" type="line"/>
      <point x="532" y="442" type="line"/>
      <point x="495" y="483" type="line"/>
      <point x="289" y="299" type="line" smooth="yes"/>
      <point x="268" y="280"/>
      <point x="257" y="264"/>
      <point x="257" y="251" type="curve" smooth="yes"/>
      <point x="257" y="237"/>
      <point x="268" y="221"/>
      <point x="289" y="203" type="curve" smooth="yes"/>
      <point x="495" y="19" type="line"/>
    </contour>
    <contour>
      <point x="322" y="60" type="line"/>
      <point x="106" y="251" type="line"/>
      <point x="322" y="442" type="line"/>
      <point x="285" y="483" type="line"/>
      <point x="79" y="299" type="line" smooth="yes"/>
      <point x="58" y="280"/>
      <point x="47" y="264"/>
      <point x="47" y="251" type="curve" smooth="yes"/>
      <point x="47" y="237"/>
      <point x="58" y="221"/>
      <point x="79" y="203" type="curve" smooth="yes"/>
      <point x="285" y="19" type="line"/>
    </contour>
  </outline>
</glyph>
<glyph name="logicalnot" format="1">
  <advance width="486"/>
  <unicode hex="00AC"/>
  <outline>
    <contour>
      <point x="403" y="147" type="line"/>
      <point x="403" y="322" type="line"/>
      <point x="43" y="322" type="line"/>
      <point x="43" y="264" type="line"/>
      <point x="341" y="264" type="line"/>
      <point x="341" y="147" type="line"/>
    </contour>
  </outline>
</glyph>
<glyph name="registered" format="1">
  <advance width="738"/>
  <unicode hex="00AE"/>
  <outline>
    <contour>
      <point x="530" y="117"/>
      <point x="657" y="244"/>
      <point x="657" y="422" type="curve" smooth="yes"/>
      <point x="657" y="594"/>
      <point x="536" y="726"/>
      <point x="355" y="726" type="curve" smooth="yes"/>
      <point x="177" y="726"/>
      <point x="51" y="601"/>
      <point x="51" y="420" type="curve" smooth="yes"/>
      <point x="51" y="242"/>
      <point x="175" y="117"/>
      <point x="354" y="117" type="curve" smooth="yes"/>
    </contour>
    <contour>
      <point x="207" y="164"/>
      <point x="105" y="265"/>
      <point x="105" y="422" type="curve" smooth="yes"/>
      <point x="105" y="574"/>
      <point x="205" y="678"/>
      <point x="355" y="678" type="curve" smooth="yes"/>
      <point x="504" y="678"/>
      <point x="603" y="575"/>
      <point x="603" y="425" type="curve" smooth="yes"/>
      <point x="603" y="280"/>
      <point x="509" y="164"/>
      <point x="354" y="164" type="curve" smooth="yes"/>
    </contour>
    <contour>
      <point x="310" y="240" type="line"/>
      <point x="310" y="389" type="line"/>
      <point x="332" y="389" type="line" smooth="yes"/>
      <point x="373" y="389"/>
      <point x="402" y="369"/>
      <point x="416" y="331" type="curve" smooth="yes"/>
      <point x="448" y="246" type="line"/>
      <point x="495" y="266" type="line"/>
      <point x="457" y="358" type="line" smooth="yes"/>
      <point x="449" y="377"/>
      <point x="436" y="394"/>
      <point x="416" y="402" type="curve"/>
      <point x="449" y="414"/>
      <point x="475" y="446"/>
      <point x="475" y="491" type="curve" smooth="yes"/>
      <point x="475" y="551"/>
      <point x="427" y="593"/>
      <point x="359" y="593" type="curve" smooth="yes"/>
      <point x="336" y="593"/>
      <point x="321" y="588"/>
      <point x="299" y="588" type="curve"/>
      <point x="262" y="586" type="line"/>
      <point x="261" y="557"/>
      <point x="261" y="527"/>
      <point x="261" y="497" type="curve" smooth="yes"/>
      <point x="261" y="330" type="line"/>
      <point x="262" y="240" type="line"/>
    </contour>
    <contour>
      <point x="310" y="542" type="line"/>
      <point x="332" y="547"/>
      <point x="351" y="547"/>
      <point x="353" y="547" type="curve" smooth="yes"/>
      <point x="397" y="547"/>
      <point x="427" y="527"/>
      <point x="427" y="487" type="curve" smooth="yes"/>
      <point x="427" y="455"/>
      <point x="407" y="429"/>
      <point x="368" y="429" type="curve" smooth="yes"/>
      <point x="310" y="429" type="line"/>
    </contour>
  </outline>
</glyph>
<glyph name="macron" format="1">
  <advance width="442"/>
  <unicode hex="00AF"/>
  <outline>
    <contour>
      <point x="339" y="597" type="line"/>
      <point x="339" y="654" type="line"/>
      <point x="73" y="654" type="line"/>
      <point x="73" y="597" type="line"/>
    </contour>
    <contour>
      <point x="206" y="500" type="move" name="_top"/>
    </contour>
  </outline>
</glyph>
<glyph name="degree" format="1">
  <advance width="397"/>
  <unicode hex="00B0"/>
  <outline>
    <contour>
      <point x="248" y="396"/>
      <point x="316" y="436"/>
      <point x="316" y="529" type="curve" smooth="yes"/>
      <point x="316" y="612"/>
      <point x="263" y="664"/>
      <point x="185" y="664" type="curve" smooth="yes"/>
      <point x="118" y="664"/>
      <point x="51" y="625"/>
      <point x="51" y="531" type="curve" smooth="yes"/>
      <point x="51" y="448"/>
      <point x="104" y="396"/>
      <point x="181" y="396" type="curve" smooth="yes"/>
    </contour>
    <contour>
      <point x="134" y="445"/>
      <point x="105" y="480"/>
      <point x="105" y="529" type="curve" smooth="yes"/>
      <point x="105" y="577"/>
      <point x="133" y="615"/>
      <point x="184" y="615" type="curve" smooth="yes"/>
      <point x="233" y="615"/>
      <point x="262" y="580"/>
      <point x="262" y="530" type="curve" smooth="yes"/>
      <point x="262" y="480"/>
      <point x="232" y="445"/>
      <point x="183" y="445" type="curve" smooth="yes"/>
    </contour>
  </outline>
</glyph>
<glyph name="plusminus" format="2">
	<advance width="526"/>
	<unicode hex="00B1"/>
	<outline>
		<contour>
			<point x="235" y="268" type="line"/>
			<point x="235" y="107" type="line"/>
			<point x="291" y="107" type="line"/>
			<point x="291" y="268" type="line"/>
			<point x="449" y="268" type="line"/>
			<point x="449" y="319" type="line"/>
			<point x="291" y="319" type="line"/>
			<point x="291" y="479" type="line"/>
			<point x="235" y="479" type="line"/>
			<point x="235" y="319" type="line"/>
			<point x="77" y="319" type="line"/>
			<point x="77" y="268" type="line"/>
		</contour>
		<contour>
			<point x="77" y="52" type="line"/>
			<point x="77" y="0" type="line"/>
			<point x="449" y="0" type="line"/>
			<point x="449" y="52" type="line"/>
		</contour>
	</outline>
</glyph>
<glyph name="acute" format="2">
	<advance width="249"/>
	<unicode hex="00B4"/>
	<anchor x="55" y="500" name="_top"/>
	<outline>
		<contour>
			<point x="49" y="557" type="line"/>
			<point x="221" y="667" type="line"/>
			<point x="185" y="716" type="line"/>
			<point x="27" y="591" type="line"/>
		</contour>
	</outline>
</glyph>
<glyph name="micro" format="1">
  <advance width="526"/>
  <unicode hex="00B5"/>
  <outline>
    <contour>
      <point x="98" y="-250" type="line"/>
      <point x="98" y="18" type="line"/>
      <point x="111" y="9"/>
      <point x="127" y="2"/>
      <point x="145" y="-3" type="curve" smooth="yes"/>
      <point x="162" y="-8"/>
      <point x="183" y="-10"/>
      <point x="207" y="-10" type="curve" smooth="yes"/>
      <point x="275" y="-10"/>
      <point x="330" y="22"/>
      <point x="372" y="87" type="curve"/>
      <point x="375" y="68"/>
      <point x="381" y="51"/>
      <point x="390" y="35" type="curve" smooth="yes"/>
      <point x="398" y="18"/>
      <point x="410" y="4"/>
      <point x="427" y="-8" type="curve"/>
      <point x="461" y="25" type="line"/>
      <point x="435" y="53"/>
      <point x="422" y="93"/>
      <point x="422" y="144" type="curve" smooth="yes"/>
      <point x="422" y="498" type="line"/>
      <point x="367" y="498" type="line"/>
      <point x="367" y="145" type="line"/>
      <point x="344" y="113"/>
      <point x="320" y="88"/>
      <point x="296" y="70" type="curve" smooth="yes"/>
      <point x="272" y="51"/>
      <point x="242" y="42"/>
      <point x="207" y="42" type="curve" smooth="yes"/>
      <point x="169" y="42"/>
      <point x="142" y="52"/>
      <point x="125" y="71" type="curve" smooth="yes"/>
      <point x="108" y="90"/>
      <point x="99" y="120"/>
      <point x="99" y="162" type="curve"/>
      <point x="98" y="162" type="line"/>
      <point x="98" y="498" type="line"/>
      <point x="43" y="498" type="line"/>
      <point x="43" y="-250" type="line"/>
    </contour>
  </outline>
</glyph>
<glyph name="paragraph" format="2">
	<advance width="648"/>
	<unicode hex="00B6"/>
	<outline>
		<contour>
			<point x="279" y="250" type="curve"/>
			<point x="279" y="1" type="line"/>
			<point x="338" y="1" type="line"/>
			<point x="338" y="557" type="line"/>
			<point x="470" y="557" type="line"/>
			<point x="470" y="1" type="line"/>
			<point x="528" y="1" type="line"/>
			<point x="528" y="614" type="line"/>
			<point x="448" y="617" type="line"/>
			<point x="352" y="617" type="line" smooth="yes"/>
			<point x="245" y="617"/>
			<point x="172" y="603"/>
			<point x="131" y="575" type="curve"/>
			<point x="90" y="547"/>
			<point x="69" y="499"/>
			<point x="69" y="431" type="curve"/>
			<point x="69" y="375"/>
			<point x="84" y="332"/>
			<point x="113" y="303" type="curve"/>
			<point x="143" y="275"/>
			<point x="198" y="257"/>
		</contour>
	</outline>
</glyph>
<glyph name="periodcentered" format="2">
	<advance width="275"/>
	<unicode hex="00B7"/>
	<anchor x="105" y="282" name="_center"/>
	<outline>
		<contour>
			<point x="138" y="267" type="curve"/>
			<point x="138" y="267" type="line"/>
			<point x="170" y="267"/>
			<point x="197" y="294"/>
			<point x="197" y="327" type="curve"/>
			<point x="197" y="359"/>
			<point x="170" y="386"/>
			<point x="138" y="386" type="curve"/>
			<point x="105" y="386"/>
			<point x="78" y="359"/>
			<point x="78" y="327" type="curve"/>
			<point x="78" y="294"/>
			<point x="105" y="267"/>
		</contour>
	</outline>
</glyph>
<glyph name="cedilla" format="1">
  <advance width="259"/>
  <unicode hex="00B8"/>
  <outline>
    <contour>
      <point x="146" y="-232"/>
      <point x="181" y="-177"/>
      <point x="181" y="-127" type="curve" smooth="yes"/>
      <point x="181" y="-86"/>
      <point x="159" y="-45"/>
      <point x="110" y="-39" type="curve"/>
      <point x="120" y="11" type="line"/>
      <point x="59" y="11" type="line"/>
      <point x="49" y="-85" type="line"/>
      <point x="80" y="-85" type="line" smooth="yes"/>
      <point x="112" y="-85"/>
      <point x="128" y="-100"/>
      <point x="128" y="-126" type="curve" smooth="yes"/>
      <point x="128" y="-152"/>
      <point x="111" y="-179"/>
      <point x="80" y="-179" type="curve"/>
      <point x="80" y="-232" type="line"/>
    </contour>
    <contour>
      <point x="90" y="0" type="move" name="_bottom"/>
    </contour>
  </outline>
</glyph>
<glyph name="ordmasculine" format="2">
	<advance width="454"/>
	<unicode hex="00BA"/>
	<anchor x="226" y="525" name="center"/>
	<anchor x="315" y="398" name="ogonek"/>
	<anchor x="227" y="676" name="top"/>
	<anchor x="390" y="675" name="topright"/>
	<anchor x="305" y="666" name="horn"/>
	<anchor x="226" y="388" name="bottom"/>
	<outline>
		<contour>
			<point x="226" y="369" type="curve"/>
			<point x="226" y="369" type="line"/>
			<point x="318" y="369"/>
			<point x="387" y="437"/>
			<point x="387" y="528" type="curve"/>
			<point x="387" y="618"/>
			<point x="319" y="688"/>
			<point x="227" y="688" type="curve"/>
			<point x="134" y="688"/>
			<point x="66" y="616"/>
			<point x="66" y="528" type="curve"/>
			<point x="66" y="439"/>
			<point x="134" y="369"/>
		</contour>
		<contour>
			<point x="227" y="423" type="curve"/>
			<point x="227" y="423" type="line"/>
			<point x="166" y="423"/>
			<point x="126" y="465"/>
			<point x="126" y="528" type="curve"/>
			<point x="126" y="587"/>
			<point x="162" y="634"/>
			<point x="227" y="634" type="curve"/>
			<point x="288" y="634"/>
			<point x="327" y="592"/>
			<point x="327" y="531" type="curve"/>
			<point x="327" y="469"/>
			<point x="290" y="423"/>
		</contour>
	</outline>
</glyph>
<glyph name="AE" format="2">
	<advance width="963"/>
	<unicode hex="00C6"/>
	<anchor x="555" y="682" name="top"/>
	<anchor x="545" y="0" name="bottom"/>
	<outline>
		<contour>
			<point x="91" y="-14" type="curve"/>
			<point x="91" y="-14" type="line"/>
			<point x="127" y="-14"/>
			<point x="158" y="1"/>
			<point x="173" y="31" type="curve"/>
			<point x="272" y="227" type="line"/>
			<point x="494" y="227" type="line"/>
			<point x="494" y="0" type="line"/>
			<point x="922" y="0" type="line"/>
			<point x="922" y="56" type="line"/>
			<point x="555" y="56" type="line"/>
			<point x="555" y="334" type="line"/>
			<point x="802" y="334" type="line"/>
			<point x="802" y="390" type="line"/>
			<point x="555" y="390" type="line"/>
			<point x="555" y="628" type="line"/>
			<point x="902" y="628" type="line"/>
			<point x="902" y="684" type="line"/>
			<point x="465" y="684" type="line"/>
			<point x="124" y="62" type="line" smooth="yes"/>
			<point x="118" y="52"/>
			<point x="108" y="43"/>
			<point x="95" y="43" type="curve"/>
			<point x="81" y="43"/>
			<point x="71" y="45"/>
			<point x="58" y="64" type="curve"/>
			<point x="18" y="24" type="line"/>
			<point x="38" y="0"/>
			<point x="64" y="-14"/>
		</contour>
		<contour>
			<point x="494" y="283" type="line"/>
			<point x="307" y="283" type="line"/>
			<point x="477" y="592" type="line"/>
			<point x="495" y="630" type="line"/>
		</contour>
	</outline>
</glyph>
<glyph name="multiply" format="2">
	<advance width="520"/>
	<unicode hex="00D7"/>
	<outline>
		<contour>
			<point x="69" y="116" type="line"/>
			<point x="110" y="75" type="line"/>
			<point x="259" y="225" type="line"/>
			<point x="408" y="76" type="line"/>
			<point x="451" y="119" type="line"/>
			<point x="302" y="268" type="line"/>
			<point x="444" y="410" type="line"/>
			<point x="403" y="451" type="line"/>
			<point x="261" y="308" type="line"/>
			<point x="119" y="451" type="line"/>
			<point x="76" y="408" type="line"/>
			<point x="218" y="265" type="line"/>
		</contour>
	</outline>
</glyph>
<glyph name="Oslash" format="1">
  <advance width="799"/>
  <unicode hex="00D8"/>
  <outline>
    <component base="O"/>
    <component base="slashlongcomb.case" xOffset="404" yOffset="48"/>
    <contour>
      <point x="421" y="684" type="move" name="top"/>
    </contour>
  </outline>
</glyph>
<glyph name="Thorn" format="1">
  <advance width="535"/>
  <unicode hex="00DE"/>
  <outline>
    <contour>
      <point x="114" y="0" type="line"/>
      <point x="114" y="509" type="line"/>
      <point x="251" y="509" type="line" smooth="yes"/>
      <point x="344" y="509"/>
      <point x="403" y="456"/>
      <point x="403" y="356" type="curve" smooth="yes"/>
      <point x="403" y="241"/>
      <point x="325" y="191"/>
      <point x="224" y="191" type="curve" smooth="yes"/>
      <point x="204" y="191"/>
      <point x="185" y="193"/>
      <point x="165" y="196" type="curve"/>
      <point x="165" y="141" type="line"/>
      <point x="178" y="139"/>
      <point x="197" y="137"/>
      <point x="221" y="137" type="curve" smooth="yes"/>
      <point x="356" y="137"/>
      <point x="462" y="201"/>
      <point x="462" y="352" type="curve" smooth="yes"/>
      <point x="462" y="477"/>
      <point x="389" y="556"/>
      <point x="270" y="563" type="curve"/>
      <point x="114" y="563" type="line"/>
      <point x="114" y="684" type="line"/>
      <point x="53" y="684" type="line"/>
      <point x="53" y="0" type="line"/>
    </contour>
  </outline>
</glyph>
<glyph name="germandbls" format="1">
  <advance width="518"/>
  <unicode hex="00DF"/>
  <outline>
    <contour>
      <point x="108" y="-250" type="line"/>
      <point x="108" y="-2" type="line"/>
      <point x="112" y="-2" type="line"/>
      <point x="197" y="-9"/>
      <point x="221" y="-10"/>
      <point x="238" y="-10" type="curve" smooth="yes"/>
      <point x="351" y="-10"/>
      <point x="445" y="32"/>
      <point x="445" y="158" type="curve" smooth="yes"/>
      <point x="445" y="210"/>
      <point x="429" y="256"/>
      <point x="397" y="288" type="curve" smooth="yes"/>
      <point x="346" y="339"/>
      <point x="259" y="351"/>
      <point x="259" y="428" type="curve" smooth="yes"/>
      <point x="259" y="509"/>
      <point x="356" y="506"/>
      <point x="356" y="608" type="curve" smooth="yes"/>
      <point x="356" y="682"/>
      <point x="304" y="734"/>
      <point x="215" y="734" type="curve" smooth="yes"/>
      <point x="85" y="734"/>
      <point x="53" y="623"/>
      <point x="53" y="494" type="curve" smooth="yes"/>
      <point x="53" y="-250" type="line"/>
    </contour>
    <contour>
      <point x="175" y="42"/>
      <point x="132" y="47"/>
      <point x="108" y="50" type="curve"/>
      <point x="108" y="497" type="line" smooth="yes"/>
      <point x="108" y="590"/>
      <point x="122" y="682"/>
      <point x="213" y="682" type="curve" smooth="yes"/>
      <point x="261" y="682"/>
      <point x="299" y="656"/>
      <point x="299" y="604" type="curve" smooth="yes"/>
      <point x="299" y="523"/>
      <point x="206" y="531"/>
      <point x="206" y="424" type="curve" smooth="yes"/>
      <point x="206" y="326"/>
      <point x="285" y="319"/>
      <point x="343" y="266" type="curve" smooth="yes"/>
      <point x="377" y="235"/>
      <point x="391" y="202"/>
      <point x="391" y="157" type="curve" smooth="yes"/>
      <point x="391" y="73"/>
      <point x="341" y="42"/>
      <point x="223" y="42" type="curve" smooth="yes"/>
    </contour>
  </outline>
</glyph>
<glyph name="ae" format="1">
  <advance width="826"/>
  <unicode hex="00E6"/>
  <outline>
    <contour>
      <point x="249" y="-10"/>
      <point x="291" y="3"/>
      <point x="321" y="24" type="curve" smooth="yes"/>
      <point x="364" y="54"/>
      <point x="372" y="92"/>
      <point x="376" y="114" type="curve"/>
      <point x="395" y="65"/>
      <point x="418" y="41"/>
      <point x="448" y="22" type="curve" smooth="yes"/>
      <point x="481" y="1"/>
      <point x="516" y="-10"/>
      <point x="572" y="-10" type="curve" smooth="yes"/>
      <point x="610" y="-10"/>
      <point x="640" y="-5"/>
      <point x="674" y="7" type="curve" smooth="yes"/>
      <point x="707" y="19"/>
      <point x="731" y="31"/>
      <point x="756" y="48" type="curve"/>
      <point x="730" y="90" type="line"/>
      <point x="707" y="78"/>
      <point x="679" y="65"/>
      <point x="654" y="56" type="curve" smooth="yes"/>
      <point x="626" y="46"/>
      <point x="602" y="42"/>
      <point x="573" y="42" type="curve" smooth="yes"/>
      <point x="517" y="42"/>
      <point x="482" y="57"/>
      <point x="456" y="82" type="curve" smooth="yes"/>
      <point x="426" y="111"/>
      <point x="412" y="150"/>
      <point x="406" y="200" type="curve"/>
      <point x="524" y="200" type="line" smooth="yes"/>
      <point x="551" y="200"/>
      <point x="582" y="203"/>
      <point x="606" y="208" type="curve" smooth="yes"/>
      <point x="659" y="219"/>
      <point x="702" y="244"/>
      <point x="725" y="282" type="curve" smooth="yes"/>
      <point x="737" y="302"/>
      <point x="744" y="325"/>
      <point x="744" y="354" type="curve" smooth="yes"/>
      <point x="744" y="402"/>
      <point x="724" y="440"/>
      <point x="691" y="467" type="curve" smooth="yes"/>
      <point x="657" y="495"/>
      <point x="610" y="508"/>
      <point x="562" y="508" type="curve" smooth="yes"/>
      <point x="518" y="508"/>
      <point x="489" y="497"/>
      <point x="461" y="478" type="curve" smooth="yes"/>
      <point x="435" y="460"/>
      <point x="412" y="437"/>
      <point x="392" y="400" type="curve"/>
      <point x="384" y="432"/>
      <point x="369" y="458"/>
      <point x="345" y="478" type="curve" smooth="yes"/>
      <point x="322" y="497"/>
      <point x="294" y="508"/>
      <point x="244" y="508" type="curve" smooth="yes"/>
      <point x="202" y="508"/>
      <point x="174" y="500"/>
      <point x="146" y="489" type="curve" smooth="yes"/>
      <point x="113" y="476"/>
      <point x="89" y="461"/>
      <point x="69" y="444" type="curve"/>
      <point x="96" y="402" type="line"/>
      <point x="117" y="418"/>
      <point x="143" y="432"/>
      <point x="164" y="440" type="curve" smooth="yes"/>
      <point x="182" y="447"/>
      <point x="215" y="456"/>
      <point x="247" y="456" type="curve" smooth="yes"/>
      <point x="276" y="456"/>
      <point x="303" y="449"/>
      <point x="322" y="428" type="curve" smooth="yes"/>
      <point x="340" y="408"/>
      <point x="348" y="380"/>
      <point x="348" y="336" type="curve" smooth="yes"/>
      <point x="348" y="280" type="line"/>
      <point x="251" y="280" type="line" smooth="yes"/>
      <point x="189" y="280"/>
      <point x="96" y="265"/>
      <point x="58" y="203" type="curve" smooth="yes"/>
      <point x="48" y="187"/>
      <point x="40" y="164"/>
      <point x="40" y="131" type="curve" smooth="yes"/>
      <point x="40" y="84"/>
      <point x="57" y="49"/>
      <point x="85" y="26" type="curve" smooth="yes"/>
      <point x="114" y="2"/>
      <point x="157" y="-10"/>
      <point x="202" y="-10" type="curve" smooth="yes"/>
    </contour>
    <contour>
      <point x="149" y="42"/>
      <point x="97" y="56"/>
      <point x="97" y="129" type="curve" smooth="yes"/>
      <point x="97" y="167"/>
      <point x="111" y="196"/>
      <point x="146" y="212" type="curve" smooth="yes"/>
      <point x="174" y="225"/>
      <point x="214" y="229"/>
      <point x="251" y="229" type="curve" smooth="yes"/>
      <point x="348" y="229" type="line"/>
      <point x="348" y="177" type="line" smooth="yes"/>
      <point x="348" y="138"/>
      <point x="333" y="101"/>
      <point x="305" y="77" type="curve" smooth="yes"/>
      <point x="276" y="52"/>
      <point x="236" y="42"/>
      <point x="196" y="42" type="curve" smooth="yes"/>
    </contour>
    <contour>
      <point x="403" y="301"/>
      <point x="418" y="354"/>
      <point x="447" y="395" type="curve" smooth="yes"/>
      <point x="472" y="430"/>
      <point x="510" y="459"/>
      <point x="568" y="459" type="curve" smooth="yes"/>
      <point x="628" y="459"/>
      <point x="687" y="429"/>
      <point x="687" y="355" type="curve" smooth="yes"/>
      <point x="687" y="330"/>
      <point x="680" y="305"/>
      <point x="658" y="286" type="curve" smooth="yes"/>
      <point x="627" y="260"/>
      <point x="573" y="252"/>
      <point x="524" y="252" type="curve" smooth="yes"/>
      <point x="403" y="252" type="line"/>
    </contour>
    <contour>
      <point x="398" y="502" type="move" name="top"/>
    </contour>
  </outline>
</glyph>
<glyph name="eth" format="1">
  <advance width="598"/>
  <unicode hex="00F0"/>
  <outline>
    <contour>
      <point x="424" y="-10"/>
      <point x="507" y="88"/>
      <point x="507" y="256" type="curve" smooth="yes"/>
      <point x="507" y="323"/>
      <point x="494" y="361"/>
      <point x="417" y="589" type="curve"/>
      <point x="511" y="619" type="line"/>
      <point x="496" y="674" type="line"/>
      <point x="398" y="644" type="line"/>
      <point x="360" y="748" type="line"/>
      <point x="302" y="730" type="line"/>
      <point x="342" y="626" type="line"/>
      <point x="251" y="596" type="line"/>
      <point x="266" y="541" type="line"/>
      <point x="361" y="571" type="line"/>
      <point x="386" y="497" type="line"/>
      <point x="352" y="503"/>
      <point x="310" y="508"/>
      <point x="279" y="508" type="curve" smooth="yes"/>
      <point x="131" y="508"/>
      <point x="41" y="395"/>
      <point x="41" y="246" type="curve" smooth="yes"/>
      <point x="41" y="100"/>
      <point x="127" y="-10"/>
      <point x="280" y="-10" type="curve" smooth="yes"/>
    </contour>
    <contour>
      <point x="163" y="42"/>
      <point x="98" y="126"/>
      <point x="98" y="252" type="curve" smooth="yes"/>
      <point x="98" y="377"/>
      <point x="163" y="455"/>
      <point x="300" y="455" type="curve" smooth="yes"/>
      <point x="341" y="455"/>
      <point x="360" y="448"/>
      <point x="405" y="441" type="curve"/>
      <point x="437" y="353"/>
      <point x="449" y="298"/>
      <point x="449" y="243" type="curve" smooth="yes"/>
      <point x="449" y="124"/>
      <point x="394" y="42"/>
      <point x="279" y="42" type="curve" smooth="yes"/>
    </contour>
  </outline>
</glyph>
<glyph name="divide" format="1">
  <advance width="490"/>
  <unicode hex="00F7"/>
  <outline>
    <contour>
      <point x="416" y="268" type="line"/>
      <point x="416" y="319" type="line"/>
      <point x="44" y="319" type="line"/>
      <point x="44" y="268" type="line"/>
    </contour>
    <component base="period" xOffset="140" yOffset="105"/>
    <component base="period" xOffset="140" yOffset="404"/>
  </outline>
</glyph>
<glyph name="oslash" format="2">
	<advance width="581"/>
	<unicode hex="00F8"/>
	<anchor x="284" y="500" name="top"/>
	<outline>
		<contour>
			<point x="101" y="9" type="line"/>
			<point x="150" y="-21" type="line"/>
			<point x="172" y="17" type="line"/>
			<point x="208" y="-2"/>
			<point x="248" y="-11"/>
			<point x="289" y="-11" type="curve"/>
			<point x="413" y="-11"/>
			<point x="539" y="77"/>
			<point x="539" y="251" type="curve"/>
			<point x="539" y="331"/>
			<point x="512" y="402"/>
			<point x="453" y="451" type="curve"/>
			<point x="480" y="489" type="line"/>
			<point x="431" y="519" type="line"/>
			<point x="408" y="481" type="line"/>
			<point x="374" y="499"/>
			<point x="331" y="508"/>
			<point x="290" y="508" type="curve"/>
			<point x="141" y="508"/>
			<point x="42" y="394"/>
			<point x="42" y="246" type="curve"/>
			<point x="42" y="169"/>
			<point x="69" y="93"/>
			<point x="127" y="46" type="curve"/>
		</contour>
		<contour>
			<point x="379" y="434" type="curve"/>
			<point x="154" y="91" type="line"/>
			<point x="117" y="128"/>
			<point x="99" y="182"/>
			<point x="99" y="245" type="curve"/>
			<point x="99" y="375"/>
			<point x="177" y="456"/>
			<point x="299" y="456" type="curve"/>
			<point x="339" y="456"/>
			<point x="362" y="447"/>
		</contour>
		<contour>
			<point x="290" y="41" type="curve"/>
			<point x="290" y="41" type="line"/>
			<point x="261" y="41"/>
			<point x="231" y="47"/>
			<point x="202" y="59" type="curve"/>
			<point x="427" y="407" type="line"/>
			<point x="464" y="372"/>
			<point x="482" y="320"/>
			<point x="482" y="257" type="curve"/>
			<point x="482" y="116"/>
			<point x="392" y="41"/>
		</contour>
	</outline>
</glyph>
<glyph name="thorn" format="2">
	<advance width="543"/>
	<unicode hex="00FE"/>
	<anchor x="270" y="500" name="top"/>
	<anchor x="270" y="0" name="bottom"/>
	<outline>
		<contour>
			<point x="80" y="726" type="line"/>
			<point x="80" y="-260" type="line"/>
			<point x="137" y="-260" type="line"/>
			<point x="137" y="0" type="line"/>
			<point x="173" y="-5"/>
			<point x="226" y="-9"/>
			<point x="256" y="-9" type="curve"/>
			<point x="412" y="-9"/>
			<point x="500" y="102"/>
			<point x="500" y="252" type="curve"/>
			<point x="500" y="389"/>
			<point x="428" y="509"/>
			<point x="287" y="509" type="curve"/>
			<point x="230" y="509"/>
			<point x="169" y="489"/>
			<point x="132" y="428" type="curve"/>
			<point x="135" y="506"/>
			<point x="137" y="628"/>
			<point x="137" y="726" type="curve"/>
		</contour>
		<contour>
			<point x="251" y="43" type="curve"/>
			<point x="251" y="43" type="line"/>
			<point x="236" y="43"/>
			<point x="219" y="44"/>
			<point x="137" y="52" type="curve"/>
			<point x="137" y="329" type="line"/>
			<point x="146" y="409"/>
			<point x="216" y="457"/>
			<point x="287" y="457" type="curve"/>
			<point x="391" y="457"/>
			<point x="440" y="355"/>
			<point x="440" y="246" type="curve"/>
			<point x="440" y="128"/>
			<point x="383" y="43"/>
		</contour>
	</outline>
</glyph>
<glyph name="Hbar" format="1">
  <advance width="700"/>
  <unicode hex="0126"/>
  <outline>
    <contour>
      <point x="630" y="501" type="line"/>
      <point x="630" y="553" type="line"/>
      <point x="102" y="553" type="line"/>
      <point x="102" y="501" type="line"/>
    </contour>
    <component base="H"/>
  </outline>
</glyph>
<glyph name="idotless" format="1">
  <advance width="229"/>
  <unicode hex="0131"/>
  <outline>
    <contour>
      <point x="183" y="-10"/>
      <point x="209" y="5"/>
      <point x="226" y="30" type="curve"/>
      <point x="180" y="60" type="line"/>
      <point x="173" y="49"/>
      <point x="161" y="45"/>
      <point x="152" y="45" type="curve" smooth="yes"/>
      <point x="135" y="45"/>
      <point x="117" y="59"/>
      <point x="117" y="80" type="curve" smooth="yes"/>
      <point x="117" y="500" type="line"/>
      <point x="62" y="500" type="line"/>
      <point x="62" y="80" type="line" smooth="yes"/>
      <point x="62" y="30"/>
      <point x="101" y="-10"/>
      <point x="152" y="-10" type="curve" smooth="yes"/>
    </contour>
    <contour>
      <point x="202" y="9" type="move" name="ogonek"/>
    </contour>
    <contour>
      <point x="90" y="500" type="move" name="top"/>
    </contour>
  </outline>
</glyph>
<glyph name="kgreenlandic" format="1">
  <advance width="530"/>
  <unicode hex="0138"/>
  <outline>
    <contour>
      <point x="109" y="1" type="line"/>
      <point x="109" y="201" type="line"/>
      <point x="279" y="201" type="line"/>
      <point x="375" y="43" type="line" smooth="yes"/>
      <point x="391" y="16"/>
      <point x="419" y="1"/>
      <point x="450" y="1" type="curve" smooth="yes"/>
      <point x="497" y="1"/>
      <point x="537" y="37"/>
      <point x="540" y="87" type="curve"/>
      <point x="484" y="90" type="line"/>
      <point x="484" y="74"/>
      <point x="472" y="58"/>
      <point x="450" y="58" type="curve" smooth="yes"/>
      <point x="440" y="58"/>
      <point x="432" y="62"/>
      <point x="425" y="69" type="curve"/>
      <point x="333" y="216" type="line"/>
      <point x="345" y="223"/>
      <point x="360" y="232"/>
      <point x="370" y="240" type="curve" smooth="yes"/>
      <point x="413" y="274"/>
      <point x="427" y="323"/>
      <point x="427" y="364" type="curve" smooth="yes"/>
      <point x="427" y="450"/>
      <point x="366" y="509"/>
      <point x="269" y="509" type="curve" smooth="yes"/>
      <point x="195" y="509"/>
      <point x="142" y="475"/>
      <point x="109" y="410" type="curve"/>
      <point x="109" y="511" type="line"/>
      <point x="54" y="511" type="line"/>
      <point x="54" y="1" type="line"/>
    </contour>
    <contour>
      <point x="111" y="279"/>
      <point x="114" y="303"/>
      <point x="122" y="330" type="curve" smooth="yes"/>
      <point x="145" y="407"/>
      <point x="196" y="460"/>
      <point x="267" y="460" type="curve" smooth="yes"/>
      <point x="323" y="460"/>
      <point x="375" y="427"/>
      <point x="375" y="362" type="curve" smooth="yes"/>
      <point x="375" y="297"/>
      <point x="322" y="253"/>
      <point x="227" y="253" type="curve" smooth="yes"/>
      <point x="111" y="253" type="line"/>
    </contour>
  </outline>
</glyph>
<glyph name="Lslash" format="1">
  <advance width="512"/>
  <unicode hex="0141"/>
  <outline>
    <contour>
      <point x="220" y="427" type="line"/>
      <point x="220" y="491" type="line"/>
      <point x="0" y="332" type="line"/>
      <point x="0" y="269" type="line"/>
    </contour>
    <component base="L"/>
  </outline>
</glyph>
<glyph name="lslash" format="2">
	<advance width="255"/>
	<unicode hex="0142"/>
	<outline>
		<contour>
			<point x="20" y="317" type="line"/>
			<point x="210" y="435" type="line"/>
			<point x="210" y="499" type="line"/>
			<point x="20" y="380" type="line"/>
		</contour>
		<component base="l" xOffset="19"/>
	</outline>
</glyph>
<glyph name="Eng" format="1">
  <advance width="791"/>
  <unicode hex="014A"/>
  <outline>
    <contour>
      <point x="660" y="-210"/>
      <point x="698" y="-170"/>
      <point x="698" y="-120" type="curve" smooth="yes"/>
      <point x="698" y="551" type="line"/>
      <point x="643" y="551" type="line"/>
      <point x="643" y="-120" type="line" smooth="yes"/>
      <point x="643" y="-140"/>
      <point x="629" y="-155"/>
      <point x="608" y="-155" type="curve" smooth="yes"/>
      <point x="596" y="-155"/>
      <point x="587" y="-150"/>
      <point x="580" y="-140" type="curve"/>
      <point x="534" y="-170" type="line"/>
      <point x="552" y="-197"/>
      <point x="578" y="-210"/>
      <point x="608" y="-210" type="curve" smooth="yes"/>
    </contour>
    <component base="N"/>
  </outline>
</glyph>
<glyph name="eng" format="2">
	<advance width="542"/>
	<unicode hex="014B"/>
	<outline>
		<contour>
			<point x="30" y="472" type="line"/>
			<point x="57" y="445"/>
			<point x="70" y="406"/>
			<point x="70" y="353" type="curve" smooth="yes"/>
			<point x="70" y="0" type="line"/>
			<point x="125" y="0" type="line"/>
			<point x="125" y="355" type="line"/>
			<point x="170" y="415"/>
			<point x="215" y="456"/>
			<point x="290" y="456" type="curve" smooth="yes"/>
			<point x="366" y="456"/>
			<point x="401" y="418"/>
			<point x="401" y="336" type="curve" smooth="yes"/>
			<point x="401" y="-25" type="line" smooth="yes"/>
			<point x="401" y="-47"/>
			<point x="382" y="-60"/>
			<point x="365" y="-60" type="curve" smooth="yes"/>
			<point x="355" y="-60"/>
			<point x="345" y="-55"/>
			<point x="337" y="-45" type="curve"/>
			<point x="292" y="-75" type="line"/>
			<point x="310" y="-101"/>
			<point x="334" y="-115"/>
			<point x="366" y="-115" type="curve" smooth="yes"/>
			<point x="420" y="-115"/>
			<point x="456" y="-73"/>
			<point x="456" y="-25" type="curve" smooth="yes"/>
			<point x="456" y="362" type="line"/>
			<point x="450" y="462"/>
			<point x="393" y="508"/>
			<point x="295" y="508" type="curve" smooth="yes"/>
			<point x="225" y="508"/>
			<point x="167" y="482"/>
			<point x="119" y="413" type="curve"/>
			<point x="112" y="450"/>
			<point x="96" y="483"/>
			<point x="64" y="505" type="curve"/>
		</contour>
	</outline>
</glyph>
<glyph name="oe" format="1">
  <advance width="955"/>
  <unicode hex="0153"/>
  <outline>
    <contour>
      <point x="381" y="-10"/>
      <point x="460" y="30"/>
      <point x="502" y="121" type="curve"/>
      <point x="531" y="39"/>
      <point x="595" y="-10"/>
      <point x="701" y="-10" type="curve" smooth="yes"/>
      <point x="767" y="-10"/>
      <point x="829" y="9"/>
      <point x="885" y="48" type="curve"/>
      <point x="859" y="90" type="line"/>
      <point x="808" y="63"/>
      <point x="762" y="42"/>
      <point x="699" y="42" type="curve" smooth="yes"/>
      <point x="602" y="42"/>
      <point x="548" y="93"/>
      <point x="536" y="200" type="curve"/>
      <point x="653" y="200" type="line" smooth="yes"/>
      <point x="765" y="200"/>
      <point x="873" y="240"/>
      <point x="873" y="354" type="curve" smooth="yes"/>
      <point x="873" y="453"/>
      <point x="792" y="508"/>
      <point x="696" y="508" type="curve" smooth="yes"/>
      <point x="599" y="508"/>
      <point x="536" y="451"/>
      <point x="506" y="369" type="curve"/>
      <point x="468" y="458"/>
      <point x="391" y="508"/>
      <point x="291" y="508" type="curve" smooth="yes"/>
      <point x="141" y="508"/>
      <point x="41" y="397"/>
      <point x="41" y="247" type="curve" smooth="yes"/>
      <point x="41" y="97"/>
      <point x="141" y="-10"/>
      <point x="290" y="-10" type="curve" smooth="yes"/>
    </contour>
    <contour>
      <point x="171" y="42"/>
      <point x="98" y="130"/>
      <point x="98" y="250" type="curve" smooth="yes"/>
      <point x="98" y="370"/>
      <point x="171" y="456"/>
      <point x="290" y="456" type="curve" smooth="yes"/>
      <point x="406" y="456"/>
      <point x="481" y="375"/>
      <point x="481" y="252" type="curve" smooth="yes"/>
      <point x="481" y="133"/>
      <point x="410" y="42"/>
      <point x="289" y="42" type="curve" smooth="yes"/>
    </contour>
    <contour>
      <point x="533" y="350"/>
      <point x="590" y="459"/>
      <point x="699" y="459" type="curve" smooth="yes"/>
      <point x="755" y="459"/>
      <point x="816" y="430"/>
      <point x="816" y="356" type="curve" smooth="yes"/>
      <point x="816" y="280"/>
      <point x="750" y="252"/>
      <point x="653" y="252" type="curve" smooth="yes"/>
      <point x="533" y="252" type="line"/>
    </contour>
    <contour>
      <point x="478" y="0" type="move" name="top"/>
    </contour>
  </outline>
</glyph>
<glyph name="longs" format="2">
	<advance width="252"/>
	<unicode hex="017F"/>
	<anchor x="111" y="500" name="top"/>
	<anchor x="111" y="0" name="bottom"/>
	<outline>
		<contour>
			<point x="80" y="493" type="curve"/>
			<point x="80" y="-200" type="line"/>
			<point x="140" y="-200" type="line"/>
			<point x="140" y="498" type="line" smooth="yes"/>
			<point x="140" y="563"/>
			<point x="147" y="646"/>
			<point x="238" y="646" type="curve"/>
			<point x="268" y="646"/>
			<point x="295" y="638"/>
			<point x="313" y="610" type="curve"/>
			<point x="352" y="653" type="line"/>
			<point x="325" y="688"/>
			<point x="288" y="700"/>
			<point x="236" y="702" type="curve"/>
			<point x="95" y="708"/>
			<point x="80" y="586"/>
		</contour>
	</outline>
</glyph>
<glyph name="Schwa" format="2">
	<advance width="686"/>
	<unicode hex="018F"/>
	<anchor x="83" y="630" name="ogonek"/>
	<anchor x="329" y="708" name="bottom"/>
	<anchor x="328" y="-14" name="top"/>
	<outline>
		<contour>
			<point x="330" y="707" type="curve"/>
			<point x="330" y="707" type="line"/>
			<point x="234" y="707"/>
			<point x="147" y="674"/>
			<point x="83" y="630" type="curve"/>
			<point x="108" y="588" type="line"/>
			<point x="180" y="626"/>
			<point x="241" y="652"/>
			<point x="324" y="652" type="curve"/>
			<point x="549" y="652"/>
			<point x="565" y="444"/>
			<point x="565" y="368" type="curve"/>
			<point x="565" y="150"/>
			<point x="457" y="35"/>
			<point x="330" y="35" type="curve"/>
			<point x="211" y="35"/>
			<point x="114" y="134"/>
			<point x="114" y="269" type="curve"/>
			<point x="114" y="296"/>
			<point x="117" y="326"/>
			<point x="124" y="363" type="curve"/>
			<point x="60" y="363" type="line"/>
			<point x="57" y="331"/>
			<point x="54" y="301"/>
			<point x="54" y="273" type="curve"/>
			<point x="54" y="105"/>
			<point x="170" y="-14"/>
			<point x="328" y="-14" type="curve"/>
			<point x="522" y="-14"/>
			<point x="625" y="165"/>
			<point x="625" y="367" type="curve"/>
			<point x="625" y="568"/>
			<point x="521" y="707"/>
		</contour>
		<contour>
			<point x="598" y="307" type="line"/>
			<point x="598" y="363" type="line"/>
			<point x="89" y="363" type="line"/>
			<point x="89" y="307" type="line"/>
		</contour>
	</outline>
</glyph>
<glyph name="florin" format="1">
  <advance width="499"/>
  <unicode hex="0192"/>
  <outline>
    <contour>
      <point x="138" y="-245"/>
      <point x="158" y="-242"/>
      <point x="176" y="-236" type="curve" smooth="yes"/>
      <point x="193" y="-230"/>
      <point x="208" y="-220"/>
      <point x="220" y="-207" type="curve" smooth="yes"/>
      <point x="232" y="-193"/>
      <point x="241" y="-175"/>
      <point x="248" y="-152" type="curve" smooth="yes"/>
      <point x="254" y="-129"/>
      <point x="257" y="-100"/>
      <point x="257" y="-66" type="curve" smooth="yes"/>
      <point x="257" y="358" type="line"/>
      <point x="429" y="358" type="line"/>
      <point x="429" y="413" type="line"/>
      <point x="257" y="413" type="line"/>
      <point x="257" y="501" type="line" smooth="yes"/>
      <point x="257" y="545"/>
      <point x="264" y="577"/>
      <point x="278" y="597" type="curve" smooth="yes"/>
      <point x="292" y="617"/>
      <point x="312" y="627"/>
      <point x="338" y="627" type="curve" smooth="yes"/>
      <point x="388" y="626" type="line" smooth="yes"/>
      <point x="407" y="625"/>
      <point x="427" y="625"/>
      <point x="446" y="625" type="curve"/>
      <point x="447" y="675" type="line"/>
      <point x="445" y="676"/>
      <point x="440" y="677"/>
      <point x="431" y="678" type="curve" smooth="yes"/>
      <point x="401" y="680" type="line"/>
      <point x="364" y="682" type="line"/>
      <point x="329" y="682" type="line" smooth="yes"/>
      <point x="306" y="682"/>
      <point x="286" y="679"/>
      <point x="269" y="672" type="curve" smooth="yes"/>
      <point x="252" y="665"/>
      <point x="239" y="654"/>
      <point x="228" y="638" type="curve" smooth="yes"/>
      <point x="217" y="622"/>
      <point x="210" y="601"/>
      <point x="205" y="574" type="curve" smooth="yes"/>
      <point x="200" y="547"/>
      <point x="198" y="514"/>
      <point x="198" y="474" type="curve" smooth="yes"/>
      <point x="198" y="413" type="line"/>
      <point x="85" y="413" type="line"/>
      <point x="85" y="358" type="line"/>
      <point x="198" y="358" type="line"/>
      <point x="198" y="-66" type="line" smooth="yes"/>
      <point x="198" y="-113"/>
      <point x="191" y="-146"/>
      <point x="176" y="-165" type="curve" smooth="yes"/>
      <point x="161" y="-183"/>
      <point x="141" y="-192"/>
      <point x="116" y="-192" type="curve" smooth="yes"/>
      <point x="72" y="-191" type="line"/>
      <point x="49" y="-189" type="line"/>
      <point x="49" y="-238" type="line"/>
      <point x="69" y="-242" type="line" smooth="yes"/>
      <point x="81" y="-244"/>
      <point x="97" y="-245"/>
      <point x="116" y="-245" type="curve" smooth="yes"/>
    </contour>
  </outline>
</glyph>
<glyph name="Nhookleft" format="2">
	<advance width="765"/>
	<unicode hex="019D"/>
	<anchor x="383" y="684" name="top"/>
	<anchor x="390" y="0" name="bottom"/>
	<outline>
		<contour>
			<point x="43" y="-204" type="curve"/>
			<point x="43" y="-204" type="line"/>
			<point x="93" y="-204"/>
			<point x="163" y="-174"/>
			<point x="163" y="-95" type="curve"/>
			<point x="159" y="584" type="line"/>
			<point x="173" y="563" type="line"/>
			<point x="640" y="0" type="line"/>
			<point x="665" y="0" type="line"/>
			<point x="665" y="683" type="line"/>
			<point x="603" y="683" type="line"/>
			<point x="606" y="121" type="line"/>
			<point x="592" y="143" type="line"/>
			<point x="252" y="559" type="line"/>
			<point x="141" y="684" type="line"/>
			<point x="100" y="684" type="line"/>
			<point x="100" y="-95" type="line" smooth="yes"/>
			<point x="100" y="-125"/>
			<point x="77" y="-148"/>
			<point x="46" y="-148" type="curve"/>
			<point x="19" y="-148"/>
			<point x="-9" y="-136"/>
			<point x="-9" y="-94" type="curve"/>
			<point x="-65" y="-94" type="line"/>
			<point x="-65" y="-164"/>
			<point x="-13" y="-204"/>
		</contour>
	</outline>
</glyph>
<glyph name="jdotless" format="1">
  <advance width="244"/>
  <unicode hex="0237"/>
  <outline>
    <contour>
      <point x="126" y="-260"/>
      <point x="164" y="-220"/>
      <point x="164" y="-170" type="curve" smooth="yes"/>
      <point x="164" y="501" type="line"/>
      <point x="109" y="501" type="line"/>
      <point x="109" y="-170" type="line" smooth="yes"/>
      <point x="109" y="-190"/>
      <point x="95" y="-205"/>
      <point x="74" y="-205" type="curve" smooth="yes"/>
      <point x="62" y="-205"/>
      <point x="53" y="-200"/>
      <point x="46" y="-190" type="curve"/>
      <point x="0" y="-220" type="line"/>
      <point x="18" y="-247"/>
      <point x="44" y="-260"/>
      <point x="74" y="-260" type="curve" smooth="yes"/>
    </contour>
    <contour>
      <point x="136" y="500" type="move" name="top"/>
    </contour>
  </outline>
</glyph>
<glyph name="apostrophemod" format="1">
  <advance width="197"/>
  <unicode hex="02BC"/>
  <outline>
    <contour>
      <point x="98" y="468"/>
      <point x="116" y="491"/>
      <point x="127" y="519" type="curve" smooth="yes"/>
      <point x="138" y="546"/>
      <point x="143" y="574"/>
      <point x="143" y="602" type="curve" smooth="yes"/>
      <point x="143" y="662" type="line" smooth="yes"/>
      <point x="143" y="681"/>
      <point x="130" y="695"/>
      <point x="111" y="695" type="curve" smooth="yes"/>
      <point x="92" y="695"/>
      <point x="79" y="681"/>
      <point x="79" y="662" type="curve" smooth="yes"/>
      <point x="79" y="602" type="line" smooth="yes"/>
      <point x="79" y="549"/>
      <point x="66" y="510"/>
      <point x="39" y="483" type="curve"/>
      <point x="73" y="450" type="line"/>
    </contour>
    <contour>
      <point x="110" y="603" type="move" name="_apostrophe"/>
    </contour>
  </outline>
</glyph>
<glyph name="circumflex" format="2">
	<advance width="338"/>
	<unicode hex="02C6"/>
	<anchor x="169" y="500" name="_top"/>
	<outline>
		<contour>
			<point x="21" y="575" type="line"/>
			<point x="88" y="575" type="line"/>
			<point x="169" y="664" type="line"/>
			<point x="249" y="575" type="line"/>
			<point x="317" y="575" type="line"/>
			<point x="193" y="717" type="line"/>
			<point x="144" y="717" type="line"/>
		</contour>
	</outline>
</glyph>
<glyph name="caron" format="1">
  <advance width="400"/>
  <unicode hex="02C7"/>
  <outline>
    <contour>
      <point x="209" y="565" type="line"/>
      <point x="333" y="707" type="line"/>
      <point x="265" y="707" type="line"/>
      <point x="185" y="618" type="line"/>
      <point x="104" y="707" type="line"/>
      <point x="37" y="707" type="line"/>
      <point x="160" y="565" type="line"/>
    </contour>
    <contour>
      <point x="185" y="500" type="move" name="_top"/>
    </contour>
  </outline>
</glyph>
<glyph name="breve" format="2">
	<advance width="367"/>
	<unicode hex="02D8"/>
	<anchor x="185" y="692" name="top"/>
	<anchor x="184" y="500" name="_top"/>
	<outline>
		<contour>
			<point x="184" y="552" type="curve" smooth="yes"/>
			<point x="271" y="552"/>
			<point x="319" y="600"/>
			<point x="322" y="689" type="curve"/>
			<point x="264" y="689" type="line"/>
			<point x="263" y="635"/>
			<point x="239" y="603"/>
			<point x="185" y="603" type="curve" smooth="yes"/>
			<point x="128" y="603"/>
			<point x="105" y="638"/>
			<point x="102" y="689" type="curve"/>
			<point x="44" y="689" type="line"/>
			<point x="47" y="608"/>
			<point x="91" y="552"/>
		</contour>
	</outline>
</glyph>
<glyph name="dotaccent" format="1">
  <advance width="195"/>
  <unicode hex="02D9"/>
  <outline>
    <component base="period" xOffset="8" yOffset="587"/>
    <contour>
      <point x="100" y="500" type="move" name="_top"/>
    </contour>
  </outline>
</glyph>
<glyph name="ring" format="2">
	<advance width="314"/>
	<unicode hex="02DA"/>
	<anchor x="157" y="763" name="top"/>
	<anchor x="157" y="500" name="_top"/>
	<outline>
		<contour>
			<point x="155" y="557" type="curve"/>
			<point x="155" y="557" type="line"/>
			<point x="215" y="557"/>
			<point x="258" y="597"/>
			<point x="258" y="661" type="curve"/>
			<point x="258" y="722"/>
			<point x="219" y="763"/>
			<point x="157" y="763" type="curve"/>
			<point x="95" y="763"/>
			<point x="56" y="721"/>
			<point x="56" y="659" type="curve"/>
			<point x="56" y="598"/>
			<point x="94" y="557"/>
		</contour>
		<contour>
			<point x="156" y="600" type="curve"/>
			<point x="156" y="600" type="line"/>
			<point x="127" y="600"/>
			<point x="105" y="621"/>
			<point x="105" y="659" type="curve"/>
			<point x="105" y="695"/>
			<point x="125" y="719"/>
			<point x="157" y="719" type="curve"/>
			<point x="188" y="719"/>
			<point x="210" y="696"/>
			<point x="210" y="661" type="curve"/>
			<point x="210" y="626"/>
			<point x="188" y="600"/>
		</contour>
	</outline>
</glyph>
<glyph name="ogonek" format="2">
	<advance width="262"/>
	<unicode hex="02DB"/>
	<anchor x="187" y="1" name="_ogonek"/>
	<outline>
		<contour>
			<point x="137" y="-204" type="curve"/>
			<point x="137" y="-204" type="line"/>
			<point x="166" y="-204"/>
			<point x="203" y="-193"/>
			<point x="227" y="-175" type="curve"/>
			<point x="202" y="-130" type="line"/>
			<point x="178" y="-148"/>
			<point x="160" y="-151"/>
			<point x="151" y="-151" type="curve"/>
			<point x="134" y="-151"/>
			<point x="108" y="-141"/>
			<point x="108" y="-111" type="curve"/>
			<point x="108" y="-84"/>
			<point x="130" y="-60"/>
			<point x="187" y="1" type="curve"/>
			<point x="131" y="7" type="line"/>
			<point x="79" y="-41"/>
			<point x="51" y="-69"/>
			<point x="51" y="-115" type="curve"/>
			<point x="51" y="-166"/>
			<point x="85" y="-204"/>
		</contour>
	</outline>
</glyph>
<glyph name="tilde" format="1">
  <advance width="502"/>
  <unicode hex="02DC"/>
  <outline>
    <contour>
      <point x="130" y="641"/>
      <point x="149" y="646"/>
      <point x="171" y="646" type="curve" smooth="yes"/>
      <point x="227" y="646"/>
      <point x="230" y="613"/>
      <point x="308" y="613" type="curve" smooth="yes"/>
      <point x="362" y="613"/>
      <point x="383" y="629"/>
      <point x="417" y="656" type="curve"/>
      <point x="383" y="697" type="line"/>
      <point x="360" y="678"/>
      <point x="337" y="664"/>
      <point x="310" y="664" type="curve" smooth="yes"/>
      <point x="266" y="664"/>
      <point x="229" y="699"/>
      <point x="170" y="699" type="curve" smooth="yes"/>
      <point x="141" y="699"/>
      <point x="108" y="691"/>
      <point x="63" y="654" type="curve"/>
      <point x="96" y="613" type="line"/>
    </contour>
    <contour>
      <point x="240" y="500" type="move" name="_top"/>
    </contour>
  </outline>
</glyph>
<glyph name="hungarumlaut" format="1">
  <advance width="428"/>
  <unicode hex="02DD"/>
  <outline>
    <contour>
      <point x="405" y="712" type="line"/>
      <point x="364" y="749" type="line"/>
      <point x="213" y="623" type="line"/>
      <point x="252" y="587" type="line"/>
    </contour>
    <contour>
      <point x="213" y="712" type="line"/>
      <point x="175" y="749" type="line"/>
      <point x="23" y="623" type="line"/>
      <point x="62" y="587" type="line"/>
    </contour>
    <contour>
      <point x="159" y="500" type="move" name="_top"/>
    </contour>
  </outline>
</glyph>
<glyph name="hookabovecomb" format="2">
	<advance width="0"/>
	<unicode hex="0309"/>
	<anchor x="-144" y="500" name="_top"/>
	<outline>
		<contour>
			<point x="-179" y="569" type="curve"/>
			<point x="-123" y="568" type="line"/>
			<point x="-78" y="616"/>
			<point x="-54" y="646"/>
			<point x="-54" y="689" type="curve"/>
			<point x="-54" y="740"/>
			<point x="-87" y="777"/>
			<point x="-137" y="777" type="curve"/>
			<point x="-168" y="777"/>
			<point x="-210" y="763"/>
			<point x="-234" y="741" type="curve"/>
			<point x="-206" y="698" type="line"/>
			<point x="-180" y="722"/>
			<point x="-159" y="723"/>
			<point x="-153" y="723" type="curve"/>
			<point x="-131" y="723"/>
			<point x="-110" y="710"/>
			<point x="-110" y="684" type="curve"/>
			<point x="-110" y="658"/>
			<point x="-130" y="631"/>
		</contour>
	</outline>
</glyph>
<glyph name="commaaccentcomb" format="2">
	<advance width="0"/>
	<unicode hex="0326"/>
	<anchor x="23" y="0" name="_bottom"/>
	<outline>
		<contour>
			<point x="-52" y="-285" type="line"/>
			<point x="2" y="-285" type="line"/>
			<point x="52" y="-78" type="line"/>
			<point x="-12" y="-78" type="line"/>
		</contour>
	</outline>
</glyph>
<glyph name="ogonekcomb" format="1">
  <advance width="30"/>
  <unicode hex="0328"/>
  <outline>
    <component base="ogonek"/>
    <contour>
      <point x="175" y="1" type="move" name="_ogonek"/>
    </contour>
  </outline>
</glyph>
<glyph name="strokelongcomb" format="2">
	<advance width="0"/>
	<unicode hex="0336"/>
	<anchor x="-296" y="249" name="_center"/>
	<outline>
		<contour>
			<point x="-516" y="281" type="line"/>
			<point x="-516" y="224" type="line"/>
			<point x="-77" y="222" type="line"/>
			<point x="-77" y="279" type="line"/>
		</contour>
	</outline>
</glyph>
<glyph name="slashshortcomb" format="2">
	<advance width="0"/>
	<unicode hex="0337"/>
	<anchor x="-159" y="401" name="_center"/>
	<outline>
		<contour>
			<point x="-289" y="361" type="line"/>
			<point x="-261" y="311" type="line"/>
			<point x="-31" y="444" type="line"/>
			<point x="-59" y="494" type="line"/>
		</contour>
	</outline>
</glyph>
<glyph name="slashlongcomb" format="2">
	<advance width="0"/>
	<unicode hex="0338"/>
	<anchor x="-192" y="272" name="_center"/>
	<outline>
		<contour>
			<point x="-74" y="631" type="line"/>
			<point x="-379" y="-97" type="line"/>
			<point x="-310" y="-97" type="line"/>
			<point x="-6" y="631" type="line"/>
		</contour>
	</outline>
</glyph>
<glyph name="gravetonecomb" format="1">
  <advance width="31"/>
  <unicode hex="0340"/>
  <outline>
    <component base="gravecomb"/>
    <contour>
      <point x="92" y="498" type="move" name="_top"/>
    </contour>
  </outline>
</glyph>
<glyph name="Alpha" format="1">
  <advance width="775"/>
  <unicode hex="0391"/>
  <outline>
    <component base="A"/>
    <contour>
      <point x="388" y="0" type="move" name="top"/>
    </contour>
  </outline>
</glyph>
<glyph name="pi" format="2">
	<advance width="557"/>
	<unicode hex="03C0"/>
	<outline>
		<contour>
			<point x="141" y="439" type="line"/>
			<point x="115" y="0" type="line"/>
			<point x="176" y="0" type="line"/>
			<point x="202" y="439" type="line"/>
			<point x="367" y="439" type="line"/>
			<point x="367" y="159" type="line" smooth="yes"/>
			<point x="367" y="127"/>
			<point x="370" y="101"/>
			<point x="375" y="80" type="curve"/>
			<point x="380" y="59"/>
			<point x="389" y="43"/>
			<point x="402" y="32" type="curve"/>
			<point x="414" y="20"/>
			<point x="430" y="12"/>
			<point x="450" y="7" type="curve"/>
			<point x="470" y="2"/>
			<point x="495" y="0"/>
			<point x="524" y="0" type="curve"/>
			<point x="522" y="60" type="line"/>
			<point x="504" y="60"/>
			<point x="489" y="61"/>
			<point x="477" y="64" type="curve"/>
			<point x="464" y="66"/>
			<point x="455" y="71"/>
			<point x="448" y="78" type="curve"/>
			<point x="441" y="85"/>
			<point x="436" y="95"/>
			<point x="433" y="108" type="curve"/>
			<point x="430" y="121"/>
			<point x="428" y="138"/>
			<point x="428" y="159" type="curve"/>
			<point x="428" y="441" type="line"/>
			<point x="455" y="442"/>
			<point x="475" y="444"/>
			<point x="490" y="449" type="curve"/>
			<point x="504" y="453"/>
			<point x="515" y="457"/>
			<point x="522" y="461" type="curve"/>
			<point x="526" y="521" type="line"/>
			<point x="501" y="512"/>
			<point x="475" y="507"/>
			<point x="448" y="504" type="curve"/>
			<point x="421" y="501"/>
			<point x="397" y="500"/>
			<point x="376" y="500" type="curve"/>
			<point x="173" y="500" type="line"/>
			<point x="119" y="497" type="line"/>
			<point x="69" y="493" type="line" smooth="yes"/>
			<point x="51" y="492"/>
			<point x="34" y="489"/>
			<point x="19" y="486" type="curve"/>
			<point x="19" y="422" type="line"/>
			<point x="50" y="429" type="line" smooth="yes"/>
			<point x="60" y="431"/>
			<point x="73" y="433"/>
			<point x="88" y="434" type="curve"/>
		</contour>
	</outline>
</glyph>
<glyph name="Be-cy" format="2">
	<advance width="584"/>
	<unicode hex="0411"/>
	<outline>
		<contour>
			<point x="300" y="391" type="curve"/>
			<point x="300" y="391" type="line"/>
			<point x="141" y="391" type="line"/>
			<point x="141" y="335" type="line"/>
			<point x="306" y="335" type="line" smooth="yes"/>
			<point x="415" y="335"/>
			<point x="474" y="270"/>
			<point x="474" y="185" type="curve"/>
			<point x="474" y="92"/>
			<point x="403" y="45"/>
			<point x="292" y="45" type="curve"/>
			<point x="276" y="45"/>
			<point x="246" y="46"/>
			<point x="225" y="47" type="curve"/>
			<point x="160" y="50" type="line"/>
			<point x="160" y="652" type="line"/>
			<point x="100" y="652" type="line"/>
			<point x="100" y="1" type="line"/>
			<point x="152" y="-5" type="line" smooth="yes"/>
			<point x="186" y="-9"/>
			<point x="255" y="-10"/>
			<point x="282" y="-10" type="curve"/>
			<point x="333" y="-10"/>
			<point x="368" y="-6"/>
			<point x="399" y="4" type="curve"/>
			<point x="489" y="33"/>
			<point x="533" y="106"/>
			<point x="533" y="185" type="curve"/>
			<point x="533" y="304"/>
			<point x="438" y="391"/>
		</contour>
		<contour>
			<point x="100" y="629" type="line"/>
			<point x="499" y="629" type="line"/>
			<point x="499" y="685" type="line"/>
			<point x="100" y="685" type="line"/>
		</contour>
	</outline>
</glyph>
<glyph name="De-cy" format="2">
	<advance width="725"/>
	<unicode hex="0414"/>
	<outline>
		<contour>
			<point x="692" y="-160" type="line"/>
			<point x="692" y="56" type="line"/>
			<point x="603" y="56" type="line"/>
			<point x="604" y="684" type="line"/>
			<point x="286" y="684" type="line"/>
			<point x="261" y="433"/>
			<point x="234" y="313"/>
			<point x="88" y="58" type="curve"/>
			<point x="33" y="56" type="line"/>
			<point x="33" y="-160" type="line"/>
			<point x="93" y="-160" type="line"/>
			<point x="93" y="0" type="line"/>
			<point x="632" y="0" type="line"/>
			<point x="632" y="-160" type="line"/>
		</contour>
		<contour>
			<point x="339" y="628" type="curve"/>
			<point x="339" y="628" type="line"/>
			<point x="544" y="628" type="line"/>
			<point x="544" y="56" type="line"/>
			<point x="150" y="56" type="line"/>
			<point x="268" y="267"/>
			<point x="314" y="399"/>
		</contour>
	</outline>
</glyph>
<glyph name="Zhe-cy" format="2">
	<advance width="918"/>
	<unicode hex="0416"/>
	<anchor x="464" y="684" name="top"/>
	<anchor x="902" y="0" name="bottomright"/>
	<outline>
		<contour>
			<point x="432" y="341" type="curve"/>
			<point x="432" y="0" type="line"/>
			<point x="492" y="0" type="line"/>
			<point x="492" y="341" type="line"/>
			<point x="581" y="341" type="line" smooth="yes"/>
			<point x="611" y="341"/>
			<point x="665" y="317"/>
			<point x="701" y="272" type="curve"/>
			<point x="721" y="248"/>
			<point x="733" y="206"/>
			<point x="746" y="168" type="curve"/>
			<point x="771" y="95"/>
			<point x="793" y="16"/>
			<point x="849" y="-9" type="curve"/>
			<point x="878" y="36" type="line"/>
			<point x="843" y="52"/>
			<point x="812" y="144"/>
			<point x="800" y="180" type="curve"/>
			<point x="779" y="243"/>
			<point x="771" y="289"/>
			<point x="707" y="344" type="curve"/>
			<point x="686" y="362"/>
			<point x="677" y="367"/>
			<point x="670" y="371" type="curve"/>
			<point x="734" y="414"/>
			<point x="749" y="489"/>
			<point x="761" y="550" type="curve"/>
			<point x="770" y="597"/>
			<point x="774" y="634"/>
			<point x="808" y="634" type="curve"/>
			<point x="821" y="634"/>
			<point x="836" y="630"/>
			<point x="847" y="624" type="curve"/>
			<point x="875" y="672" type="line"/>
			<point x="855" y="683"/>
			<point x="832" y="690"/>
			<point x="809" y="690" type="curve"/>
			<point x="763" y="690"/>
			<point x="737" y="664"/>
			<point x="722" y="619" type="curve"/>
			<point x="707" y="574"/>
			<point x="693" y="496"/>
			<point x="682" y="468" type="curve"/>
			<point x="666" y="429"/>
			<point x="642" y="414"/>
			<point x="616" y="406" type="curve"/>
			<point x="586" y="397"/>
			<point x="546" y="396"/>
			<point x="492" y="396" type="curve"/>
			<point x="492" y="684" type="line"/>
			<point x="432" y="684" type="line"/>
			<point x="432" y="396" type="line"/>
			<point x="379" y="396"/>
			<point x="341" y="398"/>
			<point x="313" y="407" type="curve"/>
			<point x="260" y="424"/>
			<point x="240" y="463"/>
			<point x="221" y="555" type="curve"/>
			<point x="205" y="630"/>
			<point x="192" y="690"/>
			<point x="119" y="690" type="curve"/>
			<point x="95" y="690"/>
			<point x="71" y="682"/>
			<point x="52" y="672" type="curve"/>
			<point x="78" y="624" type="line"/>
			<point x="95" y="634"/>
			<point x="110" y="635"/>
			<point x="120" y="635" type="curve"/>
			<point x="141" y="635"/>
			<point x="146" y="621"/>
			<point x="153" y="602" type="curve"/>
			<point x="159" y="586"/>
			<point x="165" y="555"/>
			<point x="169" y="537" type="curve"/>
			<point x="183" y="470"/>
			<point x="196" y="410"/>
			<point x="258" y="370" type="curve"/>
			<point x="172" y="321"/>
			<point x="151" y="257"/>
			<point x="128" y="184" type="curve"/>
			<point x="109" y="121"/>
			<point x="71" y="56"/>
			<point x="38" y="40" type="curve"/>
			<point x="74" y="-4" type="line"/>
			<point x="134" y="23"/>
			<point x="165" y="116"/>
			<point x="186" y="187" type="curve"/>
			<point x="207" y="259"/>
			<point x="248" y="317"/>
			<point x="321" y="337" type="curve"/>
			<point x="350" y="345"/>
			<point x="389" y="341"/>
		</contour>
	</outline>
</glyph>
<glyph name="Ze-cy" format="2">
	<advance width="588"/>
	<unicode hex="0417"/>
	<anchor x="291" y="684" name="top"/>
	<anchor x="291" y="0" name="bottom"/>
	<outline>
		<contour>
			<point x="299" y="-15" type="curve"/>
			<point x="299" y="-15" type="line"/>
			<point x="439" y="-15"/>
			<point x="533" y="69"/>
			<point x="533" y="194" type="curve"/>
			<point x="533" y="292"/>
			<point x="474" y="375"/>
			<point x="393" y="390" type="curve"/>
			<point x="451" y="409"/>
			<point x="497" y="478"/>
			<point x="497" y="546" type="curve"/>
			<point x="497" y="637"/>
			<point x="414" y="698"/>
			<point x="289" y="698" type="curve"/>
			<point x="206" y="698"/>
			<point x="121" y="678"/>
			<point x="78" y="650" type="curve"/>
			<point x="93" y="596" type="line"/>
			<point x="129" y="621"/>
			<point x="217" y="642"/>
			<point x="292" y="642" type="curve"/>
			<point x="378" y="642"/>
			<point x="437" y="600"/>
			<point x="437" y="539" type="curve"/>
			<point x="437" y="477"/>
			<point x="373" y="418"/>
			<point x="305" y="418" type="curve"/>
			<point x="156" y="418" type="line"/>
			<point x="156" y="362" type="line"/>
			<point x="306" y="362" type="line" smooth="yes"/>
			<point x="402" y="362"/>
			<point x="473" y="294"/>
			<point x="473" y="202" type="curve"/>
			<point x="473" y="105"/>
			<point x="398" y="41"/>
			<point x="286" y="41" type="curve"/>
			<point x="203" y="41"/>
			<point x="124" y="74"/>
			<point x="63" y="117" type="curve"/>
			<point x="35" y="68" type="line"/>
			<point x="94" y="27"/>
			<point x="189" y="-15"/>
		</contour>
	</outline>
</glyph>
<glyph name="Ka-cy" format="2">
	<advance width="657"/>
	<unicode hex="041A"/>
	<anchor x="331" y="684" name="top"/>
	<anchor x="641" y="0" name="bottomright"/>
	<outline>
		<contour>
			<point x="100" y="686" type="line"/>
			<point x="100" y="-2" type="line"/>
			<point x="160" y="-2" type="line"/>
			<point x="160" y="329" type="line"/>
			<point x="280" y="328" type="line"/>
			<point x="337" y="328"/>
			<point x="404" y="274"/>
			<point x="429" y="219" type="curve"/>
			<point x="461" y="149"/>
			<point x="502" y="19"/>
			<point x="586" y="-10" type="curve"/>
			<point x="603" y="42" type="line"/>
			<point x="557" y="61"/>
			<point x="514" y="154"/>
			<point x="489" y="218" type="curve"/>
			<point x="463" y="282"/>
			<point x="423" y="328"/>
			<point x="355" y="360" type="curve"/>
			<point x="382" y="375"/>
			<point x="406" y="396"/>
			<point x="422" y="422" type="curve"/>
			<point x="464" y="488"/>
			<point x="475" y="612"/>
			<point x="503" y="633" type="curve"/>
			<point x="512" y="640"/>
			<point x="525" y="642"/>
			<point x="539" y="642" type="curve"/>
			<point x="559" y="642"/>
			<point x="581" y="637"/>
			<point x="596" y="630" type="curve"/>
			<point x="619" y="679" type="line"/>
			<point x="595" y="689"/>
			<point x="567" y="696"/>
			<point x="540" y="696" type="curve"/>
			<point x="514" y="696"/>
			<point x="490" y="690"/>
			<point x="471" y="676" type="curve"/>
			<point x="416" y="636"/>
			<point x="418" y="508"/>
			<point x="373" y="445" type="curve"/>
			<point x="327" y="380"/>
			<point x="236" y="385"/>
			<point x="160" y="385" type="curve"/>
			<point x="160" y="686" type="line"/>
		</contour>
	</outline>
</glyph>
<glyph name="El-cy" format="2">
	<advance width="734"/>
	<unicode hex="041B"/>
	<outline>
		<contour>
			<point x="114" y="-16" type="curve"/>
			<point x="114" y="-16" type="line"/>
			<point x="168" y="-16"/>
			<point x="201" y="10"/>
			<point x="222" y="59" type="curve"/>
			<point x="266" y="162"/>
			<point x="272" y="519"/>
			<point x="273" y="628" type="curve"/>
			<point x="574" y="628" type="line"/>
			<point x="574" y="0" type="line"/>
			<point x="634" y="0" type="line"/>
			<point x="634" y="685" type="line"/>
			<point x="217" y="684" type="line"/>
			<point x="216" y="548"/>
			<point x="214" y="412"/>
			<point x="203" y="275" type="curve"/>
			<point x="199" y="235"/>
			<point x="195" y="146"/>
			<point x="174" y="90" type="curve"/>
			<point x="162" y="58"/>
			<point x="148" y="39"/>
			<point x="117" y="39" type="curve"/>
			<point x="102" y="39"/>
			<point x="85" y="44"/>
			<point x="73" y="60" type="curve"/>
			<point x="29" y="26" type="line"/>
			<point x="49" y="0"/>
			<point x="80" y="-16"/>
		</contour>
	</outline>
</glyph>
<glyph name="Pe-cy" format="2">
	<advance width="686"/>
	<unicode hex="041F"/>
	<anchor x="665" y="0" name="bottomright"/>
	<outline>
		<contour>
			<point x="100" y="686" type="line"/>
			<point x="100" y="0" type="line"/>
			<point x="160" y="0" type="line"/>
			<point x="160" y="630" type="line"/>
			<point x="526" y="630" type="line"/>
			<point x="526" y="0" type="line"/>
			<point x="586" y="0" type="line"/>
			<point x="586" y="686" type="line"/>
		</contour>
	</outline>
</glyph>
<glyph name="U-cy" format="2">
	<advance width="672"/>
	<unicode hex="0423"/>
	<anchor x="319" y="684" name="top"/>
	<outline>
		<contour>
			<point x="208" y="-9" type="curve"/>
			<point x="208" y="-9" type="line"/>
			<point x="234" y="-9"/>
			<point x="260" y="-3"/>
			<point x="282" y="10" type="curve"/>
			<point x="324" y="35"/>
			<point x="359" y="86"/>
			<point x="383" y="132" type="curve"/>
			<point x="383" y="134"/>
			<point x="448" y="276"/>
			<point x="639" y="684" type="curve"/>
			<point x="574" y="684" type="line"/>
			<point x="377" y="263" type="line"/>
			<point x="189" y="633" type="line"/>
			<point x="164" y="684"/>
			<point x="112" y="698"/>
			<point x="67" y="674" type="curve"/>
			<point x="46" y="663"/>
			<point x="34" y="647"/>
			<point x="30" y="634" type="curve"/>
			<point x="78" y="610" type="line"/>
			<point x="80" y="615"/>
			<point x="86" y="621"/>
			<point x="92" y="624" type="curve"/>
			<point x="109" y="633"/>
			<point x="127" y="625"/>
			<point x="137" y="606" type="curve"/>
			<point x="137" y="606" type="line"/>
			<point x="345" y="193" type="line"/>
			<point x="307" y="110"/>
			<point x="273" y="51"/>
			<point x="204" y="51" type="curve"/>
			<point x="184" y="51"/>
			<point x="158" y="56"/>
			<point x="129" y="71" type="curve"/>
			<point x="105" y="15" type="line"/>
			<point x="136" y="1"/>
			<point x="173" y="-9"/>
		</contour>
	</outline>
</glyph>
<glyph name="Ef-cy" format="2">
	<advance width="799"/>
	<unicode hex="0424"/>
	<outline>
		<contour>
			<point x="369" y="49" type="curve"/>
			<point x="370" y="-22" type="line"/>
			<point x="430" y="-22" type="line"/>
			<point x="430" y="47" type="line"/>
			<point x="643" y="60"/>
			<point x="748" y="205"/>
			<point x="748" y="350" type="curve"/>
			<point x="748" y="495"/>
			<point x="642" y="641"/>
			<point x="430" y="654" type="curve"/>
			<point x="430" y="724" type="line"/>
			<point x="370" y="724" type="line"/>
			<point x="370" y="654" type="line"/>
			<point x="159" y="641"/>
			<point x="51" y="496"/>
			<point x="51" y="351" type="curve"/>
			<point x="51" y="207"/>
			<point x="157" y="63"/>
		</contour>
		<contour>
			<point x="370" y="598" type="curve"/>
			<point x="369" y="105" type="line"/>
			<point x="198" y="123"/>
			<point x="111" y="236"/>
			<point x="111" y="350" type="curve"/>
			<point x="111" y="467"/>
			<point x="199" y="584"/>
		</contour>
		<contour>
			<point x="430" y="107" type="curve"/>
			<point x="430" y="107" type="line"/>
			<point x="430" y="598" type="line"/>
			<point x="602" y="584"/>
			<point x="688" y="468"/>
			<point x="688" y="352" type="curve"/>
			<point x="688" y="236"/>
			<point x="602" y="120"/>
		</contour>
	</outline>
</glyph>
<glyph name="Tse-cy" format="2">
	<advance width="750"/>
	<unicode hex="0426"/>
	<outline>
		<contour>
			<point x="657" y="-1" type="line"/>
			<point x="657" y="-159" type="line"/>
			<point x="717" y="-159" type="line"/>
			<point x="717" y="55" type="line"/>
			<point x="622" y="55" type="line"/>
			<point x="622" y="684" type="line"/>
			<point x="562" y="684" type="line"/>
			<point x="562" y="55" type="line"/>
			<point x="196" y="55" type="line"/>
			<point x="196" y="569" type="line"/>
			<point x="196" y="595" type="line"/>
			<point x="196" y="655"/>
			<point x="158" y="698"/>
			<point x="99" y="698" type="curve"/>
			<point x="56" y="698"/>
			<point x="27" y="671"/>
			<point x="14" y="647" type="curve"/>
			<point x="59" y="615" type="line"/>
			<point x="65" y="625"/>
			<point x="78" y="641"/>
			<point x="100" y="641" type="curve"/>
			<point x="123" y="641"/>
			<point x="136" y="621"/>
			<point x="136" y="595" type="curve"/>
			<point x="136" y="569" type="line"/>
			<point x="136" y="569" type="line"/>
			<point x="137" y="-1" type="line"/>
		</contour>
	</outline>
</glyph>
<glyph name="Che-cy" format="2">
	<advance width="713"/>
	<unicode hex="0427"/>
	<anchor x="356" y="684" name="top"/>
	<anchor x="693" y="0" name="bottomright"/>
	<outline>
		<contour>
			<point x="554" y="338" type="curve"/>
			<point x="554" y="0" type="line"/>
			<point x="614" y="0" type="line"/>
			<point x="614" y="684" type="line"/>
			<point x="554" y="684" type="line"/>
			<point x="554" y="405" type="line"/>
			<point x="504" y="330"/>
			<point x="419" y="288"/>
			<point x="328" y="293" type="curve"/>
			<point x="245" y="297"/>
			<point x="199" y="334"/>
			<point x="199" y="416" type="curve"/>
			<point x="199" y="501"/>
			<point x="199" y="548"/>
			<point x="199" y="573" type="curve"/>
			<point x="198" y="599" type="line"/>
			<point x="196" y="659"/>
			<point x="157" y="701"/>
			<point x="98" y="699" type="curve"/>
			<point x="55" y="697"/>
			<point x="27" y="669"/>
			<point x="15" y="645" type="curve"/>
			<point x="61" y="614" type="line"/>
			<point x="66" y="625"/>
			<point x="79" y="641"/>
			<point x="101" y="642" type="curve"/>
			<point x="124" y="643"/>
			<point x="137" y="623"/>
			<point x="138" y="597" type="curve"/>
			<point x="139" y="571" type="line"/>
			<point x="139" y="571" type="line"/>
			<point x="139" y="525"/>
			<point x="138" y="451"/>
			<point x="138" y="435" type="curve"/>
			<point x="138" y="294"/>
			<point x="219" y="228"/>
			<point x="356" y="237" type="curve"/>
			<point x="424" y="241"/>
			<point x="490" y="263"/>
		</contour>
	</outline>
</glyph>
<glyph name="Sha-cy" format="2">
	<advance width="1008"/>
	<unicode hex="0428"/>
	<anchor x="908" y="0" name="tail"/>
	<outline>
		<contour>
			<point x="137" y="0" type="line"/>
			<point x="908" y="0" type="line"/>
			<point x="908" y="686" type="line"/>
			<point x="848" y="686" type="line"/>
			<point x="848" y="56" type="line"/>
			<point x="552" y="56" type="line"/>
			<point x="552" y="686" type="line"/>
			<point x="492" y="686" type="line"/>
			<point x="492" y="56" type="line"/>
			<point x="196" y="56" type="line"/>
			<point x="196" y="572" type="line"/>
			<point x="196" y="598" type="line"/>
			<point x="196" y="658"/>
			<point x="158" y="701"/>
			<point x="99" y="701" type="curve"/>
			<point x="56" y="701"/>
			<point x="27" y="674"/>
			<point x="14" y="650" type="curve"/>
			<point x="59" y="618" type="line"/>
			<point x="65" y="628"/>
			<point x="78" y="644"/>
			<point x="100" y="644" type="curve"/>
			<point x="123" y="644"/>
			<point x="136" y="624"/>
			<point x="136" y="598" type="curve"/>
			<point x="136" y="572" type="line"/>
			<point x="136" y="572" type="line"/>
		</contour>
	</outline>
</glyph>
<glyph name="Hardsign-cy" format="2">
	<advance width="686"/>
	<unicode hex="042A"/>
	<anchor x="342" y="684" name="top"/>
	<outline>
		<contour>
			<point x="34" y="629" type="line"/>
			<point x="254" y="629" type="line"/>
			<point x="254" y="685" type="line"/>
			<point x="34" y="685" type="line"/>
		</contour>
		<component base="Softsign-cy" xOffset="108"/>
	</outline>
</glyph>
<glyph name="Ereversed-cy" format="2">
	<advance width="622"/>
	<unicode hex="042D"/>
	<anchor x="309" y="684" name="top"/>
	<outline>
		<contour>
			<point x="564" y="354" type="curve"/>
			<point x="564" y="354" type="line"/>
			<point x="564" y="562"/>
			<point x="433" y="716"/>
			<point x="232" y="716" type="curve"/>
			<point x="164" y="716"/>
			<point x="96" y="697"/>
			<point x="41" y="658" type="curve"/>
			<point x="72" y="613" type="line"/>
			<point x="117" y="644"/>
			<point x="175" y="660"/>
			<point x="233" y="660" type="curve"/>
			<point x="361" y="660"/>
			<point x="492" y="581"/>
			<point x="503" y="386" type="curve"/>
			<point x="187" y="386" type="line"/>
			<point x="187" y="330" type="line"/>
			<point x="503" y="330" type="line"/>
			<point x="493" y="160"/>
			<point x="391" y="56"/>
			<point x="227" y="56" type="curve"/>
			<point x="172" y="56"/>
			<point x="120" y="70"/>
			<point x="72" y="103" type="curve"/>
			<point x="41" y="58" type="line"/>
			<point x="94" y="21"/>
			<point x="155" y="0"/>
			<point x="225" y="0" type="curve"/>
			<point x="433" y="0"/>
			<point x="564" y="147"/>
		</contour>
	</outline>
</glyph>
<glyph name="Iu-cy" format="2">
	<advance width="956"/>
	<unicode hex="042E"/>
	<anchor x="483" y="684" name="top"/>
	<outline>
		<contour>
			<point x="100" y="686" type="line"/>
			<point x="100" y="-1" type="line"/>
			<point x="160" y="-1" type="line"/>
			<point x="160" y="315" type="line"/>
			<point x="277" y="315" type="line"/>
			<point x="291" y="100"/>
			<point x="439" y="-10"/>
			<point x="588" y="-10" type="curve"/>
			<point x="772" y="-10"/>
			<point x="898" y="144"/>
			<point x="898" y="341" type="curve"/>
			<point x="898" y="537"/>
			<point x="775" y="694"/>
			<point x="587" y="694" type="curve"/>
			<point x="439" y="694"/>
			<point x="291" y="586"/>
			<point x="277" y="370" type="curve"/>
			<point x="160" y="370" type="line"/>
			<point x="160" y="686" type="line"/>
		</contour>
		<contour>
			<point x="838" y="344" type="curve"/>
			<point x="838" y="344" type="line"/>
			<point x="838" y="179"/>
			<point x="741" y="46"/>
			<point x="586" y="46" type="curve"/>
			<point x="435" y="46"/>
			<point x="335" y="178"/>
			<point x="335" y="343" type="curve"/>
			<point x="335" y="501"/>
			<point x="429" y="638"/>
			<point x="588" y="638" type="curve"/>
			<point x="729" y="638"/>
			<point x="838" y="516"/>
		</contour>
	</outline>
</glyph>
